<?xml version="1.0" encoding="utf-8"?>
<!-- Generator: Adobe Illustrator 27.2.0, SVG Export Plug-In . SVG Version: 6.00 Build 0)  -->
<svg version="1.1" id="Layer_1" xmlns="http://www.w3.org/2000/svg" xmlns:xlink="http://www.w3.org/1999/xlink" x="0px" y="0px"
	 viewBox="0 0 3200 1800" enable-background="new 0 0 3200 1800" xml:space="preserve">
<g id="COUNTRIES">
	<g id="B_R_A_Z_I_L">
		<path fill-rule="evenodd" clip-rule="evenodd" stroke="#FFFFFF" stroke-miterlimit="10" d="M1754.4,396.9l1.5-2l2.8-1.8l0.9,0.9
			l-1.1,2.6l-3,0.6L1754.4,396.9L1754.4,396.9z M1750.8,396.8l1.5-0.4l0.7-1.5l4.5-4.3l2.1-0.2l3.4-3.6l-0.9-1.5l-1.5,0.4l-1.8-0.2
			l-1.9,0.8l-3.8,3.9L1750.8,396.8L1750.8,396.8z M1768.2,382.4l-0.5-1.7l-2.5-1.2l-0.4,2.3l1.2,1.8l2,0.7L1768.2,382.4
			L1768.2,382.4z M1768.3,378.3l-0.7-3.6l2.3-2.6l2-1l2.7-2l1.8,0.3l-1.7,2.9l-2.3,0.7l-2,3.1L1768.3,378.3L1768.3,378.3z
			 M1769.7,381l1.8,1l5,0.1l1.5,0.9l2.6-1.2l0.8-2.6l-2.3-1.8l-5.7,1.5l-3,0.3L1769.7,381L1769.7,381z M1781,385.8l3.1-1.3l0.9-1.8
			l2.8-0.1l2.3,1.7l-1.5,2.3l-4.5,0.3L1781,385.8L1781,385.8z M1768.5,343.7l-2-3.1l-1.6-5.1l0.6-1.5l2.8,1.9l2.9,5.2l-0.4,2.8
			C1770.6,344,1768.7,343.7,1768.5,343.7L1768.5,343.7z M1750.5,303.6l-1.7-1.6l-0.7-3.9l-2.5-4.8l-1,0.6l0.3,3.2l-1.6,2.5l-4.7,3.1
			l0.1-0.1l-0.2,0.2l-1.5,2.3l-5,6.1l-5.3,6.8l-0.1,3.7l-3.9,8.4l-3.3,5.3l-2.5,4.9l-3.5,0.6l-2.1,1.5l-0.8,3.3l-3.6,2.6l-2.4-0.8
			l-0.1-5.3l-1.5-0.7l-0.5-1.7l-2.3-0.2l-2.8,1.1l-2.2,2.4l-3.5-0.6l-2.8-3.1l0-2l-1.1-0.9l-1.3-3.3l-0.7-1.9l-2.8-0.6l-3.9-3.7
			l-5.3-0.2l-3.9,1.8l-8.4,0.4l-4.5-1.2l-3.9,2.6l-0.7,3.7l3.7,3.7l0.9,2.3l1.9,4.4l-0.7,1.5l-3.4,0.1l-5.1-1.4l-1.2-1l-1.7,0
			l-0.4-0.1l0.1,0.1h-6.6l-3.6,0.6l-1.6-1.8l-6,0.3l-4.2,1.8l-2.3,6.4l-8.3-0.3l-4.2,1.3l-0.6,1.9l-2.8,3.4l-4.7,0.4l-0.6-1.3
			l-2.8,0.7l-2.5,3.2l-3.2-1.3l-8-6.9l-2.9-3.6l-0.1-2.9l-4.4-4.4l-3.6-3.8l-0.4-4.1l0.9-2.8l-1-2l0.6-3.6l1.5-2.9l-0.3-4.4l3.9-6.9
			l1.3-5.5l3.6-4.5l-0.1-2.2l-3.8,0.3l-1.9-2.9l-1.3-2.9l-4.2,0.3l-3.5-1.8l1.8-2.5l2.5-3.9v-5.4l-3.4-4.2l-4.5-0.4l-2.2,1.5
			l-1.6-1.7l-2-0.3l0.4,4.2l-1.9,4.8l-10.5,7.4l-6.6,0.6l-9,3.8l-3.4-1.6l-5.7,0.6l-6.6,5.8l-6.4,2.2l-2.2-1.5l-9,1.2l-7,0.4
			l-6.3-3.5l-6.3-1l-5.8-1.8l2.6,5l4.2,1.6l4.4,4.1l1.5,3.8l-5.7,8.7l2.2,4.1l-1.3,6.7l9.3,3.1l6.4-0.7l6.4,1.3l0.3,4.1l-4.7,2.2
			l-9.5,1.9l-3.4,3.6l-1.9,5.3l-10.4,5.4l-3.4,3.9l-7,4.6l-4.7,5.7l-8.3,0.4l-4.7-0.7l-8-6.2l-7.8-5.3l-5.3,0.6l0.1-5.6l-0.8-4.5
			l-3.4-4.1l-1.1-3.1l-5.5,1.5l-3.9,4.4l-2.6,0.4l-2.2-2h-3.9l-2.5,2.8l-22.9,0.1l-1.3,6.6l1.9,4.8l7.7,2l2.9,5.4l-2.2,2.5l2.3,2.5
			l-1,3.4l-4.8-3.2l-13.6,4.7l0.6,11.1l3.5,4.5l7.6,5.8l5,8.7l-0.3,6.9l-0.1,3.1l-11.4,42.2l-3.4,11.2l0.5,2l-1.8,2.9l-4.4-1.2
			l0.4-1.3l-4.5-2.9l-1.6,0.4h-3.9l-1.7-0.7l-1.5,3.2l-13.9,4.5l-10.4,2.2l-2.6,2.6l-2.3,0.7l-4.2,4.2l-4.8,2.2l-3.6,2.3l0.6,5.2
			l-2,3.1l0.9,3.2l-5.5,5.5l1.9,7l1.9,3.6l-3.4,3.2l-2.9-0.6l-5.7,3.6l-0.3,4.1l-2,2.2l1.3,2.8l-0.7,4.5l-1.6,3.8l1.5,3.4l-1,3.1
			l5.5,5.5l9.9,16l-5.1,6.4l12.5-1l6,1l4.4,6.4l1.3,5.7l8.7,0.3l10.3,0.7l8.5-7.8l7.2-4.2l2,2.2l-0.9,4.5l-1.5,1.5l-0.1,7.2
			l1.1,11.9l0.2,4.8l2.5,2.3l4-0.7l3.9-1.1l4.4-0.3l2.2-0.3l2,1l0.6,0.3l0,0l12.8,0l5.8,0.3l5.8-3.2h3.2l4.4-3.5h5l5.8-1.7l3.5-9.1
			l9.6-6.1l6.7-1.2l6.4-3.2h4.4l4.1,2.9l4.7-2.9l2.3,2l-0.6,4.7l2.3,7.3l-3.2,5.8l2.6,9.3l-1.8,4.1l3.5,7.6l4.7,2l1.5,6.1l4.7,2.3
			l6.4,4.1l4.4,4.1l1.7-2l8.5-2l7,7l5.3-1.5l7.3,7.9l3.2-0.3l8.8,2.9l5.6,2l1.2,5.8l4.1,1.2l5.3,2.9l11.7-1.2l8.2,4.7l1.8,3.5
			l-1.2,9.3l1.8,7.6l-2.3,4.7l7.6,12.8l-0.6,9.3l35.6,0.6l1.8,12.8l-0.6,8.2l10.5,2.3l10.5,18.7l0.6,9.9l-9.9,19.9l0.6,2.9l-2.7,3.7
			l1.8,2.1l-1.2,4.4l5,3.8l0.3,6.1l4.1,6.1l-2,12.3l1.2,5l-1.5,4.4l1.5,4.4l7.6-0.6l3.2,1.5l9.3-0.6l5.8,2l9.3-3.8l5,3.5l3.8,1.2
			l1.5,4.7l5.1,22l3.5,7.7l3.6,1l8-4.4l4.5,1.7l3.1,2.8l2.9,0.6l-2,3.3l-0.5,19l-0.8,2.2l-0.5,0.7l0,2.5l-0.5,2.1l-0.2,2.5l3.5-2.3
			l9.3,1.3l0.3,4.1l3.8,8.6l-0.3,6.9l0.9,7.9l0.7,7.3l-1.2,2.9l-4.1-0.1l-5,2.6l-0.7,1.6l-2.9,2.5l-1.3-0.7l-8.3,5.5l-1.6,2.6
			l-3.2,0.9l-7.6,6.3l-2.5,0.9l-0.3,5l-2.8,0.9l-2.5-0.4l-6.4,7.9l-1.2,3.1l0.1,4.5l-2.9,0.9l-1.6,2.5l-4.1,7.4l-2.9,3.1l-3.4,5.5
			v1.9l-3.8,2.6l-0.5,1.8l3,0.1l2.2,1.2l10.2-3.1l4.2,2.8l4.7,6.4l4.1,1.7l2.5,5.5l4.8,7.9h2.3l3.9-4.2l2,0.3l4.7,7.6l5.5,2.5l4.8,1
			l4.7,4.7l0.3,5.5l3.9-0.9l7.9,3.5l4.7,5.8l5,7.4l4.5,3.2l-0.9,5.7l-3.8,5.2l1.9,6.1l0.7,1.5l0.5,1l2.4,3.1l1.1,0.9l7.6-6.3
			l2.6-6.1l3.4-14.1l3.1-9.6l1.3-1.9l-1.8-2.2l-2.9-4.8l1.5-4.1l2.9-1.5l0.1-2.6l3.4-3.8v-2.9l2,1.6l2.8,0.4l3.4-3.9l0.4-4.1
			l1.3-1.3l0.3-4.7l1.5-1.9h2l1.5-3.9l-1-2.9l-2.2-2.3l0.3-6.1l-1.8-1.6l2,0.6l2.3,4.8l4.8,5.3h1.9l2-1.2l1.3,1.3l0.4,3.5l-1.6,0.4
			l-1.9,7l-4.7,8l-4.2,0.1l-0.6,5.1l-1.5,2.8l-1.3-0.4l-4.2,2.3l-3.1,2.6l-0.3,2.2l-3.4,0.6l-1.6,1.6l0.1,2.2l3.9,1.2l12.8-10.1
			l6.6-7.4l9.5-16.2l3.6-8.2l3.6-10.5l9.2-17.5l9-10.8l1.5-3.2l-0.9-1.2l0.4-2.8l1.9-0.6l1.5-4.5l2.6-1.6l-0.9-3.6l0.9-2.6l-0.9-1.2
			l-1.6-1.3l0.3-4.1l-3.9-5.5v-2.5l0.7-2.5l-0.7-2.6l-1.3-5.8l-2-6.1l1.6-1.5l5.1-1l-1.3-3.4l-2.5-1.5l4.8-1.2l0.1-3.9l-5-2.2
			l4.1-1.2l2.6-3.8l2,1.6l6.4-6l3.8-2.5l-0.1-2l5.4-4.7l6.3-4.1l8.3-9.5l7.3-0.9l3.9-3.8l4.4-3.5h4.1l2.6,2.2l3.1,0.7l0.1-2.9
			l3.1-5.4l8.6-5.4l3.4-1V865l-2-1.3l-2.8-0.6l-1.3-2.5l3.1-0.7l5.2-3.2l3.1,0.9l3.4-0.3l2.5-2l3.4,0.2l-0.2,1.6l-4.9,2.8l-5.1,1
			l-1,1.2l1.7,1.3l7.8-2.9l9.4-3.7l-0.8-1.5l2.5-2.1l2.3,0.4l-0.8,2.3c0,0,0.2,3.4,0.6,3.5c0.4,0.1,5.9,0.9,5.9,0.9l3.3-1.8h5.6
			l6.7,0.7l4.1-2.8l0.1-2l-1-1l0.6-2l9.1-6.2l7.7-2.7l3.9-2.4l1.2-2.5l-1.1-1.5l-3.4-7.7l2.5-5.3l2.9-3.5l0.1-3.9l1.9-1.6l3.4-2.3
			l0.7-4.1l-1-0.6l5.7-9.2l7.7-9l0.1-4.1l-1.6-12.8l-1.3-2.5l2.5-7.7l2-3.1l0.4-2.6l6-4.8l0.9-2.3l-1.6-7.5l3.2-9.1l-0.9-7l1.2-5.3
			l-0.3-2.9l1.8-7.6l-2-27.4l0-5.1l1.6-3.8l0-3.7l-1.8,1.9l-3.2-2.3v-2.3l2.9-4.5l-0.7-4.5l0.7-3.1l2.6-0.7l0.6-4.8l-2.8-4.5
			l-5.4-2.5l1.5-0.6l0.7-1.7l1,2.2l3.2,1.9l2.9,1l1.2-4.4l2.8,0.1l1.2,2.5l2,1l-2.2,3.1l-2.9,2.2l-0.7,2.5l2,0.1l3.9-3.6l5.4-2.8
			l6.9-10.5l3.1-7.7l1-4.7l2.6-2.3l2.6-7l2.9-6l10.6-7.3l1.3-3.5l3.2-1l2.3-3.8l9-8.2l8-10.8l2-2.9l5-10.9l1.3-4.8l2.5-3.5v-3.5
			l-2.6-3.9l1-4.1l2.3-2.2l-0.6-10l-2.3-1.5l-0.9-5l-7-15.5v-5.3l-1.2-6.4l-13.1-5.8l-7.6,0.3l-5.5,2.3l-3.8-5.3l-4.4-0.9l-4.4-5
			l-5.8-2.9l-4.1-0.6l-9.1-9.6l-7.3-10.2l-3.5-0.9l-5-4.7l-4.4,0.3l-12.3-8.8h-5.6l-6.1-2.6l-3.8,2h-5.8l-3.5-1.8l-3.8,1.8l-1.8,2.6
			l-2.3-2.3l-5.5-4.1l-0.9,1.8l-2.3-2l-0.9,2.6v2l-3.2-2.6l-0.6-2l-2.4-0.7l0.7,2l-1.2,0.8l-6-2.3l-2,0.4l-5-1l-11.1-5.3l-4.2,0.3
			l-0.2,1.2l0.9,2.3l-0.9,1.1l-2.3-1.2l-1,0.6l-0.7,1.7l-3.9,1.8l-1.4,2.1l-0.6,4.7l-2-3.5l-1.2-3.1l-2,0.9l0.3,3.8l-3.4,6.4v5.4
			l-1.2-5.1l1.3-5.1l-0.7-4.5l2-6.6l1.8-1.6l-1.5-1.3l-3.2-0.1l4.2-4.8l-5.5-6l-3.2-5.1l-3.1,0.3l-4.5-0.7l-2.6,3.4l-2.6,1.3
			l-1.3-3.1l-1.9-1.2l-0.9-2.9l-2.3-1.9l-3.2,0.3l-1.6-2l-2.8-1l-1.6,2v-1.8l-2.2-1.3l-1.5-2.9l-2.5,1l-4.5-1.3l-6-3.5l-1.8-0.3
			l-1,1.8l-3.6-2.5l-2.6,0.3l-0.6,2.5l-1.7,0.1l-1-2.8l-4.7-0.1l-3.9,2.2l-2.2,3.9l0.3,2.3l-4.4,4.4l-5.7,3.4l-7.3,4.2l-3.5,4.4
			l-2.2,5.7l-0.9,5.5l-1.9,2.9l-3.3,3.5l0.2,2.4l0.7,4.2l-0.7,7.6l-1.3-4.6l-2.8-4.5l0.1-3.4l2.8-3.5l3.3-2.7l-0.5-5.6l1.7-4.7
			l-0.4-2.5l-2.4-0.1l-4.7,1.7l-5.2-1.5l-4.5,0.3l-3.7,1l-2.6-2.2l2.9,0.4l3.4-2.6l3.6-0.8l6.1,1.1l3.4-0.8l3.2-4l1.5-0.1l1.9,1.5
			l2-0.7l3.5-2l5.9-2v-4.7l5.3-6.1v-4.4l2-2.9l0.3-3.5l-5.6-1.2l-4.4-3.5h-4.1l-5.8,3.5l-5,0.3l-7-2.9l-7.6-0.6l-5.5,5.8l0.3,2.3
			l1.8,1.3l1.2,2l-2.6,0.3l-1.6,0.9l-1.5,3.5l-1-3.1l-1.9-0.7l-4.4,1.8l-4.7,6.6l-6.3,7.1l4.7-6.6l-0.1-4.2l1-2.3l0.4-2.9h-2
			l-4.1,3.4l-2,4.7l-2,5.2l-3.4,2.2l3.2-6.1l0.6-4.8l7.1-8.9l1.7-6l2.6-3.6l3.9-2.2l4.2-3.1l3.1-1.3l3.8-5.7l9.5-9.6l0.6-2.3
			l1.9-1.5l-2-2.6l0.7-2.8l1.3-1.2l0.1-3.9l-3.8-2.8l-4.2,0.3l-1.3,1.5l-1.9-3.2l-2.6-7.6l-4.5-11.2l-4.1-5.8l-2.9-7.7l0.1-4.2
			L1750.5,303.6z"/>
	</g>
	<g id="FRENCH_x0D_GUYANA">
		<polygon fill-rule="evenodd" clip-rule="evenodd" stroke="#FFFFFF" stroke-miterlimit="10" points="1685.9,331.4 1686.6,333.3 
			1687.9,336.6 1689,337.5 1689,339.5 1691.7,342.6 1695.2,343.2 1697.4,340.8 1700.3,339.7 1702.5,339.9 1703,341.6 1704.5,342.3 
			1704.6,347.6 1707,348.4 1710.6,345.8 1711.4,342.5 1713.5,341 1717.1,340.4 1719.5,335.5 1722.8,330.1 1726.7,321.7 
			1726.8,318.1 1732,311.3 1737,305.1 1738.5,302.8 1738.8,302.5 1742.2,297.9 1741.9,292.8 1738.3,288.8 1736.5,290.6 
			1734.1,288.5 1733.6,285.3 1726.5,277.8 1724.6,277.1 1719.9,272.6 1708.5,269.7 1703.4,266.6 1697.5,266 1693.8,268.6 
			1690.2,270.7 1690.2,270.7 1690,270.8 1688.4,272.6 1685.2,276.9 1685.6,282.4 1687.2,286.5 1686.7,291 1686.7,294.4 
			1690.3,296.6 1691.9,299.8 1694.2,303.4 1695,307.6 1695.7,309.4 1695.1,312.9 1691.9,316.1 1692.3,321.2 1693.8,323.8 
			1691.9,328.3 1687,331.6 		"/>
	</g>
	<g id="SURINAME">
		<polygon fill-rule="evenodd" clip-rule="evenodd" stroke="#FFFFFF" stroke-miterlimit="10" points="1646.6,343.6 1646.9,343.7 
			1648.6,343.8 1649.9,344.7 1655,346.2 1658.4,346 1659.1,344.5 1657.2,340.1 1656.3,337.7 1652.6,334.1 1653.2,330.4 
			1657.2,327.8 1661.7,329 1670.1,328.6 1674,326.8 1679.2,327.1 1683.2,330.8 1687,331.6 1691.9,328.3 1693.8,323.8 1692.3,321.2 
			1691.9,316.1 1695.1,312.9 1695.7,309.4 1695,307.6 1694.2,303.4 1691.9,299.8 1690.3,296.6 1686.7,294.4 1686.7,291 
			1687.2,286.5 1685.6,282.4 1685.2,276.9 1688.4,272.6 1690,270.8 1690.2,270.7 1694.1,265.9 1693.8,263.1 1689.6,261.2 
			1682.6,260 1674.6,257 1671.9,257.3 1668.3,258.9 1662,258.3 1654.2,259.9 1647.6,258 1638.7,258.1 1633.6,260 1632.7,264.6 
			1632.8,265.1 1631.7,269.2 1631.9,272 1629,275.3 1625.4,277.2 1620.4,277.4 1617.8,282.4 1617.6,286.7 1614.2,295.2 
			1614.6,297.7 1618.2,299.6 1620.6,302.4 1621.2,304.5 1623.6,307.6 1623.8,310.2 1626.1,312.3 1628.7,312.4 1630.3,313.7 
			1631.1,316.7 1632.7,322.7 1632.5,326.8 1634.7,328.4 1637.9,332.3 1638.5,335.8 1642.6,337.4 1642.6,339 1643.7,341.6 		"/>
	</g>
	<g id="GUYANA">
		<polygon fill-rule="evenodd" clip-rule="evenodd" stroke="#FFFFFF" stroke-miterlimit="10" points="1559.4,274.5 1561.4,274.7 
			1563,276.5 1565.2,275 1569.7,275.5 1573.1,279.7 1573.1,285.1 1570.6,289 1568.8,291.5 1572.3,293.3 1576.6,293 1577.9,295.9 
			1579.8,298.8 1583.6,298.5 1583.7,300.7 1580.1,305.2 1578.7,310.8 1574.8,317.6 1575.1,322 1573.6,324.9 1573.1,328.5 
			1574.1,330.6 1573.2,333.4 1573.6,337.4 1577.3,341.2 1581.7,345.6 1581.8,348.5 1584.7,352.2 1592.7,359 1595.9,360.3 
			1598.4,357.1 1601.2,356.4 1601.8,357.7 1606.4,357.3 1609.2,353.9 1609.8,352 1614,350.7 1622.3,351 1624.7,344.6 1628.9,342.8 
			1634.9,342.5 1636.5,344.3 1640.1,343.7 1646.7,343.7 1643.7,341.6 1642.6,339 1642.6,337.4 1638.5,335.8 1637.9,332.3 
			1634.7,328.4 1632.5,326.8 1632.7,322.7 1631.1,316.7 1630.3,313.7 1628.7,312.4 1626.1,312.3 1623.8,310.2 1623.6,307.6 
			1621.2,304.5 1620.6,302.4 1618.2,299.6 1614.6,297.7 1614.2,295.2 1617.6,286.7 1617.8,282.4 1620.4,277.4 1625.4,277.2 
			1629,275.3 1631.9,272 1631.7,269.2 1632.8,265.1 1632.7,264.6 1632.7,264.7 1631.6,260.6 1631.6,255.7 1630.3,252.6 
			1622.7,250.6 1616.1,243.7 1612.4,240.8 1609.9,242 1605.8,243.4 1603.1,246.6 1602.2,250.4 1601.4,245.6 1602.3,239.3 
			1603.6,235.6 1601.6,229 1598.5,226.6 1590.6,221.7 1585.2,215.7 1584.7,212.5 1580.9,208.8 1577.1,208 1576,207.2 1575.4,209.1 
			1569.4,216.3 1565.2,219.5 1562.1,219.2 1556.6,225.8 1558.2,228.5 1559.6,232.9 1565,233.2 1568.4,235.8 1568.4,240.6 
			1561.8,243.5 1558.3,242.2 1555.6,243.7 1552.4,242.2 1549.6,245.4 1548.7,251.6 1544.6,255.4 1546.5,260.5 1551.8,267.7 
			1559.4,274 		"/>
	</g>
	<g id="VENEZUELA">
		<path fill-rule="evenodd" clip-rule="evenodd" stroke="#FFFFFF" stroke-miterlimit="10" d="M1430,358.7l7.8,5.3l8,6.2l4.7,0.7
			l8.3-0.4l4.7-5.7l7-4.6l3.4-3.9l10.4-5.4l1.9-5.3l3.4-3.6l9.5-1.9l4.7-2.2l-0.3-4.1l-6.4-1.3l-6.4,0.7l-9.3-3.1l1.3-6.7l-2.2-4.1
			l5.7-8.7l-1.5-3.8l-4.4-4.1l-4.2-1.6l-2.6-5l5.8,1.8l6.3,1l6.3,3.5l7-0.4l9-1.2l2.2,1.5l6.4-2.2l6.6-5.8l5.7-0.6l3.4,1.6l9-3.8
			l6.6-0.6l10.5-7.4l1.9-4.8l-0.4-4.7l-7.6-6.3l-5.2-7.3l-1.9-5.1l4.1-3.8l0.9-6.1l2.8-3.2l3.2,1.5l2.8-1.5l3.5,1.3l6.6-2.9v-4.8
			l-3.4-2.6l-5.4-0.3l-1.5-4.4l-1.6-2.8l5.5-6.6l3.1,0.3l4.2-3.2l6-7.1l0.6-1.9l-1.1-0.7l-7.7-3.5l-2.8-0.1l-2.7,1.1l-4.1-0.9
			l-2.3,0.1l-3.3,1.5l-6.5,1l-4.7-0.5l-2.4-0.3l4.2-0.7l2.3,0.3l2.9-1.9l1.8-3.2l4.2-3.2l0.9-2l-2.8-1.9l0.3-1.3l-1.2-3.2l-5.5-2.9
			l-6.7-1.7l-2-2l-2.5-1.6l-3.9-0.1l-1.3-1.9l-4.1-1.8l-2.2,0.1l0.1,3.4l-2.6-3.5l-1.6-3.9l-4.1-2l-1.2-2.2l2.2-1.8l9,0.3l3.4-2.2
			l5.7-0.6l0.6-3.4l-5.2,1l-9-1.9l-6.6,0.9l-4.4-0.3l-8.9,3.2l-3.1-1.3l-3.6,0.4l-7.4,5.2l-3.8,0.9l-4.5,2.3l-1.7,2.2l-6,0.7
			l-1.9,1.2l-3.1-1l-8.9-6l-1.8-3.6l-2.6-0.4l-9.9,0.7l-19.1,3.2h-9.3l-3.6-1.9l-1.5-2.9V159l2.3-0.1l-0.4-4.1l-4.1-5.5l-3.8-1
			l-9.6,0.7l-4.4-2.5l-3.2-0.1l-2.6,0.9l-3.4-5.4v-5.4l-1.5-6.7l-1.9-0.7l-5.7,2.3l-5.5,6.6l1.3,4.4l1.9,1.7l3.8-2l3.6,0.3l3.2,3.5
			l-0.6,2.5l-3.5,1l-4.1-1.9l-1.9-1.3l-0.9,1.2l-0.1,1.6l-4.7,2.5l-8.9,1.6l-8.9,3.8l-2.8,3.5v3.4l2.3,4.2v8.2l0.9,5.6l1.8,4.7
			l-2.9,6.1l-7,4.1l-3.5-0.6v-5.8l-4.1-4.7l-1.2-4.1l3.8-3.2l0.3-2.3l7.6-7.6v-6.4l-2.4-4.2l0.3-1.9l-0.1-2.5l-3.2-2.3l-1.6-3.4
			l1-2.8l4.7-2l4.8-1.2l4.2-4.9l-2.2-0.1l-0.9,0.7l-10.4,4l-6.1,9.4l-1.9,2.3l-3.5,0.9l-3.2,4.7l-3.2,2.8l-6.4,9.2l-1.2,4.1l1.3,3.5
			l-0.6,6.7l-3.1,6.6l-0.4,2l2.6-0.3l3.5,0.1l8,14.6l3.6,5.4l1,3.8l-2,4.4l0.3,2.8l-1.4,2.3l0.2,2.9l4.6,3.8l5.7,2.5l3.6,0.4l4.2,2
			l3.3-1.7l5.2,0.1l4.9,1.5l1.5-1.2l5.8-1l6.4,1.2l3.7,1.5l15.3,15.1l5.6-1.2l1.5,1.2l1.6-0.6l4.1,1.2l2.6,1.5l3.8-2.1l4-0.1
			l5.6,0.5l1-1.1l3.5-0.1l3.3,1.7l1.2,7.8l-1.6,3.2v3.6l-1.3,2.5l-4.8,1.5l-2.3,2.8l1.2,7.2l0.4,2.6l-1.5,5.1l0.1,6.4l2.2,3.2
			l0.1,2.3l4.4,10.8l-6.5,11.9l0.6,2.9l2.2,0.7l2-1.5l0.9,0.9l0.9,3.2l2,1.2l2.1,4l-1.1,2.3l2.3,5.1l4,10.2l0.4,3.9L1430,358.7
			L1430,358.7z M1403.1,127.9l3.9-0.3l3.8,3.8l-0.9,3.4l-2.3-3.1l-2.8-0.4L1403.1,127.9L1403.1,127.9z M1389.7,126.1l3.8,4.4
			l3.5,0.4l-2,2.2l-4.5-1l-1.9-3.9L1389.7,126.1L1389.7,126.1z M1370.5,121.7l2.6,3.6l3.9-0.1l-3.5-3.2L1370.5,121.7L1370.5,121.7z
			 M1484.5,156.2l4.2-3.1l2,2.6l6-4.5l1.8,2.7l-3.2,3.9l-4.1-1.1l-4.5,0.9C1486.6,157.7,1484.5,156.1,1484.5,156.2z"/>
	</g>
	<g id="COLOMBIA">
		<polygon fill-rule="evenodd" clip-rule="evenodd" stroke="#FFFFFF" stroke-miterlimit="10" points="1369.4,471.3 1372.7,460.1 
			1384.1,417.9 1384.3,414.8 1384.6,408 1379.6,399.2 1372,393.4 1368.5,388.9 1367.9,377.8 1381.5,373.2 1386.3,376.4 1387.3,373 
			1385,370.5 1387.2,368 1384.3,362.7 1376.5,360.6 1374.6,355.8 1376,349.2 1398.8,349.1 1401.3,346.3 1405.3,346.3 1407.4,348.4 
			1410.1,347.9 1414,343.6 1419.5,342.1 1420.7,345.2 1424,349.3 1424.8,353.8 1424.7,359.3 1430.2,358.7 1429.9,354.8 
			1425.8,344.5 1423.5,339.4 1424.6,337.2 1422.5,333.1 1420.5,332 1419.6,328.7 1418.8,327.8 1416.8,329.3 1414.6,328.5 
			1414,325.6 1420.6,313.7 1416.2,302.9 1416,300.5 1413.9,297.3 1413.7,290.9 1415.3,285.9 1414.8,283.2 1413.6,276 1415.9,273.2 
			1420.7,271.8 1422,269.3 1422,265.7 1423.7,262.5 1422.4,254.6 1419.1,253 1415.6,253.1 1414.6,254.2 1409,253.7 1405,253.8 
			1401.2,255.9 1398.6,254.4 1394.5,253.2 1392.9,253.8 1391.4,252.5 1385.9,253.7 1370.6,238.6 1367,237.1 1360.6,235.8 
			1354.7,236.9 1353.2,238.1 1348.4,236.6 1343.2,236.5 1339.9,238.2 1335.6,236.1 1332.1,235.7 1326.4,233.2 1321.8,229.4 
			1321.5,226.5 1322.9,224.1 1322.6,221.4 1324.7,217 1323.7,213.2 1320.1,207.7 1312.1,193.1 1308.6,193 1306,193.2 1306.4,191.2 
			1309.5,184.6 1310.1,177.9 1308.7,174.4 1309.9,170.4 1316.3,161.2 1319.5,158.4 1322.7,153.7 1326.2,152.9 1328.1,150.5 
			1334.2,141.2 1344.6,137.1 1345.5,136.4 1347.8,136.5 1348.3,135.8 1350.6,134.1 1351.5,131.7 1349.2,128.7 1341.9,124.7 
			1339,124.6 1338,126.3 1337.7,128.2 1334.6,128.7 1333,130 1329.7,129.6 1326.7,130.7 1325.1,132.6 1326.9,134.7 1325.6,136.6 
			1320.3,139.2 1313.3,143.4 1308.7,146.8 1303.3,147.9 1297.3,148.4 1290.7,147.6 1286.6,149.8 1286.9,152.3 1288.3,155.5 
			1287.8,158.7 1284.8,161.5 1282.7,160.6 1283.4,157.4 1283,156.4 1285.9,155.4 1281.7,154.9 1276.6,152.7 1274,152.9 1267.3,157 
			1265.7,159.7 1261.1,165 1255.7,175.2 1255,178.1 1256.6,177.4 1258.1,179 1258.7,182.3 1257.5,186 1254.6,187.4 1250.8,187.7 
			1247.9,189.3 1242.6,194.4 1240.4,195.6 1236.5,201.4 1234.2,201.7 1230.8,201.9 1232,205.7 1235.5,209.6 1235.5,214.5 
			1233.4,218.9 1231.2,218.8 1227.6,215.7 1228,214.3 1229.4,211.9 1226.3,210.6 1225,206.8 1220.5,202.9 1219.7,206.4 
			1220.3,209.1 1222.1,214.1 1219.2,219.3 1217.8,224.2 1215.3,226.2 1213.4,226.3 1210.7,232.4 1211.6,233.2 1212.5,237.9 
			1212.8,242.5 1216.8,247.4 1218.4,247.2 1220.4,246.2 1221.4,248 1222,252.5 1219.5,255.3 1219.4,257 1221.8,259.7 1221.8,265.3 
			1219.2,267.3 1217.6,270.2 1219.2,270.9 1220.8,274.6 1220.3,281.4 1220.6,290.8 1217.9,294.1 1217.4,297 1219.8,300.3 
			1223.3,298.8 1222.8,301.1 1224.9,304 1227,303.8 1227.2,305.7 1225.1,308.3 1223.4,312.8 1215.8,320.4 1213.8,324.6 
			1208.1,330.2 1200.5,331.8 1194.7,336.2 1189.1,344.7 1188.2,351.4 1187.3,355.1 1193.2,357.3 1199.9,361.9 1208.9,367.8 
			1212.5,367.9 1217.2,372.9 1216.5,375.9 1217.3,378.5 1223.5,379 1230.6,382.4 1233,384.1 1239.5,385.6 1242,383.3 1241.8,379.1 
			1244.7,376.8 1246.2,376.9 1252.2,379 1255.4,380.8 1256.3,383.4 1259,384.9 1259.5,385.2 1260.9,385.1 1263.3,387.4 
			1270.5,389.2 1275.1,390.2 1276.2,392.4 1281,398.1 1281.5,401.9 1284.8,408.1 1287.5,408.1 1297.1,411.4 1301.2,417.3 
			1301,422.1 1302.5,422.6 1305.8,424.2 1307.6,429.3 1306.3,431.3 1307.4,434.2 1311.2,435.8 1315.4,434.8 1318.9,435.7 
			1323.9,435.6 1325.9,433.8 1332.4,430.9 1337.9,431.9 1342.7,434.2 1349.7,431.2 1353.4,431.2 1355,433.5 1357.3,433.4 
			1361.8,435.6 1363.8,438.3 1367.8,437 1368.1,439.8 1355,461.9 1355.7,464.4 1360.2,464 1365.3,463.5 1368.4,466.9 		"/>
	</g>
	<g id="ECUADOR_1_">
		<path id="ECUADOR" fill-rule="evenodd" clip-rule="evenodd" stroke="#FFFFFF" stroke-miterlimit="10" d="M1259.5,385.2l-0.5-0.3
			l-2.7-1.5l-0.9-2.6l-3.2-1.8l-6.1-2.2l-1.4,0l-3,2.3l0.2,4.2l-2.5,2.3l-6.5-1.5l-2.4-1.7l-7.1-3.4l-6.2-0.5l-0.8-2.6l0.7-3l-4.7-5
			l-3.6-0.1l-9.1-5.9l-6.6-4.5l-5.9-2.2l-1.2,4.8l-5.8,0.3l-9.6,6.7l-5,0.3l-5.3,2.6l2.6,4.7l0.3,2.9l1.8,2.9l-1.2,5.6l-7.6,8.2
			l-0.6,3.5l1.8,2.3l-3.8,5.5l-4.4,0.6l-3.5,5l1.5,3.2l1.5,4.2l-0.4,3.2l0.7,6l-2.2,3.8l-2,1.9l2.3,3.1l4.4,1.7l4.1,4.2l3.4,2.2
			l1.6-1.2l1.8-4.8l1.3-2.5l2.9-2.9l0.1,3.5l0.4,3.1l0.7-1.9l-0.3-3.2l1.3,0.3l1.3,5.2l-1,5.7l0.6,3.1l-2,5.1l-5.3,4.4l1.8,1
			l1.8,5.5l-4.2,2.2l-3.4,3.8l0.6,3.9l4.1,0.1l4.5-2l1.9,3.1l6.1,1.3l3.6,1.5l5.8,8.3h2.6l3.8-3.9l15.7-32.7l2.9-2.6l20.7-6.8
			l8.7-6.1l14-12.8l5.6-13.2l3.6-0.2l0.9-1.8l1-4.7l-0.4-3.8l-4.2-7.9l0.1-2.1L1259.5,385.2L1259.5,385.2L1259.5,385.2z
			 M1159.1,450.6l-0.2-1.5l2.2-3.6l3.7-3.3l0.3,1l-1.1,2.7l0.3,2.5l-1.5,3l-2.3,0.7L1159.1,450.6z"/>
	</g>
	<g id="PERU">
		<polygon fill-rule="evenodd" clip-rule="evenodd" stroke="#FFFFFF" stroke-miterlimit="10" points="1381.5,612.7 1380.9,612.4 
			1378.9,611.5 1376.7,611.8 1372.3,612.1 1368.4,613.2 1364.4,613.8 1361.9,611.5 1361.7,606.7 1360.6,594.8 1360.8,587.6 
			1362.2,586 1363.2,581.6 1361.1,579.4 1353.9,583.5 1345.4,591.4 1335.1,590.7 1326.4,590.4 1325.1,584.7 1320.7,578.3 
			1314.7,577.3 1302.2,578.3 1307.3,571.9 1297.4,555.8 1291.8,550.3 1292.8,547.2 1291.4,543.9 1293,540.1 1293.7,535.6 
			1292.4,532.8 1294.5,530.6 1294.7,526.5 1300.4,522.9 1303.3,523.5 1306.7,520.3 1304.8,516.6 1302.9,509.6 1308.4,504.1 
			1307.6,500.9 1309.6,497.8 1309,492.6 1312.7,490.2 1317.5,488 1321.7,483.8 1324,483.1 1326.7,480.5 1337,478.3 1350.9,473.7 
			1352.3,470.5 1354.1,471.3 1358,471.3 1359.6,470.8 1364.1,473.7 1363.7,475.1 1368.1,476.2 1369.8,473.3 1368.4,466.9 
			1365.3,463.5 1360.2,464 1355.7,464.4 1355,461.9 1368.1,439.8 1367.8,437 1363.8,438.3 1361.8,435.6 1357.3,433.4 1355,433.5 
			1353.4,431.2 1349.7,431.2 1342.7,434.2 1337.9,431.9 1332.4,430.9 1325.9,433.8 1323.9,435.6 1318.9,435.7 1315.4,434.8 
			1311.2,435.8 1307.4,434.2 1306.3,431.3 1307.6,429.3 1305.8,424.2 1302.5,422.6 1301,422.1 1301.2,417.3 1297.1,411.4 
			1287.5,408.1 1284.8,408.1 1281.5,401.9 1281,398.1 1276.2,392.4 1275.1,390.2 1270.5,389.2 1263.3,387.4 1260.9,385.1 
			1259.5,385.2 1260.4,388.2 1260.3,390.3 1264.4,398.2 1264.9,402 1263.8,406.7 1263,408.6 1259.4,408.8 1253.8,422 1239.8,434.8 
			1231,440.9 1210.3,447.8 1207.4,450.4 1191.7,483.1 1187.9,487 1185.3,487 1179.4,478.7 1175.8,477.2 1169.7,475.9 1167.8,472.9 
			1163.2,474.9 1159.2,474.8 1158.6,470.8 1161.9,467 1166.2,464.9 1164.4,459.3 1162.6,458.4 1162.3,458.6 1152.4,463 
			1148.7,466.3 1141.7,473.2 1140.3,478.3 1138.7,482.2 1139.1,484.1 1142.3,486.7 1142.8,489.6 1140.3,491.4 1140.3,493.6 
			1144.2,497.1 1147.3,502.8 1146.8,506.7 1143.8,506.8 1140.6,508.3 1139.4,511.4 1142.8,514.6 1146.8,516.2 1152.8,521.3 
			1158.4,522 1166.7,527.5 1170.8,528.6 1171.8,531.9 1176.3,538.3 1176.9,543.9 1179.2,547.9 1187.4,552.2 1191,558.2 1192.2,564 
			1194.5,567.9 1195.2,574.5 1198,579 1201.2,580.9 1204.9,587.5 1205.6,592.3 1204.4,593.9 1207.6,600.9 1214.1,608.9 
			1216.5,613.1 1215.5,616.5 1216.2,619.2 1218.9,620.1 1225.7,626.2 1227.5,629.9 1228.2,635.6 1230.1,638 1235.3,639.9 
			1236.4,644.7 1242.2,654.1 1243.6,658.7 1250.3,668.2 1250.5,672 1248.7,672.7 1246.8,671.4 1246.7,673.5 1247.4,676.8 
			1247.4,679.9 1249.8,679.4 1252.4,681.2 1253,683.8 1252.1,685.9 1258.8,690.5 1265.2,693.7 1265.5,696.5 1268.6,700.3 
			1272.4,700.7 1273.9,702.7 1275.3,706 1277.9,707.7 1284,707.4 1286,705 1284.8,708.5 1288.3,712.5 1294.8,715.9 1297.7,718.6 
			1298.2,721.6 1301.3,723.7 1306.2,725.4 1307.9,724.8 1311.4,725.7 1319.2,730.5 1324.5,732.5 1328.3,732.7 1330.1,733.7 
			1331.2,736.4 1336.8,740.4 1339.8,742.3 1344.2,746.4 1346.9,747.5 1348.2,750.1 1347.9,752.2 1348,755 1352.6,756 1357.2,757.9 
			1362.8,763.6 1368,768.4 1371.5,769.5 1372.2,770.2 1377.3,767.8 1381.6,764.9 1384.3,765.5 1388.2,763 1389.7,759.6 1386,756.1 
			1387.3,752.6 1389.4,749.3 1392.2,749.9 1391.7,747.4 1389.2,747 1387.5,745.1 1390.5,738.5 1395,735.4 1399.1,730 1399.6,725.2 
			1393.7,711.8 1395.8,708.6 1395.3,703.5 1394,700.9 1393.2,696.7 1395.6,693.9 1397.1,686.9 1396.5,673.9 1394.6,668.2 
			1397.1,661.8 1396.9,647.8 1400.3,642.3 1400.2,639.4 		"/>
	</g>
	<g id="BOLIVIA">
		<polygon fill-rule="evenodd" clip-rule="evenodd" stroke="#FFFFFF" stroke-miterlimit="10" points="1621.7,798.3 1624.4,794.6 
			1623.9,791.7 1633.8,771.8 1633.2,761.9 1622.7,743.2 1612.2,740.9 1612.8,732.7 1611,719.8 1575.4,719.2 1576,709.9 1568.4,697 
			1570.7,692.4 1569,684.8 1570.1,675.4 1568.4,671.9 1560.2,667.3 1548.5,668.4 1543.3,665.5 1539.2,664.3 1538,658.5 
			1532.5,656.5 1523.7,653.5 1520.5,653.8 1513.2,645.9 1507.9,647.4 1500.9,640.4 1492.5,642.4 1490.7,644.5 1486.3,640.4 
			1479.9,636.3 1475.2,634 1473.8,627.8 1469.1,625.8 1465.6,618.2 1467.3,614.1 1464.7,604.8 1467.9,598.9 1465.6,591.6 
			1466.2,587 1463.8,584.9 1459.2,587.8 1455.1,584.9 1450.7,584.9 1444.3,588.1 1437.6,589.3 1427.9,595.4 1424.4,604.5 
			1418.6,606.2 1413.6,606.2 1409.2,609.7 1406,609.7 1400.2,612.9 1394.3,612.7 1381.5,612.7 1400.2,639.4 1400.3,642.3 
			1396.9,647.8 1397.1,661.8 1394.6,668.2 1396.5,673.9 1397.1,686.9 1395.6,693.9 1393.2,696.7 1394,700.9 1395.3,703.5 
			1395.8,708.6 1393.7,711.8 1399.6,725.2 1399.1,730 1395,735.4 1390.5,738.5 1387.5,745.1 1389.2,747 1391.7,747.4 1392.2,749.9 
			1393.2,750.2 1393.6,755.3 1397.7,758.9 1399.9,761 1400.4,764.7 1399.6,768.7 1400.3,770.9 1401.3,777.7 1404.5,782.2 
			1413.7,789.7 1414.5,792.8 1412.2,798.7 1413.6,802.8 1408.6,813.6 1411.6,817.6 1421.5,827 1436.4,867 1441.9,867 1443.4,864.4 
			1446.6,863.8 1446.6,863.8 1449.2,860.6 1452.7,853.3 1460.6,845.1 1465.9,843.3 1470.8,847.7 1476.7,847.1 1480.2,846.3 
			1484.6,847.4 1491.9,846 1495.7,846.6 1496.5,851.8 1499.5,860.3 1500.9,862.6 1502.7,860.3 1502.4,856.5 1504.7,852.7 
			1504.7,848.9 1507.9,844.2 1519.6,844.2 1529.8,844.5 1533.7,848.1 1535.3,841.3 1540.7,830.2 1541.1,824.8 1540.4,819.3 
			1538.4,816.1 1544.8,806.6 1547.4,799 1547.4,795.7 1552.1,792.6 1579.8,784.9 1602.8,785.2 1616.3,795.2 1619.5,795.7 		"/>
	</g>
	<g id="PARAGUAY">
		<polygon fill-rule="evenodd" clip-rule="evenodd" stroke="#FFFFFF" stroke-miterlimit="10" points="1533.7,848.1 1535.3,841.3 
			1540.7,830.2 1541.1,824.8 1540.4,819.3 1538.4,816.1 1544.8,806.6 1547.4,799 1547.4,795.7 1552.1,792.6 1579.8,784.9 
			1602.8,785.2 1616.3,795.2 1619.5,795.7 1623.6,800.4 1622.4,804.8 1627.4,808.6 1627.7,814.7 1631.7,820.9 1629.7,833.1 
			1630.9,838.1 1629.4,842.5 1630.9,846.8 1638.5,846.3 1641.7,847.7 1651,847.1 1656.9,849.2 1666.2,845.4 1671.2,848.9 
			1675,850.1 1676.4,854.7 1681.5,876.7 1685,884.4 1688.7,885.5 1696.7,881.1 1701.2,882.8 1704.3,885.6 1707.2,886.2 
			1705.2,889.5 1704.7,908.5 1703.9,910.7 1703.3,911.4 1703.4,914 1702.8,916.1 1702.6,918.5 1701.5,919.3 1701.1,925 1701.8,927 
			1701.4,934.4 1697.7,937.5 1694.9,942.5 1693.6,946.8 1684.4,953.3 1682.8,958.5 1679.2,963 1674.8,961.7 1672.9,962.7 
			1668.8,968 1666.8,965.8 1664.2,965.8 1659.5,967.8 1651.1,962.7 1639,959.1 1624.7,961.3 1621.2,961.4 1622.3,956.9 
			1628.6,950.5 1631.5,942.6 1630.4,938.4 1632.4,935 1635.9,932.4 1639,927.6 1640.3,923.2 1637.9,918.3 1632,913.3 1627.1,907.9 
			1615,906.3 1606,901.8 1597.1,894.1 1593.5,893.3 1585.6,889.2 1573.3,886.3 1570.1,881 1565.2,876.6 1560.2,876.1 1547.6,863.5 
			1542.7,854.4 1538.9,853.6 1534.2,848.6 		"/>
	</g>
	<g id="URUGUAY">
		<polygon fill-rule="evenodd" clip-rule="evenodd" stroke="#FFFFFF" stroke-miterlimit="10" points="1650.4,1023.7 1653.4,1023.8 
			1655.6,1025 1665.8,1021.9 1670,1024.7 1674.7,1031.1 1678.8,1032.9 1681.2,1038.4 1686,1046.3 1688.4,1046.3 1692.3,1042 
			1694.4,1042.3 1699,1049.9 1704.6,1052.4 1709.4,1053.4 1714,1058.1 1714.3,1063.6 1718.3,1062.7 1726.1,1066.2 1730.8,1072.1 
			1735.8,1079.5 1740.3,1082.7 1739.4,1088.4 1735.6,1093.7 1737.5,1099.8 1738.2,1101.3 1738.8,1102.3 1741.2,1105.4 
			1742.3,1106.4 1740.6,1107.8 1737.4,1111.5 1737.4,1117.2 1733.5,1120.9 1731.5,1124 1732.3,1124.7 1730.9,1126.8 1726,1132.4 
			1718.5,1135.2 1716.8,1133.7 1715.8,1134.5 1715.3,1136.9 1713.3,1138.3 1710.3,1138.1 1707.3,1136.9 1705.2,1137.3 
			1702.7,1135.8 1698.7,1134.4 1693,1135.4 1688.6,1138.1 1684.5,1138 1684.6,1135.8 1685.1,1134.3 1684.1,1133.3 1681,1133.1 
			1677.9,1132.6 1673.1,1129.2 1667.8,1128.8 1658.9,1129.7 1655.9,1129 1650.3,1123.4 1648.3,1122.9 1642.3,1114.6 1639.6,1107.5 
			1639.4,1098.5 1639.4,1098.1 1640.2,1096.8 1643.2,1094 1644.5,1091 1642.7,1084.5 1641.7,1075.4 1643.2,1073.2 1641.1,1067 
			1643.6,1062.6 1643.2,1059.1 1644.6,1055.9 1645.4,1046.9 1644.2,1043.5 1645.8,1040.4 1644.5,1034 1648.1,1029.4 1650,1024.8 		
			"/>
	</g>
	<g id="ARGENTINA">
		<path fill-rule="evenodd" clip-rule="evenodd" stroke="#FFFFFF" stroke-miterlimit="10" d="M1446.6,863.8l2.6-3.3l3.5-7.3l7.9-8.2
			l5.3-1.8l5,4.4l5.8-0.6l3.5-0.9l4.4,1.2l7.3-1.5l3.8,0.6l0.9,5.3l2.9,8.5l1.5,2.3l1.8-2.3l-0.3-3.8l2.3-3.8v-3.8l3.2-4.7h11.7
			l10.2,0.3l4.4,4.1l4.7,5l3.8,0.9l5,9l12.6,12.6l5,0.6l5,4.4l3.2,5.3l12.3,2.9l7.9,4.1l3.6,0.8l8.9,7.7l9,4.5l12.1,1.6l4.8,5.4l6,5
			l2.3,5l-1.3,4.4l-3.1,4.8l-3.5,2.6l-2,3.4l1.2,4.2l-2.9,7.9l-6.3,6.4l-1.2,4.5l3.5-0.1l14.3-2.2l12.1,3.6l8.5,5.1l4.7-2h2.6l2,2.2
			l4.1-5.2l1.9-1l4.4,1.3l3.6-4.5l1.6-5.3l9.2-6.4l1.3-4.4l2.8-5l3.6-3.1l0.4-7.4l-0.7-2l0.4-5.7l4.7-3.1l9.3,1.3l0.3,4.1l3.8,8.6
			l-0.3,6.9l0.9,7.9l0.7,7.3l-1.2,2.9l-4.1-0.1l-5,2.6l-0.7,1.6l-2.9,2.5l-1.3-0.7l-8.3,5.5l-1.6,2.6l-3.2,0.9l-7.6,6.3l-2.5,0.9
			l-0.3,5l-2.8,0.9l-2.5-0.4l-6.4,7.9l-1.2,3.1l0.1,4.5l-2.9,0.9l-1.6,2.5l-4.1,7.4l-2.9,3.1l-3.4,5.5v1.9l-3.8,2.6l-0.9,2.9
			l-1.9,4.5l-3.6,4.7l1.3,6.4l-1.6,3.1l1.2,3.4l-0.7,9l-1.5,3.2l0.4,3.5l-2.5,4.4l2,6.3l-1.5,2.2l1,9l1.8,6.6l-1.3,3l-3,2.8
			l-0.8,1.3l0,0.4v0l-1,8.3l1.5,7.3l-0.8,2.3l2.6,2.6l0.1,3.5l-1.3,1.3l2,3.6l8.5,6.6l8.5,3.2l10.5,8.2l2.3,2.9l-0.3,4.1l-5,9.9
			l-0.3,2.9l3.1,5.8l5.2,3.5l4.4,0.1l2.6-2.8l1,0.1l0.9,3.4v8.6l-0.9,3.9l-3.9,6.4l-1.5,6.4l-1.5,2l-0.6-2.2l-1.5,1.3l-2,6.3
			l1.2,4.7l-1.6,3.9l-11.1,6.9l-8.6,2.9l-1.6-2.2l-0.6,2.6l-12.4,5.1l-14.1,3.6l-8.5,0.4l-6.7-1l-6.3,1.2h-3.9l-4.5-2.9l-5.7-1.9
			h-2.8l-1.8-2.3l-1.3,1.3v3.4l1,2.3v7.1l1.9,2.8l-0.4,2.2l3.4,0.3l0.7,3.5l-0.6,2.6l-1.5,0.4l0.1,1.3l-3.6,3.6l0.9,1.9l-1.5,2.8
			v3.6l2.5,4.2l3.5,1l-1.2,3.4l-1.2,2.2l1,2.9l-0.9,3.8l-4.7,3.4l0.6,1.3l-6.9,4.7l-11.4,0.1l-6.1-1.5l-7.1-6l-7.7-2.5l-4.5,0.4
			l-1.2-0.7l1.3-2.3l-3.1,0.1l-4.1,4.1l-0.1,7.1l4.4,3.9l1.6,7.3l-0.1,9.6l1.3,3.6l4.7,2.6l6.1-0.4l2.2,1.2l-2.3,1.3l-1.9,1.9
			l3.1,1.2l6.9-2l0.3-2.2l-3.4-0.9l-1.2-0.9l1.9-1.6l3.1-0.1l3.9-2.6l3.1,0.3l2.8,4.7l-0.9,3.6l-1.6,0.7l2.6,3.2l1.9,4.2l-1.2,3.9
			l-7.9,4.5l-2.9-1l-1.6-3.9l0.7-1.7v-2.3l-5-2.6l-5.4,2l-3.6,2.8l-0.7,2.2l1.7,2.9l4.1,0.1l6,1.8l0.1,2l-4.4,4.1l-6.3,2.3l-2.3,2.6
			l1.5,1.6l-1.6,3.9l-3.2,3.4l1.3,5.1l1.5,2.2v2.8l-0.7,2.5l4.8,5.2l-0.1,1.9l-1.9,2.8l1,1.2l-5.5,3.6l-0.7,3.1l-0.6,1.8l3.9,1.5
			l1.9,1.9l-0.3,1.7l-6.4,1.2l-3.6-0.6l-5.8,0.9l-3.8,4.1l-4.5,0.6l-3.4,3.9l-2.6,0.6l-1.5,4.8l-1.6,3.5l-4.5,3.2l-0.3,2.5l2.5,3.4
			v4.4l4.4,7.3l4.1,3.4l2.8,0.9l5.4,4.7l8,7.4l6.7-0.6l3.6,0.1l1.8-0.9l3.2,1l1.3,2.2l-1.5,1.6v2.2l2.3,4.8v3.2l-3.5,3.4h2.3
			l3.6,3.4l-2.5,1.8l-0.4,2.6l0.7,1.5l-3.2,3.6l-3.2,1.6l-0.7,3.2l-2,0.7l-2.9,3.9l-1.5,4.7l-3.9,0.3l-4.7,4.5l-0.9,4.5l-1.5,4.4
			l-3.5,3.4l-0.9,2.6l1.9-1.5l3.1,0.7l1.3,6.1l-1.2,3.2l-3.6,4.2l-0.6,3.2l-4.2,3.5l-3.1-1l-2.6-2.9l-2.6-1.5l1.9,2.5v3.6l1.5,1.6
			l-1.8,3.2l-5,4.1l-2.3,6.7l0.7,6l3.9,6.1l3.4,9.3v2.9l1.2,0.6l-0.7,2.6l-3.1,1.7l2.2,2.2l2.3-0.7l3.5,3.4l0.7,3.9l6.9,4.2l4.1,3.2
			l0.4,3.8l-1.7-0.1l-4.7-2.2l-5.6-5l-4.4-0.7l-1.4-1.7l-26.2,0l-14.6,2.5l-3.4-1.9l-9.8-0.7l-3.2-8.5l-2-7.1l-4.4-3.9l-1.3-11.7
			v-5.4l-4.2,0.1l-6.4,3.2l-3.5,4l-4.2-0.1l-8.9-17.8l-1.2-6.5l2.6-18.1l4.2-6.1l7-7.3l2-10.4l-2-10.6l-2.6-7.9l1.6-9.2l4.1-4.7
			l-4-9.6l0.7-4.7l3.7-3.7l-2.3-8.6l-1.5-11.2l-2.6-5.3l0.4-3.9l5.2-4.5l-0.1-4.6l-4.2-7.5l-6.7-4.7h-4.2l-1.3,1.2l-2.5-2.4l1.5-3.4
			l9.1,0.1l4.5-5.2l-0.3-4.9l-2.7-1.1l-3.1,2.1l-3.8-0.7l-1.9-9.3l-3.8-8.2l-0.3-5.8l0.4-6.9l-6.4-2.2l-1.9-6l-0.9-15.5l4.4-2.9
			l1.3-5.2l-2.2-4.1l-3.8-1.9l-1.8-9.5l-0.7-13.3l1.3-15.2l-3.8-6.3l-0.9-7l7.4-9.9l1.2-11.1l5.4-2.6l2.9-3.5l-12.1-23.8l1.5-7.9
			v-5.8l-0.1-14l4.2-8.5l4.8-5l-1-7.3l-4.1-6.9l-2.8-2.3l4.7-6.9l-1.2-8l3.4-8.2l3.9-1.3l1-9.6l-1.8-15.6l-2.9-2.8l-2.5-11.8
			l-3.2-6.1l-4.7-7.4l-0.7-3.8l-3.6-5l-2-9.9l1-7.7l5.7-2.6l0.1-10.1l3.2-4.1l0.3-8.9l-3.6-6.7l-0.6-12.7l2.8-2.8l1.5-15l3.8-5.1
			l5.4-13.6l5.2-5.4l3.9-2l3.1-3.6l-1.9-2l-0.3-5.7l-1.5-2.9l-2.5-2l0.9-3.9l3.6-2.8v-5.1l-4.4-5.5l-1.2-6.9l2.5-4.4l-1-3.6
			l-4.2-3.5l1.6-5.3l24.2-12.8l5.2-22.9L1446.6,863.8L1446.6,863.8z M1612.8,1672.2l3.2,2.9l4.5-2.9l4.1-1l3.7-3.4l-4.7-0.2
			l-2.8,2.9l-5.5,0.3L1612.8,1672.2L1612.8,1672.2z M1522.2,1607.8l0.8-0.3l3.1,4.5l6.6,6.6l2,9.9l-2.2-2.2l-3.1,1.3l-1.4,3.2
			L1522.2,1607.8L1522.2,1607.8z M1528.2,1631.8l4.4,1.7l5-0.9l2.2,3.9l2.3,6.7l5.2,0.7l5.1,4.2l0.3,4.7l4.4,1.5l15.7,5.1l1.9,2.2
			l5.8,1.8l5,4.5l4.2,0.4l7.4-1.7l3.5,1.3l0.7,3.5l-5.1,2.9l-1.9-1.6l-4.4,1.3l-0.9,3.5l-3.6,3.6l-4.5,1.2l-4.7-1.6l-4.5-2.5
			l-8.3-0.9l-5.8,0.4l-8.5-0.7l-6.9,2.3h-2.2l-1.9-7.7l9.7-0.4l5.4-1.9l3.3-0.7l0.7-1.3l-5.4,1h-5.5l-7.2,1.4l-1.4-0.3
			L1528.2,1631.8z"/>
	</g>
	<g id="CHILE">
		<path fill-rule="evenodd" clip-rule="evenodd" stroke="#FFFFFF" stroke-miterlimit="10" d="M1540.2,1679.4l-1.9-7.7l-2.3,0.1
			l-3.8-2.5l-7-2.6l-10.2-3.1l-4.7-1.6l-0.3,1.6l1.3,1.7l-1.6,1.3l-1.7-0.7l-6.9-2.9l-3.7-2l-0.9,1l1.5,1.9l8.8,4.2l0.5,1.5h-2.6
			l-0.8,0.4l-0.1,1.7l-1.5,0.3l-1.2-2.3l-4.2-2.6l-1.3,1.1l0.4,2.6l-2.4,0.4l-6.7,0.5l-1.5,0.9l1.5,1.5l-0.6,1.1l-3.3-0.7l-3.9,1
			l0.7,2.3l4.5,0.8l3.6-0.1l1.1-1.9l1.1-0.8l2.4,1.1l3.9,2.6l2-0.9l1.2,1.5v2.3l2.5,1.5l-2.9,1.5l-1.8,3.6l2.3,2.6l2.6-0.1l2.4,0.9
			l3.4,3.4h2.4l0.5-1.4l-2.4-1.8l-3.9-2.3l-0.5-2.1l1-0.2l2.9,1.3l2.3-1.7l0.6-1.8l-2.7-0.6l-2.2-1.5l8.6-3.4l3.5-1.8l16,4.1l2-1.3
			l-0.4-2.2H1540.2L1540.2,1679.4z M1537.7,1669.5l-4.6-1.1l-9.6-6.4l-6.9-2.5l-3.4,0.4l-4.4-2.7l-3.7-3.7l-0.6-1.8v-1.7l6.3-3.1
			l0.7-2l3.9-1.2l2.8-4.7l-1.2-3.4l-4.4-0.1l-5.8,3.2l-2.9,3.4l-2.9,0.1l-3.9-5l-0.3-4.7l-1.2-2.5l3.4-3.4l0.6-2.9l-3.1,0.4
			l-2.5-1.9l2.5-3.5l2.5,0.7l4.1,2.3l1-1.8l3.5-3.4l0.6-2.6l-0.9-3.2l1.6-3.1l2.9,0.7l3.1,2.9l1.7-1.5l5.5-2.3l5.8,23l-0.3,0.7
			l0.6,0.2L1537.7,1669.5L1537.7,1669.5z M1521.8,1601.1l-5.6-5l-4.4-0.7l-1.4-1.7l-26.2,0l-14.6,2.5l-3.4-1.9l-9.8-0.7l-3.2-8.5
			l-2-7.1l-4.4-3.9l-1.3-11.7v-5.4l-4.2,0.1l-6.4,3.2l-3.5,4l-4.2-0.1l-8.9-17.8l-1.2-6.5l2.6-18.1l4.2-6.1l7-7.3l2-10.4l-2-10.6
			l-2.6-7.9l1.6-9.2l4.1-4.7l-4-9.6l0.7-4.7l3.7-3.7l-2.3-8.6l-1.5-11.2l-2.6-5.3l0.4-3.9l5.2-4.5l-0.1-4.6l-4.2-7.5l-6.7-4.7h-4.2
			l-1.3,1.2l-2.5-2.4l1.5-3.4l9.1,0.1l4.5-5.2l-0.3-4.9l-2.7-1.1l-3.1,2.1l-3.8-0.7l-1.9-9.3l-3.8-8.2l-0.3-5.8l0.4-6.9l-6.4-2.2
			l-1.9-6l-0.9-15.5l4.4-2.9l1.3-5.2l-2.2-4.1l-3.8-1.9l-1.8-9.5l-0.7-13.3l1.3-15.2l-3.8-6.3l-0.9-7l7.4-9.9l1.2-11.1l5.4-2.6
			l2.9-3.5l-12.1-23.8l1.5-7.9v-5.8l-0.1-14l4.2-8.5l4.8-5l-1-7.3l-4.1-6.9l-2.8-2.3l4.7-6.9l-1.2-8l3.4-8.2l3.9-1.3l1-9.6
			l-1.8-15.6l-2.9-2.8l-2.5-11.8l-3.2-6.1l-4.7-7.4l-0.7-3.8l-3.6-5l-2-9.9l1-7.7l5.7-2.6l0.1-10.1l3.2-4.1l0.3-8.9l-3.6-6.7
			l-0.6-12.7l2.8-2.8l1.5-15l3.8-5.1l5.4-13.6l5.2-5.4l3.9-2l3.1-3.6l-1.9-2l-0.3-5.7l-1.5-2.9l-2.5-2l0.9-3.9l3.6-2.8v-5.1
			l-4.4-5.5l-1.2-6.9l2.5-4.4l-1-3.6l-4.2-3.5l1.6-5.3l24.2-12.8l5.2-22.9l-2.7-5.5l-3.2,0.6l-1.5,2.6h-5.5l-14.9-40l-9.9-9.3
			l-2.9-4.1l5-10.8l-1.5-4.1l2.3-5.8l-0.8-3.1l-9.2-7.4l-3.2-4.5l-1-6.9l-0.7-2.2l0.9-3.9l-0.6-3.8l-2.2-2l-4.1-3.6l-0.4-5.1
			l-3.8-0.9l-2,3.4l-1.3,3.5l3.6,3.5l-1.5,3.4l-3.9,2.5l-2.6-0.6l-4.4,2.9l-5.1,2.4l1.7,1.6l0.4,5.7l-0.5,4.2l0.9,5.7l3.2,15.1v5.7
			l-1.2,4.1l-2.2,2.3l1.6,7.7l2.5,7.6l2.6,6.4v10.5l-1.2,2.9l-0.9,1.9l0.7,14.3v3.5l-2.9,1.8l-2.8,1.9l0.4,8l1.3,2l2.6-1.9l1.6,1.5
			l-2.5,2.3l0.1,21.1l2.9,8l0.6,6.3l-0.7,5.3l-3.4,5.4v5.3l3.8,6.9l-0.9,4.2l-0.4,10.2l-2.2,3.8v5.5l1,2.9v2.5l-3.4,5.1l-0.3,5.3
			l-2,3.4l1.2,6.4l-0.7,2.8l-3.4,7.6v3.2l3.6,5.7l0.7,5.8l2.3,3.6l-2.9,2l-1.7,4.5l2.8,3.5l-2.9,3.5l-2.8,1.2l-0.1,5.2l0.9,4.5
			l0.4,4.2l4.7,12.1v6.7l-1.9,2.2l0.4,3.6l4.2,6.1l0.3,7.1l-1.3,5l0.1,2l1,3.5l-0.6,3.1l-1,3.5l1.2,2l4.5,6.3l0.6,3.5l-2.2,3.5
			l-3.1,1.9l-2.8,5.7v1.7l1.6,1.9l-1.5,4.8l-2.3,2.6v3.4l-0.6,6.1l-1.7,3.4l0.3,3.6l-1,1.7l-0.4,5l-2.3,2.5l0.3,2.2l1.5,2.3
			l-2.5,3.6l-0.1,5.5l-0.4,3.4l-2.8,1.9v3.8l-1.3,2.5l-0.3,2.9l1.3,3.4l0.1,4.1l-2.3,3.4l-2.3,0.3l-2.5-1.9l-2.9,0.7l-0.4,2.5
			l0.7,4.4l0.1,6.1l2.8,4.1l4.4,3.6l0.6,4.2l-0.7,5.4l6.3,10.6l1,2.9l2.5,2.3v6.9l-1.7,8.9l-1.6,1.3l0.7,2.8l-0.7,2.6l-1.5-0.9
			l-2.2,0.3l-1.3,3.6l1,3.8l2.6,2.2l-2.2,8.3l0.7,3.6l-1.9,2.3l2.2,1.9l-0.9,2.8l-0.9,1.3l1.3,2l6.3,9.8l1.9,1.9l1.5,3.1l5.8,2.5
			l5.7-1.5l0.3-5.7l0.9-1.2l3.6,0.1l3.1,3.6l1.3-0.9l2.6-0.4l-2,3.1l-4.4,3.9v2.6l3.4,1.5l2.3-1.5l0.4,3.1l0.4,7l1.9,2.3l-1,1
			l-1.9-2l-1.5-3.4l-2.3-1l-1.2,2l0.3,2l3.8,2.8l0.7,2l-2.6,0.9l-1.8,1.5l0.3,5l3.4,3.2l-3.1,3.5l-0.3,2.8l1.5,1.2l-3.5,3.8l0.6,2
			l4.4,2.8l-1.2,3.4l-0.7,5l-2.5,3.1l-0.1,2.5l2,2l3.9,0.1l2.5,2.5l0.4,3.1l3.5,0.6l1.6,2.5l-0.4,6.4l-2.9,4.4l-5.2,3.2h-2.3
			l-0.4,3.9l1.6,4.4l-1.5,1.9l0.1,2.5l1.6,1l-2.9,3.5l-2.2,6.3l-0.1,4.5l2.2,1l-1,2.3l-0.3,7.6l-2.8,1.5l-0.7,3.9l-1.5-2.3l1.5-1.9
			l1.2-6.4l-0.6-3.4l0.7-2l-1.7-0.6l-5.3,1.7l-3.8,2.6l-2.2-0.3l0.1-1.8l3.6-1.3l2.3-1.8v-5.5l-1.5-1l-4.1,1.5l-7.1,0.3l-2.3-0.7
			l-2.8,0.7l-0.2,2.3l2,4.2l1.5,0.1l0.9,3.2l-2.5,0.4l-1.3,3.8l-2.8,2l-1.5,3.4l-5.2,2.9l-0.3,3.1l5.5,6.1l3.1,0.4l1.9-2l-0.3-2.5
			l-3.6-1l-0.4-2l1.9-3.8l5.1-0.4l1-1.3l0.9,4.7l3.8,2.5l4.5-0.1l1.9-2l2.5,1l1.5,2.3l5.2,2.6l2,2.3l-2.2,0.4l-1,2l1.8,2.3l-2.3,1.8
			l-1.8,2.8l1.6,2.3l3.6,2.3l-0.6,1.2l-3.6-1.6l-1.3-1.9l-2.2,0.3l-0.3,3.2l3.1,2.8l1.3,2.8l5.4,0.9l5.4-2.8l2.2,2.2l2-0.1l3.4-1.5
			l-1.5,2.6l0.7,1.5l-1.3,0.9l-3.6,0.1l-1,1.5l-2.8-2.2l-6.1,1.6l-1.5,2.9l0.7,2l3.9,2.5l0.7,3.4l3.5,0.9l2.9-1.6l-0.4,2.2l-3.1,2.9
			l0.1,2l0.6,1.8l-1.2,2.3l-2.2,0.1l-0.3,2.6l2.3,9.8l2.2,2.8l-0.1,4.5l2.3,3.9l3.2,1.3v-6.7l2-7.6l2.8-1.9l1,1.8l-1.9,0.1l-2.3,8.5
			l0.3,2.2l3.1,2l2.6-0.1l-1,1l-4.7,1l-3.5,3.2l0.6,2l-0.9,3.6v3.5l-2,1.5l-1.6,3.5l0.3,2.6l5.5,4.1l7.7,1.6l3.1,2.3l-0.6,1.9
			l-1.8,0.1l1.2,3.8l1.5,2l3.2-3.6l-0.1,3.1l-0.9,2.5l-3.2,1.2l-2.3,3.2l2,1.3h2.9v2.5l3.1,3.6l1.9-0.1l2.3-2.3l-0.4,3.9l1.2,3.8
			l-1.9-0.1l-1.8-1.3l-1.9,0.3l-0.9,2.3l3.7,4.4l1.3,0.4l1.3,4.2l1.8,2.3l3.5,3.2l2.8-0.4l-1.9-5.4l0.9-2.3l-1-3.1l3.4,2.3l0.6,3.2
			l2.3,3.2l1.5-3.9l2.5-2.5l-0.1-2.6l-2.6-0.9l-4.8-0.7v-1.6h3.1l6.4,1.9l1,1.5l4.1,0.1l-1-3.4l-3.9-2l-7.1-0.4l-0.3-1.7l2.2-0.9
			l6.3,2.3l6.4,3.6l1,4.8l-2.6,2.9l-0.1,3.1l2.6,5.4l-0.3,2.9l-2.9,2.2l1.5-4.7l-2.8-6.6l-2.8-2.3l-1.6,2.5l-0.3,3.2l1.8,2.5
			l-1.6,3.1l-1.3-1.6l-0.9-3.4h-2.2l-3.1,2.2h-4.5l-3.8,1.5l3.5,2.6l0.3,4.8l1.7,3.1l0.7,2.4l-1.2,2.1l0.7,1.3l2.7,0.5l1.5-3.1
			l1.8,1.2l3.1,1v1.2l-2.8,1.1l-2.8,2.5l0.8,2.1l4.8,0.4l5.6,3.1l2-0.8l1.7-2.5l-1.6-4.1l1-3.1l-1.2-3.1l-1.5,0.9l-2.9-0.4l1-1.1
			l2.3-1.6l-0.1-2.3l1.8-1l4.5,1.5l2-1.2l0.7,2.1l2,0.9l0.9-2l3.9-0.9l3.5,1.2l3.9-0.4l3.4,0.3l0.4,1.5l-2.2,1l-1.8,2.6l-2.3-0.6
			l-2.5-2l-2.6,0.7l-6.3,5.6l-1.5,0.2l-1.8-0.4l-2.4,2.6l0.6,2.4l-1.3,2.6l-1.1,1.5l0.1,1.5l1.7,1.1l-1.5,1.8v1.6l5.9,2l4.2,3.7
			l1.3,0.1l0.8-1.8l-0.9-3.1l2.3-2.8l2.6-0.7l0.4-1.6l-3.1-3.5l5.3-1.1l3.3-2.9l3.4-5.1l2.5-1.5l0.7,1l2.8,1.5l2.3-0.1l0.5,1
			l-2.8,1.2l-2,3.3l-0.7,2.4l-3.5,3.4v4.2l1.2,2.7l-2,2.3l-3.2,1.4l0.1-1.7l1.7-1.2l0.1-5l-1.3-0.8l-1.9,1.4l-0.6,2.6l-1.5-0.5
			l-2.3,0.2l-1.5,1.9l2.1,3.4l6.5,6.3l5.8,1l3.8,2.1l2.5-0.1l2.6,1.4l1.8-1.9l2.4-4.5l-2-6.1l0.6-3l-0.3-2.6l0.7-5.3l0.4-6l-1-4.1
			l0.6-2.8l5-2.9l4.7-5.5l2.8-1.2h4.1l1.6-1.6l-0.4-5.1l2.3-2.2l4.5-1.2l5.2,3.1l2.5-1.5L1521.8,1601.1L1521.8,1601.1z
			 M1562.2,1708.6l1.8,1.2l2.8-2.8h-2C1564.7,1707.1,1562.2,1708.8,1562.2,1708.6L1562.2,1708.6z M1379.1,1341.4l-3.9-2.2l-2.3,0.1
			l0.3,2.3l4.5,4.5l-1.7,1.7l4.4,4.1l-0.8,0.8l-4-1.3l-1.7,2.9l0.4,4.2l-0.1,1.8l-6.7,0.7l-4.7-2l2-4.5l-0.8-12.4l-1.7-5l-1.2-1.1
			l-1-2.5l0.9-3.1l2.3-1.8l0.3-3.1l-1.4-2l0.1-2.2l2.8-2.7l4.5,0.1l3.7,1.6l3.5,5.1l-0.2,5.4l0.9,1.5l-0.1,4l-4.5-1.3l4.8,3.4
			l1.5,1.9L1379.1,1341.4L1379.1,1341.4z M1381.7,1331.5l2.9-1.3l2,2l-1.5,2.2L1381.7,1331.5L1381.7,1331.5z M1358.1,1369.6l1.5-1.8
			h3.1l2.6,1.9l-5,1.9L1358.1,1369.6L1358.1,1369.6z M1386.1,1373.9l3.6-2.4v2.7l-2.3,2.2L1386.1,1373.9L1386.1,1373.9z
			 M1379.9,1373.3l3,0.9l0.5,4l-2.6,1.5l-0.3-2.4l-2.6-2.2L1379.9,1373.3L1379.9,1373.3z M1370.7,1372.4l0.9-1.6l5.3,1.2l-4,2.6
			L1370.7,1372.4L1370.7,1372.4z M1372.2,1379.9l0.8-1.1l1.8,1.2l-0.7,2.1L1372.2,1379.9L1372.2,1379.9z M1367,1384.9l1.4-2.8l3,0.1
			l2,2.2l-0.4,1.7l-3.1,1.2l-2.2-0.6L1367,1384.9L1367,1384.9z M1363.7,1391.7l2.1,2.1l-2.6,1.9l-1.5-1.5L1363.7,1391.7
			L1363.7,1391.7z M1383,1390.4l1.2,4.5l-2.9-0.3L1383,1390.4L1383,1390.4z M1376,1389l3.9-1.5v5.2L1376,1389L1376,1389z
			 M1367.6,1420.5l1.7-0.1l0.6,3.5l-2.2-0.1L1367.6,1420.5L1367.6,1420.5z M1367.8,1394.2l0.3-3.2l-0.9-2.5l4.1,0.1l2,3.9l-3.1,0.6
			L1367.8,1394.2L1367.8,1394.2z M1359.5,1400.9l-5.1-2.2l0.4-2.6h3.8l2.2,2.3L1359.5,1400.9L1359.5,1400.9z M1374,1414.3l3.4-0.3
			l-0.1,3.8L1374,1414.3L1374,1414.3z M1379.2,1419.1l4.1-0.1l-2.2,2.6L1379.2,1419.1L1379.2,1419.1z M1386.5,1383.7l1.6-1l3.5,2.8
			l-4.1,0.3L1386.5,1383.7L1386.5,1383.7z M1393.1,1386.9l3.8,0.7l0.9,2.9l3.2,3.5l-2.2,3.2l-1.2,2.8l-2.6,0.6l-1.9-1l-2-0.4
			l-2.9,3.1l-0.3-4.5l-0.7-3.2l1.9-6L1393.1,1386.9L1393.1,1386.9z M1370.5,1399l1-3.2l8.5,0.1l-1.9,2l-5.1,1l-0.7,1.6
			C1372.2,1400.6,1370.5,1399.2,1370.5,1399L1370.5,1399z M1375.1,1406.7l-1.9-1.7l4.5-1.5l2.9-0.3l-0.3,3.4L1375.1,1406.7
			L1375.1,1406.7z M1376.7,1409.5l3.5-2h4.4l0.4,6.4l-2.2,3.1l-2.6-1.3l-1.3-4.4L1376.7,1409.5L1376.7,1409.5z M1371.1,1420.3
			l1.6-2.3l1.2,1.8l3.5,0.7l1.6,3.2l-4.1,0.9L1371.1,1420.3L1371.1,1420.3z M1381.7,1498.7l2.5-2.2l-1.9-1.6l-0.9,1.5l-4.8-7.3
			l-3.8-3.2l1.6-2.3l3.5-0.4l3.2-1.9l0.4,6.4l3.8,1.6l0.3,4.4l3.2,2.9l2,6.7l-4.2-0.4l-3.9,0.4L1381.7,1498.7L1381.7,1498.7z
			 M1366.8,1491l0.1-2.4l1.2-1.4l3.4,1l5.3,8.2l3.5,5.2l-0.2,4.4l-1.3,2.2l-3.2-2l-1.6-5.9l0.4-1.6l-2.6-2l-4.1-0.8L1366.8,1491
			L1366.8,1491z M1367.5,1497.8l1.5,0.4l2.8,1.2l1.3,3.9l-0.7,2.9l-2.3,0.4l-0.3-1.8l-2.2-1.7L1367.5,1497.8L1367.5,1497.8z
			 M1375,1521.8l-1.5-1l0.2-3.1l-2.1-6.9l2.2-2l0.8,1.2l4.7,2.1l1.5,3.3l-2.3,0.9L1375,1521.8L1375,1521.8z M1380.4,1537.1l-2.6,1.8
			l-2.1-2.2l0.7-2.3l-1.9-2.3l4.4-2.4l2.4,3.9L1380.4,1537.1L1380.4,1537.1z M1390.6,1535.2l-1,4.1l-1.9,1.3l-3.5-3.2l-1.3-4.8
			l-4.1-8l4.1-0.7l2.9-2.5l0.3-2.8l-1.6,2.3l-1.7,0.1l-0.6-2.2l1.2-3.5l-2.3-2.5l-0.1-4.5l2.2-1.9h5.7l2.6,1.9l2,8.9l2.3,4.4
			l0.6,7.4l-0.9,1.5l2.2,5.5l-0.1,6.1l-2.8,2.2l-2.2-1.3l-0.7-4.4L1390.6,1535.2L1390.6,1535.2z M1387.5,1555.8l-1.1-3.1l-2.4-1.8
			l1.5-2l0.1-2.3l0.9-0.9l1.9,0.9l4.5,0.7l-1.7,3.4l0.1,3.4l-2.3,1.8L1387.5,1555.8L1387.5,1555.8z M1385,1561.7v-3.4h4.7l-2.6,1.9
			L1385,1561.7L1385,1561.7z M1392.9,1559.5l1.2,2.2v3.5l-1,1.5l-1.2-4.2L1392.9,1559.5L1392.9,1559.5z M1395.9,1557.5l0.2-1.5
			l1.7-0.1l2.7,2.2l2.6,0.1l3.4,5.6l1.4,4.3l-5-4.5l-3.6-1.4L1395.9,1557.5L1395.9,1557.5z M1395.8,1564.4l2-0.5l4.3,2.3l4.1,6
			l-1.6,2.6l-3.4-0.1l-4.3-5.2L1395.8,1564.4L1395.8,1564.4z M1399.7,1584.3l-5.6,1.1l-1.8-1.3l1.8-1.8l2-4.1l-2-3.4l2.6-0.7
			l2.8,2.6l2.6-0.2l5.7,3.8l-0.1,2.2l-3.1,0.1l-0.4,1.2L1399.7,1584.3L1399.7,1584.3z M1404.6,1601.2l-2.4-0.5l-1.9-1.3l-1.1-3
			l1.1-2l1.6-1.5l-1-0.9l-0.8-1.6l3.2-0.4l1.5,2.6l-0.1,3.8l-2,1.5L1404.6,1601.2L1404.6,1601.2z M1405.4,1594.6l0.8-2l1.2-0.8
			l1.7,1.8l2,2l0.1,3.6l-2.3,1.6l-1.7-0.4l-0.4-1.7l-0.7-1.1L1405.4,1594.6L1405.4,1594.6z M1412.2,1596.5l4.1,2.1l0.9,2.3l-1.1,0.1
			l-3.1-2.2L1412.2,1596.5L1412.2,1596.5z M1410.6,1609.9l-1.9,1l-0.6-1.4l1.5-1.5l-0.1-4l2-0.7l1,2L1410.6,1609.9L1410.6,1609.9z
			 M1422.1,1599.6l-4.8-2.3l-2.3-2.6l-0.1-6.1l1.7-0.1l2.2,4.8l3.4,3.7l1.1,2.3L1422.1,1599.6L1422.1,1599.6z M1421.5,1605.6
			l-3.1-3.1l1.2-0.9l2.7,0.7l0.8,3.1L1421.5,1605.6L1421.5,1605.6z M1423.5,1613.4l-4.5-4.8l-1.5-2.5l1.1-1.4l6.5,5l-0.1,3
			L1423.5,1613.4L1423.5,1613.4z M1427.9,1622.7l-1.8-0.9l-2-1.8l-0.7-2.1l-3.9,0.2l-1.5-1.2l3.1-1.2l2.8,0.6l4.8-0.7l1.2,3.9
			L1427.9,1622.7L1427.9,1622.7z M1440,1643l-5.4-2l-1.6,0.9h-3.1l-2-2.9l-5.6-2.4l-4.2-0.6l-2.6-4.9l-1-3.9l1.1-1.9l2.3,1.5l4.2,5
			l2.8,1.7l3.4,0.2l3.4,1.3l3.2,1.8h4.7l1.8,1.9l3.9,2.9l1.7,0.2l1.1,1.5l-0.7,1.2h-3.9L1440,1643L1440,1643z M1427,1644.7
			c-0.1,0.1,2.6,2.6,2.6,2.6l-4.3-1.2L1427,1644.7L1427,1644.7z M1454.9,1663l1.7,1.2l1.5-1.4l-2.1-2l-2.1,1.5L1454.9,1663
			L1454.9,1663z M1465.2,1664.7l-2.8,1.2l-2.5-2.6l-0.4-2.7l-2.1-1.3l-4.5,0.9l-3-0.5l-4-4.8l-3.7-0.9l-1.5-3.6l-3.8-2l-0.3-2.1
			l1.2-1.6l3.1-0.3l2,2l2,0.9l3.6-1.5l4.3-0.2l5.6,4l2.5,1.1l0.9,2.3l4.2-1.3l2.8,1.2l1.4,3l-3-0.2l-2,0.9l1.6,1.2l0.2,2l-3.1,2.9
			L1465.2,1664.7L1465.2,1664.7z M1470,1663.6l-2.3,2.7l0.1,2.6l2.6-0.9l1.9-3l0.8-1.2l-1.9-0.8L1470,1663.6L1470,1663.6z
			 M1492.6,1660.1l-1.5,3.1l1,2.3l-2.4,1.8l-3.3-0.9l-1.3-2l-1.7,1.6l-2.3-2.2l-3.6-0.5l-1.8,1.8l-1.8-3.2l-2.3-1.3l-0.1-2l5.5-0.5
			l1.4-1.2l7.1,1.9l1.8,2.6l1.8-1.8l2-0.4L1492.6,1660.1L1492.6,1660.1z M1503.9,1658.8l-4.4-3.3l2.6-2.6l-1.8-2.3l0.4-1.5l-2.5-3.9
			l-0.8-4.2l-2.4-1.5l-0.6,4l-1.4,3.8l1.8,3.4l-1.4,2.4v3l3.6,2l3.9,1l1.4,1.3L1503.9,1658.8L1503.9,1658.8z M1488.9,1688.9l3.3-1.5
			l1.7,1.4l-2.3,2.6L1488.9,1688.9L1488.9,1688.9z M1490.2,1685.1l-1.3-1.3l1-2.4l2.8,1.4l-0.2,2.3L1490.2,1685.1L1490.2,1685.1z
			 M1569.2,1706.4l-1.9-2.1l2.3-2.9l-1.1-2.2l2.6,0.9l0.6,3.1l-0.1,3.4L1569.2,1706.4L1569.2,1706.4z M1519.2,1686.2l2.9-1.5h3.2
			l2-0.4l4.7,0.7l9.8-2.2l5.2-2.3l6.3,0.6l5-0.4l5.8-0.1l3.8,1l0.7,3.5l2,2l-2,2l-3.1,2l-1.9-2.5l-2.2-1l-3.8,2.6l-4.7,0.3l-1.8-2.5
			l-1.7-3.8l-3.1-0.1l-3.1,3.2h-2.3l-4.8,0.7l3.8,2.9l1-0.4l4.8,1l1.8,1.5l-1.3,1.5l3.4,1.3l4.2,3.6v3.6l-1.6-0.3l-4.5-4.1l-2.9-0.7
			l-3.1,1.6l-2.9-2l-1.3-3.6l-4.2,0.4l-0.4,1.9l3.1,1.8l-0.4,3.1l-1.8,0.1l-4.7-2.2l-2.6,1.2l-1-2l-2.8-1l1.3-3.1l-2.9,2.5l-3.2-2.3
			l0.1-1.8l3.2-1.6l5.8-2.2l-3.2-1.6l-2.5,1.2L1519.2,1686.2z"/>
	</g>
</g>
<g id="TITLES">
	
		<text transform="matrix(1 0 0 1 1577.4202 587.5725)" fill="#FFFFFF" stroke="#FFFFFF" stroke-miterlimit="10" font-family="'OpenSans-Semibold'" font-size="76.2119px">B R A Z I L</text>
	
		<text transform="matrix(1 0 0 1 1444.0764 1122.5569)" fill="#FFFFFF" stroke="#FFFFFF" stroke-miterlimit="10" font-family="'OpenSans-Semibold'" font-size="29.583px">ARGENTINA</text>
	
		<text transform="matrix(1 0 0 1 1189.217 529.5725)" fill="#FFFFFF" stroke="#FFFFFF" stroke-miterlimit="10" font-family="'OpenSans-Semibold'" font-size="36.1069px">PERU</text>
	
		<text transform="matrix(1 0 0 1 1425.0686 754.9319)" stroke="#FFFFFF" stroke-miterlimit="10" font-family="'OpenSans-Semibold'" font-size="36.1069px">BOLIVIA</text>
	
		<text transform="matrix(1 0 0 1 1575.8889 876.0803)" stroke="#FFFFFF" stroke-miterlimit="10" font-family="'OpenSans-Semibold'" font-size="16.9277px">PARAGUAY</text>
	
		<text transform="matrix(1 0 0 1 1651.303 1103.2834)" stroke="#FFFFFF" stroke-miterlimit="10" font-family="'OpenSans-Semibold'" font-size="15.8956px">URUGUAY</text>
	
		<text transform="matrix(1 0 0 1 1161.0999 418.471)" stroke="#FFFFFF" stroke-miterlimit="10" font-family="'OpenSans-Semibold'" font-size="17.0686px">ECUADOR</text>
	
		<text transform="matrix(1 0 0 1 1245.4749 323.3225)" stroke="#FFFFFF" stroke-miterlimit="10" font-family="'OpenSans-Semibold'" font-size="27.4475px">COLOMBIA</text>
	
		<text transform="matrix(1 0 0 1 1371.0999 222.1194)" fill="#FFFFFF" stroke="#FFFFFF" stroke-miterlimit="10" font-family="'OpenSans-Semibold'" font-size="25.4387px">VENEZUELA</text>
	
		<text transform="matrix(1 0 0 1 1620.9592 297.2757)" stroke="#FFFFFF" stroke-miterlimit="10" font-family="'OpenSans-Semibold'" font-size="11.9295px">SURINAME</text>
	<text transform="matrix(1 0 0 1 1699.8909 295.0725)"><tspan x="0" y="0" stroke="#FFFFFF" stroke-miterlimit="10" font-family="'OpenSans-Semibold'" font-size="8.8134px">FRENCH</tspan><tspan x="-1.4" y="9" stroke="#FFFFFF" stroke-miterlimit="10" font-family="'OpenSans-Semibold'" font-size="8.8134px">GUYANA</tspan></text>
	
		<text transform="matrix(0 -1 1 0 1602.3577 332.5882)" stroke="#FFFFFF" stroke-miterlimit="10" font-family="'OpenSans-Semibold'" font-size="17.9367px">GUYANA</text>
	
		<text transform="matrix(0 -1 1 0 1396.2405 1245.2131)" fill="#FFFFFF" stroke="#FFFFFF" stroke-miterlimit="10" font-family="'OpenSans-Semibold'" font-size="29.8019px">CHILE</text>
</g>
</svg>
