<?xml version="1.0" encoding="utf-8"?>
<!-- Generator: Adobe Illustrator 27.2.0, SVG Export Plug-In . SVG Version: 6.00 Build 0)  -->
<svg version="1.1" id="Layer_1" xmlns="http://www.w3.org/2000/svg" xmlns:xlink="http://www.w3.org/1999/xlink" x="0px" y="0px"
	 viewBox="0 0 3200 1800" enable-background="new 0 0 3200 1800" xml:space="preserve">
<g>
	<g>
		<path fill="#ADADAD" d="M1076.6,1708.7l5,1.3l1.5,1.1l-1,0.6l-2.1,0.5l-2,1.1l-1,0.2l-1-0.2l-0.5,1.1l-10-0.9l-0.5-0.5l-0.3-0.7
			l-0.6-1l-1.7-1.6l-0.7-1l-0.6-1.4l1.3,0.2l1.2,0.7l2,1.8l1,0l5.6-1.4l0.9-1l0.5-0.3l0.8,0.1L1076.6,1708.7z M1084.4,1678.2
			l-1.3,1.2l-0.9-0.3l-0.9-0.5l-1.3,0.7l0.8,0.9l0.5,1.1l0.7,2.8l-0.5-0.2l-1-0.3l-0.5-0.3l0.3,1.7l0.2,0.7l-0.6,0.5l-1.5,1.9
			l1.1-0.4l1.2,0l1.2,0.4l1,0.8l-1.8,0.8l-3.9-0.5l-2,0.4v0.8l1.4,0l2.6,1.5l1.5,0.1l-0.7,2l-0.8,1.9l1.1,0.1l1.9-0.3l1,0.2l-0.3,1
			l-0.1,1l0.1,1l0.3,1l-0.6-0.1l-1.3,0.1l-0.6-0.1v0.8l1,0.1l1.3,0.6l1.2,0.9l0.6,0.8l-0.2,2l-0.8,2l-1.2,1.1l-1.1-0.6l-1.8-1.5
			l-2.3-0.8l-2.1-1.2l-1.2-2.5l-0.8,1.2l-0.9,0.8l-1.9,1.2l0.5-1.5l0.7-1.8l0.4-1.8l-0.4-1.7l-0.8-1.2l-1-1l-1-0.2l-1,1.2l0.7,0.6
			l0.8,1.1l0.4,1l-0.6,0.4l-1-0.3l-1.7-1.2l-1.1,0l0.8,1.1l0.8,0.7l0.6,0.8l0.4,1.4l0,1.8l-0.4,1.2l-0.8,0.7l-1.1,0.2l-1.3-0.1
			l-1-0.4l-0.8-0.8l-0.9-1.4l-0.6,0.1l-0.9,1.1l-1.7,2.4l-0.8-6.6l2.8-4.7l9.8-7l1.4-2.1l0.9-2.7l0.3-3.5l0.5-2.6l0.9-2.8l0.2-2.5
			l-1.6-1.9l1.3-0.4l1-0.5l1-0.2l1.3,0.7l1,0.1l3.5-0.8l1-0.4l-0.1,0.8l-0.2,1.6l-0.2,0.7l1.2,0.1l3.3-0.8l-0.3,0.7l0.3,1.4l0.5,1.3
			l0.5,0.6h-3l-0.7,0.3l-0.2,0.7l-0.1,0.9L1084.4,1678.2z"/>
	</g>
	<g>
		<path fill="#ADADAD" d="M2006.4,1567.3l0.4,1.9l-0.4,1.9l-0.6,1.9l-0.3,1.9l-0.1,1.9l-0.3,0.8l-0.6,0.1l-3-0.1l-2.3-0.6l-1.7-1.6
			l-0.1-3.1l0.8-1.3l3.1-3.8l1.2-1.1l1-0.3l1.1,0.1l1,0.5L2006.4,1567.3z"/>
	</g>
	<g>
		<path fill="#ADADAD" d="M2139.4,989.7l0.5,0.5l1.8,1.3l-2.6,1.8l-0.7,1.3l-0.3,2.2l-2.7,1.9l-1.5,0.6l0.1-1.4l-0.3-0.3l-0.5-0.8
			l-0.3-0.3l0.3-0.3l-0.3-0.3l0.4-0.8l1-2.7l0.1-0.8l-0.8-1.3l-0.8-0.6l-0.3-0.5l0.9-1.1l1.1-0.6l1.5-0.3l1.4,0l1,0.3l0.4,0.5
			l0.1,0.6l0,0.7L2139.4,989.7z M2122.1,954.1l-0.2,0.8l-0.5,0.3l-0.5-0.2l-0.2-0.9l0-2.4l-0.2-1.1l-0.4-1l1.1-0.9l1.5-1.9l1.2-2.2
			l0.3-1.9l-1.3-2l-2.2-0.8l-4,0l-4.1-0.8l-1.6,0.6l0.2,2.4l1.4,1.3l6.7,1.5l-5.4,4.6l-0.4,1.3l2.5,3.5l0.6,1.3l0,1.3l-0.1,1.3
			l0.3,1.3l1.7,1.3l2.8-2.5l0.5,2.2l0.1,1.6l0.4,1l1.3,1.6l1,0.8l2,0.5l0.8,0.5l1,2.4l-2.1,0.8l-3.1,0.2l-2,0.4l-0.7,0.6l-2,0.8
			l-1.8,1.7l-3.3,1.5l-0.5,2.1l-0.5,0.1h-4.6l-1.4-0.3l-0.6-0.9l-0.2-2.2l-0.5-1.9l-1.7-3.9l-0.6-0.5l-0.8-0.4l-0.3-0.5l0.6-0.7
			l1.6-0.9l4.3-3.5l0.8-0.9l0.4-1.1l1.7-1.2l1.4-1.6l-0.5-2.4l-3.2-6.2l-1.6-1.8l-1.7-1.4l-0.9-0.5l-1.1-0.2l-1.1,0.3l-0.8,0.5
			l-0.7,0.3l-0.8-0.4l-0.5,0.8l0.4,1.4l-0.6,0.2l-1.1-0.1l-1.1,0.5l-2.2-1l-5.2,1.6l-2.1-2l1.1-1.9l1.4-0.7l1.5-0.4l1.5-1.2l0-0.7
			l-0.4-0.8l-0.1-0.8l1-0.5l0.2,0.4l1.8,1.4l0.8,0.3l6.6-0.7l1.5-1l0.8-1.9l0.3-1.7l0.6-1.2l1.6-0.4l0.6,0.2l1.6,0.9l0.8,0.3
			l3.1-0.1l1,0.1l4.9,2.5l1.8,0.3l16.3-1.4v0.6l-1.2,0l-0.9,0.7l-0.5,1.2l0,1.6l-3-1.8l-3,1.6l-2.6,3.2l-3.6,6.2l-0.6,1.7
			L2122.1,954.1z"/>
	</g>
	<g>
		<path fill="#DBDBDB" d="M1113.2,1385.5l-0.4,0.7l-0.6,2.3l0.4,1l0.4,1.1l0.2,1.2l0,1.3l-0.7-0.4l-0.4-0.6l-0.7-1.6l-0.6-0.3
			l-2.7,0.7v-0.8l3.7-4L1113.2,1385.5z"/>
	</g>
	<g>
		<path fill="#ADADAD" d="M1170.4,1302.8l0.9-1.5l1.7-1.2l1.7-0.2l0.7,1.4l-1,0.9l-1.8,1.3l-1.7,0.6L1170.4,1302.8z M1191.7,1254.7
			l-0.8,0.8l-1.1,0.4l-1-0.4l-0.5-1.4l0.3-1.4l0.9-0.7l1.1-0.1l1,0.3l1,0.8L1191.7,1254.7z M1256.2,1249.2l1.2,2.4l-0.9,2.2
			l-1.5,1.8l-0.7,1l0.3-1.1l-0.5-0.9l-0.8-1l-0.6-1.3l1.1-0.1l1.1-0.5l0.9-0.9L1256.2,1249.2z M1227.6,1282.9l3.3,2.3l0.9,1l0.1,0.7
			l-0.6,0.4l-0.8,0.1l-0.6,0l-0.4-0.4l-0.6-1.4l-0.6-0.4l-1.6-0.1l-0.4,0.8l0.5,2.6l-0.8,0.5l-2.5-1.1l0.8,1.7h-5.5l-4.5,0.8
			l-1.8,0.9l-4.6,4.3l-1.4,1.8l-1,0.8l-1.3,0l-1.3-0.6l-1-0.9l-1.1-0.6l-2.7,0.4l-0.9-0.1l-0.7-1.3l-0.5-1.5l-0.6-0.8l-1.5,1.4
			l-1.2,0.3l-0.6,0.4l0,0.4l-0.5,2.6l-1.2-0.8l-3.8,3l-2.1,0.8l1.3,1.4l2.3-0.4l4.4-1.7l-0.9,2.1l-0.8,1.4l-2.3,2.5l0-2.6l-0.9,0
			l-1.3,1.4l-1,1.5l-1.3,0.7l-2.5,0.6l-2.5,0.2l-1.5-0.5l-0.4-2.1l0.5-2.7l0.9-2.6l0.8-1.7l0.7-0.7l1.4-0.2l1.5-1.2l2.5-1.3
			l-1.3-0.9l0-1l0.5-1.1l0.4-1.3l-0.1-1.6l-0.2-1.2l0-1.2l0.6-1.5l0.7-1.1l0.8-0.7l1.7-1.2l1.2-0.4l0.9,0.3l0.9,0.5l1,0.1l1.3-1.5
			l-0.3-2.6l-0.6-2.9l0.3-2.3l0.9-0.6h2.2l1-0.9l1.2-2.1l0.4-1.2l0.2-1.5l-0.4-2.4l-1-2.3l-2.5-3.8l-0.4-1.2l0.3-0.9l0.6-0.8
			l0.3-0.8l0-0.7l-0.1-0.5l-0.2-0.5l-0.3-0.5l-0.3-0.8l0.1-0.6l0.3-0.5l0.2-0.6l0.4-3l1-1.5l1.6-0.5l2.2-0.1l2,0.7l1.1,0.2l0.9-0.5
			l1-1.1l0.8-0.2l3.4,1.8l1.4,1.2l1.3,1.5l6.5,9.3l1,1.1l1.2,0.9l1,1l0.4,1.5l0.9,0.3l1.7,1l0.9,1.4l-1.4,1.4l1.5,0.8v0.7l-1.8,0.7
			l-6.6-0.7l0.5-1.5l-4.1-0.2l-1.4,0.7l0.7,2.1l-0.2,1.2l-3.6,5l1.9-0.2l2.5-3.3l1.6-0.9l0.7,0.3l2,1.5l1.9,0.5l2.9,1.3l-0.3,0.8
			l-0.3,0.6l-0.4,0.4l-0.6,0.4v0.7l0.8,0l3.9-1.5l0.9-0.1l1-0.6l0.6-0.2l0.2,0.4l0.2,0.8l0.6,0.8l0.6,0.6l0.6,0.3l-0.4,1l-0.5,2.7
			l-0.2,0.7l-0.8,0.5l-0.8-0.1l-0.9-0.3l-1-0.1V1282.9z M1118.7,1131.2l1.4,1.1l1,2l0.6,2.4l0.2,2.2l-0.3,2.3l-0.8,1.7l-1.3,1
			l-1.6,0.2l-0.2-0.5l-0.5-1.1l-0.6-0.5l-0.5,1.9l-0.6,0.4l-0.7,0l-0.5-0.2l-0.4-1.1l-0.4-2.1l-0.2-2.1l0.1-1.2l-1-2l-1.3,0.2
			l-4.6,5.4l-1.2,0.9l-1.5,0.5l0.4-1.4l0.7-1.9l0.9-1.7l0.8-0.7l0.2-0.3l0.8-1.6l0.6-1.5l0.9-0.2l1.8,0.1l5.9-2l1.4-0.1
			L1118.7,1131.2z M1137.9,1084l0.7,3.8l1,3.5l2.7,7l-2.4,0.5l-1-0.3l-1.3-1.3l-1.2-0.7l-1.6-0.5l-1.4-0.8l-0.6-1.4l-0.8-1.3
			l-0.2-0.8l0.7-0.4l-0.1-0.5l0.5-1l4.4-7.1l0,0.5l0.1,0.3l0.2,0.3L1137.9,1084z M1300.3,1237l-0.9-0.3l-0.7,0.8l0.1,2.4l-0.9,0.7
			l-0.1,0.5l-0.2,0.5l-0.4,0.2h-2.2l-1.3-0.4l-0.8-1l-0.5-1l-0.5-0.5l-0.9,0.1l0,0.9l0.2,1.3l-0.3,1.3l-2,1.2l-2.5-0.7l-2.5-1.3
			l-2-0.7l-2.4,0.1l-1.3-0.2l-0.9-1.3l-1.8-6.7l-0.1-1.1l-0.4-1.2h-1l-2.2,0.8l-7.5,1.5l-2.5,0l0.6-1.1l0.9-0.4l1-0.2l1-0.5
			l-1.5-0.9l-1.8-0.4l-3.7-0.1l0.6,1.5l0.9,1l0.4,0.8l-1,1.1l0.3,0.3l0.5,0.8l0.3,0.3l-3.9,1.3l-12.6-1.3l0.9-1.8l0.4-0.5l0.6-0.5
			l1-0.3l2.6,0l0.9,0.3l0.8,1.2l2.1,0.4l1.3-0.6l-1.7-1.8l-2.1-0.9l-6.4,0.2l-2.9-1.9l-1.5-0.3l-0.6,1.9l0.5,2.2l2.2,2.9l0.9,1.9
			l-2-0.4l-2.7-3.3l-1.7-0.8l-0.3-0.5l-0.1-1l-0.4-1l-1.9-0.6l-0.5-0.6l-0.3-0.9l-0.1-1.2l2.3-0.7l0.8,0l0.8,0.3l0.1,0.3l0,0.5
			l0.4,0.8l0.5-0.7l3.8-3.2l0.7-2.8l-0.5-3.4l-1.4-2.5l-1.9,0l0.6,2.7l-0.7,2.5l-1.4,1.5l-1.5-0.2l-0.9-1.5l-1.5-4.4l-3.9-7.3
			l-1.2-1.3l-2.1-0.6l-7.2,1.3l-1.1,0.6l0,1.2l0.3,1.2l-0.2,0.6l-1.1-0.3l-1.3-0.6l-1.3-0.4l-0.9,0.4l-2.2-0.4l-1.4,0l-0.6,1
			l-0.4,1.1l-0.9,0.3l-0.9-0.1l-0.8-0.3l-1-0.6l-0.6-0.1l-0.5,0.2l-1.1,1l-0.4,0.2l-0.8-0.4l-0.7-0.7l-0.7-1l-0.8-0.4l-0.7-0.9l-1-2
			l-0.7-0.7l-1.7-1l-0.9-0.7l1-0.6l1-0.4l0.9-0.6l0.7-1.3l-3.7-5l-1.8-3l0-2.1l-1.1-1l-3-0.3l-1.5-0.5l-3.4-2.3l-1.1-0.3l-8.4-0.9
			l-0.6,0.2l-0.4,0.8l-0.1,1.7l-0.3,0.8l-0.8,1.7l-0.3,1.5l-0.1,1.4l-0.4,1.6l-0.9,1.3l-1.1,0.3l-2.5-0.2l-1.2,0.4l-2.2,1.4
			l-1.1,0.4l-1.5-0.2l-3-1.2l-1.6-0.1l-1.2,0.3l-0.6,0.3l-0.5,0.4l-0.5,0.3l-0.4-0.4l-0.3-0.6l-0.3-0.3l-0.8-0.2l-4.7-2.2l-1.3,0
			l-1.2,0.2l-1.3,0l-5-1.4l-10.1,0.3l-4.9-0.9l-4.1-3.1l-2.2-3l-0.3-1l0.4-0.7l2.1-1l0.7-0.6l2.8-3.2l2.5-3.6l2.1-4.9l1.2-2.1
			l1.5-0.9l2.1-0.5l3.3-2.8l1.8-1.1v-0.7l-1.6,0.2l-4.5,2.7l-3.2,1.2l-1.7,1l-1.1,1.3l-0.3,1.2l0.2,0.8l0.2,0.7l-0.1,1l-0.3,0.2
			l-2.3,2.5l-0.1,0.4l-0.2,0l-0.6-0.9l0.1-0.5l0.3-0.8v-0.9l-0.8-0.8l-1,3.3l-2.3,1.4l-5.3,1.2l0-1.8l0.2-1.7l0.6-0.8l1.2,0.7
			l0.2-3.4l0.8-2.3l1.4-1.6l2-1.4l4.4-1.1l1.9-0.9l1.2-2.4l-2.5,1.2l-2.5,0.9l-1-0.1l-1.4-0.4l-1.1-0.6l-0.2-0.7l4-4.9l0.7-1.1
			l0.1-0.8l-0.7-0.8l-0.8,0.2l-0.8,0.7l-0.7,0.7l-0.3,0.5l-0.3,0.7l-0.2,0.8l-0.1,0.6l-1.4,1l-0.4,0.5l-2,3.3l-0.3,1l-1.1,1.2
			l-7,2.1l-1,0.6l-1.7,1.9l-0.6,0.4l-0.5-0.6l-0.6-1.2l-0.4-1.3v-0.9l0.3-1.2l-0.1-1.4l-0.4-2.1l0-9.5l0.5-2.4l1.2-1l4.7-0.7h5.1
			l-0.5,0.7l0.5,0.8l1.8-1.6l2.2-0.6l4.6,0l1.9-0.3l3.9-1.5l2-0.3l2.2,0.4l1-0.1l0.8-0.7l0.6-0.8l0.7-0.7l1.4-1.1l3.5-1.6l1.5-1.2
			l0.9-2.2l-3.1,1.2l-1.1,0.2l-5.3-0.6l-6.8,2l-1.7-0.6l1.4-3.1l0.9-1.1l1.3-0.9l3.9-1.2l1.1-1l-7.1,1.1l-1.2-0.3l-0.6-2.5l0.1-2.3
			l0.8-1.7l1.7-0.7l2-0.5l3.7-2l2.2-0.4l3.9,1.4l2,0.1l1.6-1.5l-2.5,0.1l-1.1-0.4l-0.9-1.1l4.7-1.5l2.1-1.6l0.6-2.6l-9.7,5.2l-6,1.2
			l-4,2.3l-0.8,0.1l-1.6,0.5l-0.8,0.1l-1.3-0.1l-0.6-0.4l-0.9-1.9l0-1.6l2.7-5.9l1.3-6.3l0.7-1.6l3.3-1.7l3.6,1.5l3.5,2.3l3.2,0.7
			l-0.8-2.5l-1.1-2.6l-1.1-0.9l-0.9,2.4l-1.3-1.1l-2.9-1.5l-1.3-0.9l-1-1.2l-0.2-1.1l0.4-1.3l1-1.7l2.5-2.7l1.6-1.2l0.7,0.4l0.6,1.8
			l1.4,1.3l3,1.5l-0.7,0.5l-0.6,0.6l-0.5,0.8l-0.3,1l2.3-0.3l2-1l2-0.2l2.1,2.2l0.5,1l0.3,0.9l-0.1,1l-0.7,1.3l-1.9,1.5l-0.8,1
			l0.7,0.4l2.5-0.2l0.9-0.5l0.9-1.1l0.5-1.3l0.3-1.4l0.5-0.6l2,1.8l0.9,0.6l0.7,0.9l0.5,2.5l1.3,3.5l0.3-0.3l0.2-0.4l0.6,0.4l1,0.5
			l0.5,0.5l-0.4-3.4l-3.8-5l-7.4-7.4l1.1-1.5l1.2-0.7l7.4-2.2l1.4,0.1l0.7,0.8l1.3,2.5l1,0.9l1.4,0.5l1.5,0.1l1.3-0.6l0.8-1.4
			l-1.2-0.4l-2.6,0.1l-1-0.8l-0.7-1.1l-0.2-0.5l0.1-2l0.4-1.1l0.6-0.5l0-0.1l-2.7,0l-2.8,1.3l-1.9,0.5l-6,0.6l-1.3-0.8l-0.2-1.4
			l-0.7-2.1l-0.4-2.1l-1.3-1.1l-0.3-1.2l-0.2-4.6l0.5-1.7l1.6-1.1l2.2,0.1l1.7,1.3l2.9,4l0.8,0.7l1.2,0.5h1.1l0.6-0.8l-0.4-0.7
			l-2.6-2.2l-2.7-3.5l-1.5-1.3l-1.8-0.2l2.9-4.8l1.8-1.7l1.6,0.4l2.8,4.7l0.2,1.5l-0.1,1.4l0.1,1.2l0.8,0.9l0.4-1.4l-0.2-2.1
			l0.3-0.8l1.1-0.5l4.4,0.5l-1.1-1.3l-4.1-1.6l-1.5-1l-1.2-1.7l-0.9-1.7l-0.1-1.7l1-1.6l1.8-0.7l1.9,0.6l1.9,1l1.9,0.5l1.5,0.8
			l1.8,1.6l1.6,0.9l1-1.2l-1.4-0.4l-8.8-5.1l-0.9-0.9l0.3-1.5l1.2-1.4l3.7-3.2l1.2-0.6l1.4-0.3l1.7-0.1l-0.4-0.5l-0.7-1.2l-0.4-0.5
			l5.6-3.4l2.4-0.2l1,3.2l0.2,0.5l0.5,0.6l0.5,0.8l0.2,1l-0.2,1l-0.7,2l-0.1,1l0.6,1.4l0.9,1.1l0.5,1.3l-0.5,1.9l2.7,0.3l1.3-0.2
			l-0.2-1.1l-0.3-0.6l-0.3-0.7l-0.2-0.8l0-0.8l-0.2-0.6l-1.5-1.5l-0.2-1l0.1-1.5l0-1.6l-0.5-1.5l-0.5-1.1l-1.1-3.3l-0.2-1.3l0.9-3.5
			l2.2-2.3l2.6-0.4l2.3,2.3l0.5,1.4l-0.2,0.7l-0.6,0.7l-0.7,1.5l-0.4,1.9l0.2,1.5l0.7,1.2l1.3,1l0.1-2.3l0.6-1.5l0.8-1.4l0.6-1.8
			l-0.2-2.1l-1.9-2.1l-0.5-1.8l-0.8-1.4l-0.2-0.8l1.4-0.7l0.7-0.7l0.8-0.4l0.8,0.6l1.4,2l1.2,1.2l1.4,0.7l1.9,0.6l-1.2-0.7l-2.8-3.5
			l-1.9-1.7l-0.3-1.1l0.6-1.5l1.2-1l3.9-1.1l0.5-0.6l0.6-1.5l0.4-0.7l0.5-0.3l1.2-0.4l0.5-0.4l2.1-2.3l2.1-0.9l2.2,0.5l3.2,3
			l2.5,1.5l1,1.1l2.3,4.6l0.5-1.2l0.2-1.5l-0.2-1.6l-0.5-1.3l-0.4-0.4l-1.6-1l-1.9-2.1l-0.4-0.4l-0.4-0.1l-0.4-0.2l-0.4-0.8
			l-0.1-0.8l0.1-2.7l-0.5-3l-0.4-1.5l-0.6-1.2l1.7-2.5l6.1-7l2.1-1.9l2.6-1.8l1.8-2.3l-0.4-3.4h6.6l0.7-0.4l0.9-1.8l0-1.6l-0.2-0.3
			l4-1.3l3.7-0.2l2.6,1.2l2.5,1.7l1.4,1.7l1.5,2.2l0.8,2.1l0.9,1.8l-0.6,2.4l-0.6,1.7l-2.1,8.2l-1.6,1.7l-2.4,1.7l-2.5,3.1l-2.6,4.4
			l-1.4,3.8l-1.9,7.7l0.2,3.7l-1.2,8.2l-1.5,3.9l0.4,3.9l0.7,3.4l1.4,3.2l2.1,2.8l2,1.9l4.1,1.9l0.2,2l-2.7,8.8l0.3,3l1.2,3.5
			l2.3,4.9l0.1,2.9l1,3.1l3.6,1.9l2.9,0.2l4.8-0.4l12.8-6l1.7,0.9l2.1,5.2l4.7,6.7l1.8,3.6l2.5,1l2.9,0.4l3.2-1.5l8-11.7l3.3-1.8
			l2.6,1.6l6.7,7.5l1.3,4.4l-3.1,2.9l-5.1,13.4l-4.5,9.3l-1.1,4.6l-0.4,3.3l0,2.9l0.2,1.9l0.4,2.1l0.3,3.7l1.2,1.4l2.2,2l0.9,2.3
			l0.3,2.7l-0.3,3l0.1,3.1l0.7,3.4l1.9,2.7l2,3.6l0.8,3.6l-0.1,2.7l0.8,2.9l2.4,5.8l-0.2,6.9l-0.5,3l-1.1,2.7l-0.5,3.2l0.9,2.7
			l0.6,2.8l0,2.8l0.4,2.3l3,4.2l0.1,2.1l-0.9,2.7l-1.2,2.3L1300.3,1237z"/>
	</g>
	<g>
		<path fill="#DBDBDB" d="M1680.1,676.8l1.2,0.2l0.2,0.7l-0.1,1.1l0.2,1.3l-0.5,1.3l-0.5,2.9l-0.5,1.1l-1.1,0.7l-1.3,0.1l-1.4-0.1
			l-1.3,0.1l-1,0.5l-1.8,1.6l-0.7,0.5l-1.1,0.2l-3.7-0.2l0,0l0.4-0.4l0.8-0.8l0.2-0.1l0.8-0.1l1.7,0.2l0.7-0.4l3.8-4.3l1.3,1.3
			l1.6-0.6l1.2-1.6l-0.1-1.8l-0.9,0.5l-0.9-0.1l-0.7-0.7l-0.5-1.1l1.3-0.1l0.9-0.7l0.8-0.8L1680.1,676.8z M1636.4,657.5l0.9-0.5
			l0.5-0.8l0.1-1l-0.4-1.1l-0.8,1l-0.2,0.4l-0.4-1.1l-0.1-1.2l0.1-1.2l0.4-1.1l1.1,1.1l0.9,1.2l1,0.9l1.5,0.2v-0.6l-0.9-0.8l-0.8-1
			l-0.6-1.3l-0.2-1.6l0.2-1.4l0.9-3.7l0.4-0.8l0.4,0.1l0.1,0.8l0.2,0.8l0.8,0.2l0.3-1.3l0.4-0.9l0.6-0.4l1.1,0.6l0,1.4l-0.2,1.7
			l0.4,1.6l0.6-0.9l2.3-0.8l1.1-1h-2.5l1.6-1.4l0.7-0.8l0.7-1.1l0.8-2.8l0.4-0.6l0.3,1.4l0,1.4l-0.3,1.3l-0.7,2.5l0.5,1l0.1,0.6
			l-0.3,0.3l-0.4,0.3l-1.1,1.3l-0.3,0.5l-0.2,1l-0.3,2.5l-0.4,1.1l-0.3,0.1l-1.5-0.1l-0.4,0.2l-0.9,1.2l-0.4,0.5l-1.8,0.7l-0.5,0.3
			l-0.3,0.6l-0.2,0.7l-0.2,0.4l-0.9,0.7l-1.1,0.5l-1.1,0.1l-0.9-0.5l0.3-0.3l0.1-0.3l0-0.3L1636.4,657.5z M1622.2,671.9l0.9-0.4
			l1.3,0.5l1.1,1.3l0.7,1.7l0.1,1.9h0.5l0.4-0.9l0.4-0.3l0.4,0.3l0.4,0.9l1-0.6l-1-2.3l1-1.1l2-0.6l1.7-1l0.6-1.1l-0.1-1l-0.6-0.7
			l-0.9-0.3l-2.8,2l-0.5-0.3l0-1.3l0.1-0.5l1.2-1.5l0.6-0.6l1.7-0.9l0.7-0.6l0.8-0.4l3.7-0.6l0.4-0.4l1.6-2.6l1.8-1.2l-0.3,4.5
			l1.8,0.4l0.3-0.4l2.2-2.3l0.2-0.5l0.2-1.3l0.1-0.3l0.4-0.3l1.1-0.3l3.6-2l0.6-0.1h0.9l0.9,0.2l0.6,0.5l0.8,2.6l-1.3,0.4l-3.5-0.9
			l0.5,1.3l-0.4,0.7l-0.7,0.7l-0.3,1.3l-0.8-0.3l-0.8,0l-0.7,0.3l-0.7,0.7l0.4,0.6l0.2,0.4l0.3,0.2l0.6,0.1l-1.2,1.2l-2.4,0.8
			l-2.3,0.1l-1-1.1l-1.1-0.2l-2.1,0.3l-1.1,1l1.8,1.9l-1,0.7l-0.7,0.8l0,0.7l1.2,0.5l-0.2,1.2l-0.5,1.1l-0.6,0.9l-0.7,0.7l0.6,0.8
			l0.8,0.2l0.8-0.5l0.3-1.5l1.7-2.5l0.1-0.5l4.8-0.9l2.6-0.1l1.9,1l-0.8-0.1l-0.6,0.2l-0.4,0.6l-0.1,1l-0.2,0.9l-0.6-0.1l-0.7-0.4
			l-0.5-0.1l-0.4-0.1l-0.5-0.3l-0.4,0l-0.2,0.8l0.1,0.4l0.4,0.6l0.1,0.4l-0.1,0.9l-0.3,0.4l-0.5,0l-0.6-0.4l-0.5,2.2l-1,0.6
			l-1.2,0.4l-0.8,1.4l1.1,0l1.3,0.6l1.1,1l0.5,1.4l-0.2,1l-0.7,2.2l-0.2,1.2l-0.9,1.1l-2.1,1.1l-4,1.2l0.3,1.1l0.5,0.8l0.6,0.5
			l0.6,0.3l7.7-4.6l2.8-0.7v-0.7l-1.1-0.3l-1,0l-0.8-0.2l-0.6-0.9l3.1-0.4l1.5,0l1.1,0.7l1.2,0.4l1.8-0.2l1.8-0.6l1.1-0.6l-0.4-0.3
			l-1.1-1.1l4.3,0.4l2.1-0.6l1.6-1.8l-8.2,0.2l-1.3,0.4l-0.2,0.3v0.4l-0.2,0.4l-0.7,0.2l-0.5,0l-0.3-0.1l-0.3-0.2l-0.4-0.3l0.5-1.3
			l-3.9,1.7l-1.9-0.1l-0.6-3l0.4-1.5l0.8-0.9l0.9-0.7l0.9-0.8l0.1-0.6l-0.1-0.7l0-0.5l0.5-0.2l0.6-0.1l0.4-0.3l0.1-0.6l-0.1-1
			l2.5,0.6l-0.8,1.5l-0.2,1.5l0.4,3l1.3-2.3l0.6-1.9l0.9-1.1l2.2,0l-1.2-1.9l-0.3-0.9l1.3-2l0-1.4l-0.6-1.1l-1.2,0l-0.5,0.9
			l-0.3,1.5l-0.5,1l-1-0.5l-2.3-2.5l-0.5-1.1h2.5l-0.6-1.2l-0.1-1l0.5-0.4l1.1,0.6l0.1-2l1.3,0.6l2.6,2.8l1.6,1.1l1.5,0.5l1.4-0.5
			l1.1-1.7l1.2,1.2l1.2-0.5l0.7-1.5l-0.3-1.8l1.1,0.4l1.2,1.1l0.9,1.5l0.4,1.4v1.1l-0.1,0.7l-0.4,0.4l-1.6,0.3l-0.3,0.4l0,0.6
			l0.3,0.8l1.3,1.2l1.4-0.5l1.2-1.3l1.5-2l2.9-3l1-0.4l0.6,1.2l-0.6,1.7l-3.8,6.1l-0.4,0.9l-0.1,1.9l-0.2,0.8l-0.2-0.2l-1,0.6
			l-0.9,0.7l0.2,0.2l-0.3,0.3l-0.7,0.4l-0.7,0l-0.3-1v-4l-0.2-0.5l-0.5,0.7l-0.5,1.2l-0.2,0.9l-1.1-0.5l0,0.8l0.5,1.3l0.6,1l1.5,1.7
			l0.5,0.9l0.5,1.5l-0.3,0.2l-0.9,0.3l-0.2,0.1l0-0.2l-1.5,0.9l-0.6,0.6l-0.4,0.6l-0.5,0.5l-1,0.2l-3.8,0l-2,0.6l-1.2,1.4l-0.9-0.6
			l-0.9-0.1l-0.8,0.4l-0.5,1l-1.1-0.5l-1.3,0.4l-1.3,0.8l-1,0.9l-0.2,1.2l1.7,0l2.1-0.6l0.8-0.5l1.6,0.5l1.1-0.4l1-0.9l1.3-0.9
			l0.8-0.1l0.8,0.3l0.8,0.1l1.4-1l1.5-0.4l0.7-0.3l0.8,0.9l1,0.9l1.1,0.7l0.9,0.3l0.9-0.2l1.1-0.9l0.8-0.2l2-0.3l1.5-0.7l3-2.3
			l-0.9,2.4l-1.1,2.3l-0.5,0.7l-1.5,1.4l-0.7,0.9l-0.4,0.9l-0.3,1l-0.5,0.8l-2.3,0.6l-1.7,1.4l-1.1,0.3l0.4-1l1.3-2.1l0.1-0.6
			l-0.7-0.2l-1.5,1.5l-1-0.3l0.5-1.4l-2.1,1.5l-1.4,2.4l-1.2,2.8l-1.4,2.6l-1.7,2.3l-0.4,1.2l0.1,1.8l0.8,3l0.1,1.4l-0.5,1.6
			l1.4,0.3l0.9,1.2l0.3,1.3l-0.2,0.6l0.3,0.4l0.8,0.5l0.8-0.3l0.4-2l-0.4-0.4l-0.7-2l-0.2-1.5l1,0.9l4,7l0.1,1.4l0.4,1.2l0.3,1
			l0.4,1.8l0.1,1l1.5,5.4l0.4,0.6l0.7,1.7l1.6,1l1.8,0.2l1.4-0.5l-0.4,2.4l-5.2,10l-1.3,1.9l-8.5,9.2l-2.2-2.6l-0.4-0.6l-0.8-0.4
			l-1-0.1l-1.4,0.1l-2.1-0.5l-1-0.4l-0.9-0.6l-1.2-0.2l-1.3,0.1l-6.1,1.3l-1.5,0.6l-0.9,0.9l-0.9,0.6l-0.7-0.5l-0.7-1.2l-1.1-1.2
			l-1.3-0.5l-0.9,1.1l-1.2,3.1l-1.1,1.1l-1.5,1l-1.3,1.1l-1.7,1.1l-1.4,0.4l-1.4,1.3l-1.9,1.1l-4.7,4.1l-2,5.6l-0.2,2.8l-0.7,1.5
			l-0.5,1.5l-1,1.2l-6.8,2.7l-2.4,1.3l-3.9,4l-2.4,1.9l-1.8,1.9l-0.9,1.4l1.9,1.4l-0.1,1.2l-1.4,3.1l-1.8,2l-1.3,2l-1.3,0.9
			l-1.4,0.3l-2.8,1.7l-1,1.1l-1.4,0l-1.9-1.9l-1.1-0.5l-1.2-0.4l-0.8-0.7l0-1.2l0.4-1.5l0.1-1.4l-2.8-2.3l-0.5-0.8l-0.6-1.3l-1-1.3
			l-0.8-2.1l-1.4-0.7l-1.3-0.4l-1.2-0.6l-0.6-1l0.1-1.5l0.3-1.2l-0.2-1.4l-0.9-1.2l-0.7-2.4l-0.2-1.6l-0.5-1.3l-0.9-0.3l-1.5-1.4
			l-1.1,0l-1.4-0.3l-1.3-0.7l-1.2-3.2l-0.8-0.4l2.5-8.5l7.4-9.4l0.7-1.9l0.8-5.3l0.8-3l2.6-3.8l1.2-1.5l0.3-1.3l0.7-1.5l4.3-3.8
			l3.1-3.8l2.1-3.5l5.8-6.7l1.9-3.2l3.3-1l1.8-0.2l1.4-0.8l0.7-1.5l-0.3-2.2l0.2-2.6l0.4-2.1l0.1-1.4l0.7-2.4l1.9-0.7l2.4-1.7
			l3.4-3.3l6.4-9.9l3-2.9l2.2-3l1.2-1.9l1.2-3.4l0.6-3.1l0.1-1.7L1622.2,671.9z"/>
	</g>
	<g>
		<path fill="#DBDBDB" d="M1592.5,696.6l0.6-0.1l1.4-0.7l2.7-2.4l2.5-1.6l1.3-1.4l2.8-4l4.5-4.5l1.8-0.8l0.8-1.4l0.8-0.3l0.5,0.3
			l0,0.8l-0.2,0.9l-0.3,0.7l2.5-1.1l1.2-0.8l1-1.1l1.2-2.3l0.6-0.6l0.6,0l0.6,0.4l0.6,0l0.6-1.1l-0.7-1.1l0.7-1.3l1.3-1.1l0.1-0.1
			l0,0.7l-0.1,1.7l-0.6,3.1l-1.2,3.4l-1.2,1.9l-2.2,3l-3,2.9l-6.4,9.9l-3.4,3.3l-2.4,1.7l-1.9,0.7l-2.7-1.3l-2.8-2.7l-1.6-2.4
			L1592.5,696.6z"/>
	</g>
	<g>
		<path fill="#C7C7C7" d="M1522.9,645l1,0l0.5-0.1l1-0.9l2.1-1.4l0.9-0.3l0.3-0.4l3.8-2.9l7.3-9.1l3.2-3.1l2.7-1.1l-1.2,3.2
			l-0.1,1.1l1,0.4l0.4-0.5l0.4-0.9l0.5-0.6l1.2,0.6l0.7-0.3l0.6-0.5l0.5-0.5l-0.3-1.4l2.3-1l0.1-0.9l-0.8-1l-0.2-0.3l-0.9,0.9
			l-1.1,0.6l-1,0.2l-0.9-0.4l2.8-3.6l3.3-1.7l14.5-0.7l4.7,0.6l4.4,1.3l2.4,0.3l-1.7,0.7l-15.8-1.3l-1.1,0.3l-0.7,1l-0.7,2l-0.8,3.8
			l-0.7,1.8l-1.1,0.9l0.7,2l-0.4,0.8l-1,0.1l-1.3-0.1l1,2.6l0.4,0.3l1.2,0.5l0.3,0.4l0,1.6l-0.9,2.9l0.4,1.6l0.5-0.5l1.6-0.8l1,2.7
			l2.5,2.6l6.3,5l0.9,0.3l1-0.4l1.8-1.4l0.4-0.2l1-0.1l0.3-0.3l-0.2-1.3l0.1-0.4l1.2-1.2l0.6,0.1l0.8,1.1l1-1.5l1-0.9l1,0.1l1,1.5
			l0.4,1.2l0,0.9l-0.4,1.9l0.4,0.9l-0.1,0.8l-0.9,1l1.2,0.2l1.1-0.1l0.9,0.3l0.8,1.4l-0.2,0.5l-0.7,4.3l0.3,1.8l0.2,0.9l-0.2,0.7
			l-0.8,1.3l-1.6,1.8l-1.9,1.5l0.7,0.4l0.5,0.2l0.6-0.1l0.7-0.5l0.9,4.8l0.1,1.5l0.4,1.5l0.8,1.3l0.6,1.3l-0.3,1.6l-0.3-0.9
			l-0.5-0.8l-0.6-0.6l-0.7-0.4l-0.5,3.5l0.3,0.9l1.1,1.2l0.4,0.7l0.2,1.1h0.5l0.8-1.2l0.6,1.2l0.7,4l0.9,2.6l0.1,0.8l-0.4,0.6
			l-1.3,0.6l-0.3,0.7l0.5,1.4l1.3,0.8l1.6,0.4l3.4,0l0.9-0.2l0.3,1.2l1.6,2.4l2.8,2.7l2.7,1.3l-0.7,2.4l-0.1,1.4l-0.4,2.1l-0.2,2.6
			l0.3,2.2l-0.7,1.5l-1.4,0.8l-1.8,0.2l-3.3,1l-1.9,3.2l-5.8,6.7l-2.1,3.5l-3.1,3.8l-4.3,3.8l-0.7,1.5l-0.3,1.3l-1.2,1.5l-2.6,3.8
			l-0.8,3l-0.8,5.3l-0.7,1.9l-7.4,9.4l-2.5,8.5l-1.1-0.2l-0.5-0.3l-0.8-0.2l-0.9,0l-0.8,0.2l-0.6,0.5l-0.2,1l-0.2,1.4l-2,5.6l-1,2.1
			l-3.3,4.1l-1.4,1.2l-1.3,0.8l-2.1,0.5l-1.3-0.2l-0.7,0l-0.7,0.1l-0.5,0.3l-0.4,0.5l-0.3,0.6l-0.4,0.6l-0.6,0.5l-0.7,0.2l-1-0.7
			l-1.1-1.4l-1.5-3.4l-0.6-2.4l-0.6-4.1l-0.6-1.7l-0.8-1.2l-1.3-0.8l-1-0.1l-1.8,0.2l-0.8-0.2l-0.6-0.4l-0.6-0.5l-0.5-0.3l-0.4-0.4
			l-0.4-0.7l-0.5-1.2l-0.6-0.9l-1.1-0.4l-2.1,0.3l-1-0.1l-0.8-0.6l-0.7-1.2l-0.5-1.5l-0.1-1.9l0-1.4l-0.2-1.2l-0.6-0.8l-0.7-0.4
			l-0.8-0.6l-0.7-0.8l-0.7-1.9l-0.4-1.4l-0.2-1.1l0.9-4.8l1.7-1.5l0.7-1.4l0.8-2.6l0.2-2.4l-0.2-1.7l-0.2-0.9l-0.3-0.9l-0.1-0.8
			l0-0.6l0.2-1.7l0.3-1l0.7-1l1.5-1.3l1.1-0.7l1.3-0.6l3.7-0.6l0.8-0.6l0.1-1.3l-0.2-1.3l0.3-1.3l0.8-1l1.8-0.7l1.2-0.7l0.9-1.1
			l0.9-2.3l0.7-2.4l0.9-4l0.4-1.4l0.7-1l3.5-2.5l0.7-1.3l0.3-1.1l0-1l-0.8-1.2l-0.1-0.7l0.4-0.5l1.2-0.7l1-0.3l0.9-0.1l2.8,0.9h1.3
			l1.3-0.5l1.3-0.9l1.4-1.7l0.9-1.4l0.3-1.9l0-1.6l0.2-1.6l0.3-1.1l0.1-0.9l-0.3-0.6l-1.1-1.3l0-0.8l0.7-0.7l5.1-2l3.4-3l0.3-0.8
			l-0.2-0.6l-0.6-0.8l-1.3-0.9l-3.6-1.1l-1-0.5l-0.9-0.7l-3.1-3.3l-1-0.6l-0.9-0.3l-0.7-0.4l-0.6-0.7l-0.6-1.1l-0.6-0.8l-0.4-0.8
			l-0.3-1.1l-0.5-1.1l-0.9-0.9l-0.9-0.3l-1.6,0l-2.1,0.4l-0.7-0.2l-0.8-0.3l-0.7,0l-0.6,0.4l-1.4,2l-0.9,0.2l-0.7-0.8l-0.3-2.9
			l0.4-1.5l0.7-1.1l0.6-0.5l0.8-1.2l0.4-1.2l-0.1-1.2l-0.9-1.2l-1-0.8l-0.9-0.9l-0.6-1.2l-0.6-1.7l-0.7-1.2l-2.3-2.1l-0.7-1.4
			l-1-6.5L1522.9,645z"/>
	</g>
	<g>
		<path fill="#DBDBDB" d="M1223,993.1l-0.6-0.9l-1.8-0.7v-0.7l3.4-1.2l1.4-0.9l2.7-3.2l4.6-3.1l2.9-2.9l2.4-3.1l0.1-0.6l0.1-1.1
			l0.2-1.3l0.6-1.2l0.8-0.8l0.8-0.7l0.9-0.5l0.8-0.4l-0.5-0.3l-1.5-1.2l1.4-0.7l1.5-0.4l4.5-0.3l2.7-0.6l2.5-1.3l1.5-1.1l0.7-0.7
			l1-0.6l1.9,0.2l0.6-0.3l1.8-1.7l1.2,0.7l1.1,1.8l1.5,1.6l3.5,0.5l4.2-1.3l4-2.5l4.4-4.5l3.4-2.3l1.4-1.4l1.3-1l4.7-2.5l1.2-1.1
			l0.4-0.9l0.1-1l0.3-0.8l0.5-0.6l2-1.3l0.7-0.2l1.4-0.8l2.8-3.4l1.3-0.8l1.4-0.5l5.3-3.6l3.7-1.2l2-1.1l0.9-1.5l0.3-0.8l0.8-0.8
			l0.9-0.6l0.7-0.2l2-0.2l0.6,0.2l0.6,0.1l0.6-0.1l0.9-0.6l1.1-1.1l2.9-0.8l2.5-1.9l3,0.7l1.6-0.2l3.8-3l1.5-0.4l1.2-0.8l2.5-3.8
			l1.1-1.3l0.4-1.1l0-1.3l1.5-1.8l1.9-0.4l0.8-0.9l0.1-1.4l0.5-2.2l1.5-1.9l1.6-1.3l9.8-4.9l0.9-1.6l0.6-2.7l1.6-0.5l1.1-1l0.7-1.6
			l0.5-1.4l0.7-0.6l1.8-0.8l1.9-1.4l1-0.5l1.2-0.2l0.8,0.2l1.6,1l0.8,0.2l4.7-7.6l-2.3-0.5l-1.8,2.1l-1.6,2.6l-1.7,1.2l1.4-4.4
			l2.5-3l1.9-1.4l0.7-1.5v-0.8l5.4-0.4l1.6-0.8l0.6-0.6l-0.6-0.9l1.3-1l1-1.5l1.1-0.9l1.6,0.7l0.2-1.7l0.8-0.4l0.5-0.7l2.9-1.8
			l6.5-2.4l2.8-2.3l2.3-0.3l1.2-0.1l0.8-0.1l0.6-0.7l0.9-1.1l0.8-0.7l2.7-1.4l1.3-1.5l2.6-3.9l1.3-0.8l1.2-1.1l6.3-10.9l0.9-1
			l0.7-0.3l1.5-0.7l1.3-0.9l0.6-1.3l1.1-1.9l0.7-0.9l0.8-0.4l1.2-0.8l1.2-1.8l1.8-3.5l1.3-0.8l5.2-10.8l1.5-1.8l0.8-1.5l0.2-3.2
			l0.5-2.3l3.6-5.5l1.5-4.5l2-14.6l1.3-3.6l0.3-2.2l0.7-2.4l0.4-0.8l2.5-3.1l1.1-1.7l0.7-2.2l1.2-6.2l1-1.9l0.7-3.2l1.5-3.7
			l-0.5-1.1l-0.5,0.7l-0.3-0.7l-0.1-0.6l-0.1-4.6l1.2-0.9l4.4,0.7l5.1-0.7l1.4,0.1l0.5,0l3.6-1.6l6.9-4.5l1.8-2.2l0.6-0.6l1.1-0.2
			l1,0.2l0.7-0.2l0.5-2.3l0.6-0.6l0.7-0.5l0.7-0.7l1-1.6l2.7-6.1l0.4-0.5l0.3-0.1l0.2-0.4l0.1-2l0.1-0.2l0.2-0.1l0.4-0.3l0.6-0.9
			l0.4-0.9l0.2-1l0.1-1.2l0.8-1.4l1.9-1.7l2.2-1.4l1.5-0.6l-0.3-0.9l-0.1-1l0.2-0.9l1-1.9l0.1-1.1l0-2.1l0.2-2.4l0.4-0.9l0.7,0.3
			l0.3-0.1l0.7-0.4l0.9-0.4l0.9,0l-1.4-2.7l-0.4-1.2l-0.7-10.7l0.2-1.2l0.6-2.2l0.1-0.9l-0.5-5v-10.5l-0.4-3l0-1.7l0.6-0.7l0.9-0.1
			l0.6-0.3l0.5-0.6l0.9-1.9l1.8-2.3l0.2-0.5l0.1-1l0.2-0.4l0.5-0.5l0.5-0.1l0.5,0l0.5-0.2l0.2-0.4l0.2-0.6l0.3-0.6l0.5-0.2l0.1,0
			l0.3,0.9l1,6.5l0.7,1.4l2.3,2.1l0.7,1.2l0.6,1.7l0.6,1.2l0.9,0.9l1,0.8l0.9,1.2l0.1,1.2l-0.4,1.2l-0.8,1.2l-0.6,0.5l-0.7,1.1
			l-0.4,1.5l0.3,2.9l0.7,0.8l0.9-0.2l1.4-2l0.6-0.4l0.7,0l0.8,0.3l0.7,0.2l2.1-0.4l1.6,0l0.9,0.3l0.9,0.9l0.5,1.1l0.3,1.1l0.4,0.8
			l0.6,0.8l0.6,1.1l0.6,0.7l0.7,0.4l0.9,0.3l1,0.6l3.1,3.3l0.9,0.7l1,0.5l3.6,1.1l1.3,0.9l0.6,0.8l0.2,0.6l-0.3,0.8l-3.4,3l-5.1,2
			l-0.7,0.7l0,0.8l1.1,1.3l0.3,0.6l-0.1,0.9l-0.3,1.1l-0.2,1.6l0,1.6l-0.3,1.9l-0.9,1.4l-1.4,1.7l-1.3,0.9l-1.3,0.5h-1.3l-2.8-0.9
			l-0.9,0.1l-1,0.3l-1.2,0.7l-0.4,0.5l0.1,0.7l0.8,1.2l0,1l-0.3,1.1l-0.7,1.3l-3.5,2.5l-0.7,1l-0.4,1.4l-0.9,4l-0.7,2.4l-0.9,2.3
			l-0.9,1.1l-1.2,0.7l-1.8,0.7l-0.8,1l-0.3,1.3l0.2,1.3l-0.1,1.3l-0.8,0.6l-3.7,0.6l-1.3,0.6l-1.1,0.7l-1.5,1.3l-0.7,1l-0.3,1
			l-0.2,1.7l0,0.6l0.1,0.8l0.3,0.9l0.2,0.9l0.2,1.7l-0.2,2.4l-0.8,2.6l-0.7,1.4l-1.7,1.5l-0.9,4.8l0.2,1.1l0.4,1.4l0.7,1.9l0.7,0.8
			l0.8,0.6l0.7,0.4l0.6,0.8l0.2,1.2l0,1.4l0.1,1.9l0.5,1.5l0.7,1.2l0.8,0.6l1,0.1l2.1-0.3l1.1,0.4l0.6,0.9l0.5,1.2l0.4,0.7l0.4,0.4
			l0.5,0.3l0.6,0.5l0.6,0.4l0.8,0.2l1.8-0.2l1,0.1l1.3,0.8l0.8,1.2l0.6,1.7l0.6,4.1l0.6,2.4l1.5,3.4l1.1,1.4l1,0.7l0.7-0.2l0.6-0.5
			l0.4-0.6l0.3-0.6l0.4-0.5l0.5-0.3l0.7-0.1l0.7,0l1.3,0.2l-0.4,1.9l-0.3,1l-0.4,1.1l-1,2l-0.2,1.1l-0.4,1.2l-0.9,1l-1.9,0.8
			l-1.4,0.3l-2.1,1l-3.7,3.3l-4.5,3.5l-1.1,1.2l-0.7,1.5l-0.7,0.9l-1.6,1.6l-0.8,1.4l-0.8,1.1l-3.3,2.6l-1.9,4l-2.1,1.9l-1.9,1
			l-1.3,0.5l-2.1,0.2l-1.1,0.3l-2.1,1.5l-1.5,1.3l-1.7,2.5l-1.7,2.1l-0.3,1.2l-0.2,1.8l-4.5,2.7l-3.8,1.2l-0.4,0.4l-0.3,1.1
			l-0.5,2.6l-0.9,2.7l-0.3,1.3l-0.4,1.2l-0.8,1l-1.1,0.7l-3.7-0.1l-2.7,0.6l-3.1,0.2l-2.7,0.8l-0.5,0.1l-0.4,0l-0.5-0.4l-0.7-0.2
			l-0.9,0l-2.7,1.1l-1.5,1.2l-1.1,0.7l-1.3,0.3l-2.4,0.2l-3,1.2l-1.7,1.2l-3.1,3.1l-1,1.9l-0.5,1.5l-0.3,1.2l-0.9,1.1l-1.4,0.9
			l-5.8,1.8l-1.6-0.1l-2.8,1.8l-4.6,7.9l-2.7,1.9l-7.3,3.8l-12.8,10.2l-7.1,8l-1.9,0l-1.2-0.5l-2.5,0.4l-3.5,1.4l-9.8,5.7l-7.4,2.6
			l-2.3,1.4l-5.7,5.1l-1.9,2.3l-1.1,2.2l-1,2.6l-1.9,2.8l-2,2.3l-1.4,2.7l-1.7,1.8l-2,3.6l-11.4,9.4l-2.5,2.9l-2.6,2.5l-3.9,4.7
			l-2.1-1.3l-1.4,0l-1.8,0.3l-1.2,1.8l-1.1,2.1l-1.5,2l-2.1,1.1l-2.7,1.9l-3.1,1.5l-2.4,1.9l-2.9,1.5l-2.4-0.6l-1.9-1l-1.2-1
			l-2.2,0.1l-2.7,1.5l-4.6,0.7l-3.6-0.2l-3.1,0.5l-3.4,1.5l-3.5,2.8l-0.8,1l-0.8,1.9l-2.6,3.2l-2.6,1.5l-1.7,1.7l-1.3,1.7l-0.7,2.2
			l-0.5,2l-1.8,4.9l-1.7,2.6l-2.8,2.9l-2,1.3l-4.8,0.7l-14.3,7l-9.2,1l2.1-8.2l0.6-1.7l0.6-2.4l-0.9-1.8l-0.8-2.1l-1.5-2.2l-1.4-1.7
			l-2.5-1.7l-2.6-1.2l-3.7,0.2L1223,993.1z"/>
	</g>
	<g>
		<path fill="#C7C7C7" d="M1445.2,1062.2l-0.7,1.6l-0.3,1.6l-4.9,9.3l-8.1,8.4l-4,8.7l-1.8,7.4l-1,2.2l-0.9,2.6l1,1.3l1.3,1.2
			l-0.1,2.4l-2.7,3.2l-0.7,1.4l0,1.1l0.3,1.1l0.2,1.3l-1,1.9l-2,1.4l-1.5,1.6l0.5,2.6l-0.9,1.2l-0.9,0.6l-1-0.1l-1.2-1l0.1,1.1
			l0.3,1.1l0.7,2l-1.2,1.2l-0.9,0.4l-2.6-0.1l-1.5,0.5l0,1.1l1.1,1l1.7,0.2l-1.7,3.8l-0.6,0.6l-0.8,0.2l-0.9,0.6l-1.5,1.3l-0.6,0.2
			l-0.5-0.2l-0.3,0.1l-0.1,0.9v1l0.1,0.5l0.3,0.2l0.7,0l1.1,0.4l1,0.6l0.9,0.1l1-1.2l1.3,1.2l1.9,1l1.5,1.1l0,1.4l-1.3,1l-3.6,0.7
			l-1.5,0.8l-1.4,2.3l-0.5,0.7l-0.6,0.2l-0.8,0.2l-0.7,0.4l-0.9,2.7l-2.7,1.8l-0.7,1.8l1.4-0.7l2.6-0.7l2.2-2l3.3-1.3l1-1l1.1-2.4
			l0.9-1.2l1-0.7l0.9-0.2l0.8-0.5l0.8-1.5l0.7,1.3l0.3,1.6l-0.3,5.7l-0.6,1.4l-1.1,0.5l-1.6,0.1l-1.5-0.1l-0.3,0.2l-0.8,0.6
			l-0.4,0.7l0,0.7l-0.2,0.6l-15.2,1.6l-6.3,2.1l-5.4,4l-4.2,6.2l-1.1,2.5l-0.3,1.2l-0.2,3.2l-0.7,2l-0.1,1l-0.5,2.2l-1.3,2l-1.6,1.6
			l-1.5,1l-3.9,1.6l-1.8,1.2l-1.6,1.9l-1.3,1.9l-1.4,1.6l-10.1,7.3l-2.5,3.5l-1,5.6l0.2,2.8l-0.3,1.1l-2.1,0.8l-1.7,1.5l-0.6,0.3
			l-1.3-0.2l-2.5-1l-1.2-0.2l-1.3,0.2l-2.1,0.9l-1.2,0.3l1.2,0.5l5.9,0.3l-1.5,3.7l-2.3,1.6l-2.6,1l-2.4,2.1l-1-0.1l-1.9-0.8
			l-2.1-0.5l-1.5,0.7l-0.9,0.9l-3.9,2.3l0.4,0.5l0.7,1.2l0.4,0.5l-2,0.6l-2.5-0.8l-2.3-0.2l-1.4,2.5l-1.5-1.2l-0.5-0.2l-2.5-0.5
			l-1.3,0.1l-1,0.7l-1.5,1.7l-0.9,0.6l-0.9,0.3l-2.6,0.4l-1-0.2l-1-1l0.3-2.1l-0.2-1.2l-0.1,0l0.2-5.7l1.2-2.3l0.9-2.7l-0.1-2.1
			l-3-4.2l-0.4-2.3l0-2.8l-0.6-2.8l-0.9-2.7l0.5-3.2l1.1-2.7l0.5-3l0.2-6.9l-2.4-5.8l-0.8-2.9l0.1-2.7l-0.8-3.6l-2-3.6l-1.9-2.7
			l-0.7-3.4l-0.1-3.1l0.3-3l-0.3-2.7l-0.9-2.3l-2.2-2l-1.2-1.4l-0.3-3.7l-0.4-2.1l-0.2-1.9l0-2.9l0.4-3.3l1.1-4.6l4.5-9.3l5.1-13.4
			l3.1-2.9l-1.3-4.4l-6.7-7.5l-2.6-1.6l-3.3,1.8l-8,11.7l-3.2,1.5l-2.9-0.4l-2.5-1l-1.8-3.6l-4.7-6.7l-2.1-5.2l-1.7-0.9l-12.8,6
			l-4.8,0.4l-2.9-0.2l-3.6-1.9l-1-3.1l-0.1-2.9l-2.3-4.9l-1.2-3.5l-0.3-3l2.7-8.8l-0.2-2l-4.1-1.9l-2-1.9l-2.1-2.8l-1.4-3.2
			l-0.7-3.4l-0.4-3.9l1.5-3.9l1.2-8.2l-0.2-3.7l1.9-7.7l1.4-3.8l2.6-4.4l2.5-3.1l2.4-1.7l1.6-1.7l9.2-1l14.3-7l4.8-0.7l2-1.3
			l2.8-2.9l1.7-2.6l1.8-4.9l0.5-2l0.7-2.2l1.3-1.7l1.7-1.7l2.6-1.5l2.6-3.2l0.8-1.9l0.8-1l3.5-2.8l3.4-1.5l3.1-0.5l3.6,0.2l4.6-0.7
			l2.7-1.5l2.2-0.1l1.2,1l1.9,1l2.4,0.6l2.9-1.5l2.4-1.9l3.1-1.5l2.7-1.9l2.1-1.1l1.5-2l1.1-2.1l1.2-1.8l1.8-0.3l1.4,0l2.1,1.3
			l0.6,5.6l-0.9,2.5l-1.8,3.1l-1.3,2.7l-1.6,2l-1.8,2.8l-0.9,2l-1.5,2.4l-0.2,2.2l0,18.5l0.2,2.5l0.4,1.6l2.3,1l2.1,1.9l1.1,2.7
			l1.2,6.8l1.4,1.9l1.7,1l2-0.3l2,2.8l4.1,4.4l5.4-0.7l2.4,1.1l2.2,2.8l1.7,3.7l2.3,7.5l2.5,6.1l2.2,3.6l1.6,2l2.3,1.2l5.2,0.4
			l6.5-1.4l2.8,0.2l1.4,1l0.9,2l-0.3,2.3l0.4,2.9l0.7,2.7l1.6,2.7l1.5,1.4l7.1-4.1l11.4-10.5l2.6-1.3l2.9-0.8l2.9-0.1l6.2-1.7
			l13,3.6l7.7,3.1L1445.2,1062.2z"/>
	</g>
	<g>
		<path fill="#F0F0F0" d="M1658.2,761.2l-5.7,6.1l-2.1,3.5l-1,2.3l-0.4,2l0,3l-0.2,1.8l-0.7,0.9l-0.4,1l-0.6,1.3l-0.1,0.5l-1.4,1.9
			l-1.4,2.6l-1.4,1.4l-3.3,2.1l-1.6,1.5l-2.3,3.7l-0.4,0.3l-0.5,0.1l-1-0.1l-0.7,1.8l-0.3,0.6l-0.8,0.8l-0.8,0.6l-0.5,0.8l-0.1,1.6
			l0.3,0.9l1.2,1.5l0.5,0.9l-0.5,0.7l-0.6,0.7l-1.5-2l-0.8-0.6l-1.1-0.2l-0.9,0.3l-1.6,1.4l-0.8,0.3l-0.9,0.7l-3.8,4.7l-1.5,3.8
			l-1.1,4.4l-1.7,3.7l-3.2,1.7v0.7l0.5,0l0.3,0.2l0.3,0.2l0.4,0.2l-5.7,12.4l-0.8,3.5l-1.1,2.1l-1.4,1.8l-2.3,1.2l-0.1,1l0.3,1.9
			l0,1.1l0.1,0.5l-0.1,0.6l-0.5,1.2l-0.7,0.9l-0.6,0.3l-0.5,0.5l-0.2,1.4l-0.3,0.7l-0.7,0.7l-3.2,2l-0.8,0.3l-2.1,0.3l-3,1.6l-0.4,1
			l-0.3,1.1l-0.3,0.9l-0.6,0.7l-3.5,2.8l-9.9,2.5l-2.4,1.1l-2,2.5l-5.6,4.1l-1,2l-1.7,4.2l-1.7,2.7l-0.4,0.8l0.2,1.4l0.5,1.3
			l-0.5,2.4l-0.3,2.5l-0.1,5.3l-0.5,0.6l-0.5,1.4l0.2,2.2l1.3,6.3l2.1,6l-0.1,1.6l-0.9-1.2l-0.9-0.2l-0.4,0.7l0.6,1.4l1.1,0.8
			l4.5,1.2l-2.1,0.9l-4.8,0.3l-2.2,0.7l-2,1.8l0.9,0.8l2,0.3l1.6,0.5l1.5-2l2.7-0.7l2.6,0l1.2,0.2l0.3,1.5l0.7,1.4l0.7,0.8l0.3-0.3
			l0.4-2.6l0.7-2.6l1.9,1.2l0.4,0.8l0.1,1.7l-0.2,2.8l0.3,0.6l1-0.3l0.6-0.8l0.5-1.2l0.6-1.1l1-0.5l1.1,0.1l1.1,0.5l0.8,0.9l0.3,1.4
			l2.1-2.3l0.9-0.5l0.3,1.8l0.9,1l1,0.8l0.8,1.2l0.1,0.8l-0.2,0.8l-0.3,0.7l-0.1,0.5l0.2,0.6l0.6,1l0.2,0.5l0.3,2.8l-0.2,2.9
			l-0.6,2.9l-0.9,2.5l-0.9-1.4l-1.8,2.4l-1.3-0.3l-0.5,2.2l0,0.7l-0.6-0.9l-0.6-0.2l-0.6,0.3l-0.6,0.7l-0.3-1.3l-0.9-2.3l-0.3-1.3
			l0-1.6l0.2-0.9l-0.1-0.8l-0.8-1.3l-0.4-1.3l0.1-1.5l-0.1-1.2l-1-0.5l-1.1,0.4l-0.5,1l0.2,1.2l0.9,0.9l-1,2.7l-0.1,2.8l0.8,2.7
			l2.3,3.7l-0.2,0.2l-1.7-0.3h-4.8l-1-0.6l-1.7-2l-1.7,0.5l-0.9-0.7l-1.6-2.1l-2.8-3l-0.1-1.4l1.4-1.9l-1.3,0.1l-2,1l-6,0.9l-2,1.1
			l-4.2,0.4l-6.4,2.3l-3,0.5l-0.6-0.4l0.3-1.1l0.7-0.8l0.9-0.4l2-0.3l11-3.8l1.1-0.1l1.1-0.3l-0.6-0.8l-2-1.3l-0.9-0.2l-2.3,0.3
			l-1.3-0.5l-0.5-0.6l-0.9-1.4l-0.6-0.7l-2-1l-1.9,0.3l-1.9,0.8l-2.1,0.4l-1.2,1.1l-0.7,2.5l-0.3,3l0,2.5l0.2,1.5l0.1,0.6l-0.2,0.5
			l-0.9,1.2l-0.8,0.4l-6.1,1l-0.9-0.2l-1.5,0.5l-1.3,1.5l-3.4,1.2l-1.5,1.3l-7.6,3.6l-14.1,10.4l-2.2,0.4l-1.2-0.2l-1.1,0.1
			l-0.9,0.6l-5.4,3.8l-2.7,0.6l-1.1,0.4l-0.9,0.8l-0.8,0.9l-0.8,0.8l-2.1,0.6l-1.9,1.4l-0.8,0.3l-1.2,0.4l-1.3,1.6l-0.7,0.8
			l-0.5,0.9l-1.9,0.7l-0.9,0.7l-4.5,4.8l-1.8,1l-1.5-0.6l-1,0.7l-0.9,0.7l-0.6,1.1l-0.2,1l-4,7.4l-0.3,1.2v5.9l-0.4,1.9l-1,1.5
			l-2.1,2.6l-0.2,0.9l0,1.2l-0.2,1l-0.8,0.4l-0.6,0.2l-2.1,1.3l1.6,2l0.4,3.5v7.7l0.8,5l0.1,1.8l-0.4,1.9l-0.9,0.8l-1,0.6l-0.7,1.3
			l2.1,0.4l0.7,2.5l-0.1,3.4l-0.6,6.1l-0.8,2.1l-0.9,1.5l-0.6,1.4l-3.5-0.7l-7.7-3.1l-13-3.6l-6.2,1.7l-2.9,0.1l-2.9,0.8l-2.6,1.3
			l-11.4,10.5l-7.1,4.1l-1.5-1.4l-1.6-2.7l-0.7-2.7l-0.4-2.9l0.3-2.3l-0.9-2l-1.4-1l-2.8-0.2l-6.5,1.4l-5.2-0.4l-2.3-1.2l-1.6-2
			l-2.2-3.6l-2.5-6.1l-2.3-7.5l-1.7-3.7l-2.2-2.8l-2.4-1.1l-5.4,0.7l-4.1-4.4l-2-2.8l-2,0.3l-1.7-1l-1.4-1.9l-1.2-6.8l-1.1-2.7
			l-2.1-1.9l-2.3-1l-0.4-1.6l-0.2-2.5l0-18.5l0.2-2.2l1.5-2.4l0.9-2l1.8-2.8l1.6-2l1.3-2.7l1.8-3.1l0.9-2.5l-0.6-5.6l3.9-4.7
			l2.6-2.5l2.5-2.9l11.4-9.4l2-3.6l1.7-1.8l1.4-2.7l2-2.3l1.9-2.8l1-2.6l1.1-2.2l1.9-2.3l5.7-5.1l2.3-1.4l7.4-2.6l9.8-5.7l3.5-1.4
			l2.5-0.4l1.2,0.5l1.9,0l7.1-8l12.8-10.2l7.3-3.8l2.7-1.9l4.6-7.9l2.8-1.8l1.6,0.1l5.8-1.8l1.4-0.9l0.9-1.1l0.3-1.2l0.5-1.5l1-1.9
			l3.1-3.1l1.7-1.2l3-1.2l2.4-0.2l1.3-0.3l1.1-0.7l1.5-1.2l2.7-1.1l0.9,0l0.7,0.2l0.5,0.4l0.4,0l0.5-0.1l2.7-0.8l3.1-0.2l2.7-0.6
			l3.7,0.1l1.1-0.7l0.8-1l0.4-1.2l0.3-1.3l0.9-2.7l0.5-2.6l0.3-1.1l0.4-0.4l3.8-1.2l4.5-2.7l0.2-1.8l0.3-1.2l1.7-2.1l1.7-2.5
			l1.5-1.3l2.1-1.5l1.1-0.3l2.1-0.2l1.3-0.5l1.9-1l2.1-1.9l1.9-4l3.3-2.6l0.8-1.1l0.8-1.4l1.6-1.6l0.7-0.9l0.7-1.5l1.1-1.2l4.5-3.5
			l3.7-3.3l2.1-1l1.4-0.3l1.9-0.8l0.9-1l0.4-1.2l0.2-1.1l1-2l0.4-1.1l0.3-1l0.4-1.9l2.1-0.5l1.3-0.8l1.4-1.2l3.3-4.1l1-2.1l2-5.6
			l0.2-1.4l0.2-1l0.6-0.5l0.8-0.2l0.9,0l0.8,0.2l0.5,0.3l1.1,0.2l0.8,0.4l1.2,3.2l1.3,0.7l1.4,0.3l1.1,0l1.5,1.4l0.9,0.3l0.5,1.3
			l0.2,1.6l0.7,2.4l0.9,1.2l0.2,1.4l-0.3,1.2l-0.1,1.5l0.6,1l1.2,0.6l1.3,0.4l1.4,0.7l0.8,2.1l1,1.3l0.6,1.3l0.5,0.8l2.8,2.3
			l-0.1,1.4l-0.4,1.5l0,1.2l0.8,0.7l1.2,0.4l1.1,0.5l1.9,1.9l1.4,0l1-1.1l2.8-1.7l1.4-0.3l1.3-0.9l1.3-2l1.8-2l1.4-3.1l0.1-1.2
			l-1.9-1.4l0.9-1.4l1.8-1.9l2.4-1.9l3.9-4l2.4-1.3l6.8-2.7l1-1.2l0.5-1.5l0.7-1.5l0.2-2.8l2-5.6l4.7-4.1l1.9-1.1l1.4-1.3l1.4-0.4
			l1.7-1.1l1.3-1.1l1.5-1l1.1-1.1l1.2-3.1l0.9-1.1l1.3,0.5l1.1,1.2l0.7,1.2l0.7,0.5l0.9-0.6l0.9-0.9l1.5-0.6l6.1-1.3l1.3-0.1
			l1.2,0.2l0.9,0.6l1,0.4l2.1,0.5l1.4-0.1l1,0.1l0.8,0.4l0.4,0.6L1658.2,761.2z"/>
	</g>
	<g>
		<path fill="#DBDBDB" d="M1737.7,265.9l1.6-0.9l0.4,0.3l0.8,1l0.6,1.2l-0.6,0.5l-1,0.3l-0.8,0.8l-0.1,0.9l0.6,1.9l0.1,0.9l-0.2,0.7
			l-0.3,0.2l-0.9-0.1l-0.6,0l-1.5,0.5l-1.5,0.2l-1.6-0.2l-3-1.1l0.5-0.7l-1.6-1.5l-0.8-0.2l-0.9,0.8l-0.7,0.3l-0.3-1.1l0.1-1.6
			l0.6-1.1l0.6,0.1l3.7-0.1l0.8,0.5l0.6,0.9l0.8,0.4l1.4-0.9L1737.7,265.9z M1714.6,234l1-0.6l1.2,0.5l1,1.1l0.4,1.2l0.5,2.2
			l-0.1,0.9l-1.1,0.4l-2.6-0.1l-0.7-0.4l1.1-0.8l0-1l-0.7-2.2L1714.6,234z M1735.2,214.4l0.3,0.6l0.7,0.7l0.5,0.9v1.2l-0.7,0.8
			l-1.1,0.4l-1.2,0.1l-1,0l-1.4-2l1.1-1.7l1.9-1L1735.2,214.4z M1764.8,224.1l1.4,2l0.6,0.5l-1.4,3.1l-0.7,0.7l-1,0.1l-0.6-0.7
			l-0.2-1.1l0-1.1l-0.4-1l-1,0.3l-1.1,0.6l-0.8,0l-0.4-0.9l-0.2-2.3l-0.2-0.8l-0.6-0.4l-0.6,0l-1.8,0.4l0.3-0.8l0-0.6l-0.3-0.5
			l-0.5-0.7l-1.7,0.6l-2.1-0.9l-1.7-1.8l-0.5-2.2l1.9,2.3l0.6,0.2l0.7-0.7l0-1.1l-0.2-1.2l0.2-1l0.6-1.6l-1-0.8l-1.5-0.8l-0.8-1.5
			l2.2,0l1-0.4l0.8-0.9l-1.4-1.5l-0.3-1.8l0.8-1.4l1.9-0.3l0.7,0.3l0.7,0.6l0.5,0.8l0.2,1.1l0.3,0.5l2.2,1.6l-1.4,0.7l0.2,1l1,1.1
			l1.9,1.2l1.9,0.8l0.7,0.1l0.6,0.3l-0.4,0.8l-0.7,0.9l-0.4,0.7l-0.3,1.4l-0.4,1l0,1.1l0.9,1.6l0.3,0.3l0.4,0.3l0.4,0.2l0.4,0.1
			l0.2,0.1v0.4l-0.1,0.4L1764.8,224.1z M1701.4,316.5l-1.6-3.8l-0.8-2.9l-1.7-3.3l-0.3-0.8l-0.4-2l-3.1-5.9l-0.5-2.5l1.2-0.1
			l2.1,0.5l2.9-0.9l1.1,0.4l0.7,0.8l-0.2,1l-0.7,1l-0.1,0.5l3.7,7.3l0.3,3l1.1,2.3l1.3,1l0.8-2.2l-0.9-2.4l-0.2-1.4l0.8-0.6l2.2,0.4
			l1-0.1l1.1-0.9l-1.5,0.1l-3.7-0.7l-1.3-0.6l1.1-0.5l4-3.5l0.5,0.2l-0.1,2l3-3.7l1.7-1.3l1.8-0.2l2.8,3.3l1,0.6l1-0.4l0.2-1
			l-0.4-1.3l-0.6-1.1l0.1-1l-3.7-1.5l-1.4-1.2l-1.1,0.4l-0.7-1.2l-0.5-1.8l-0.7-1.4l-1.9,2.3l-1.1-0.9l-0.1-2l0.8-1.1l0.8-0.2
			l0.9-0.7l0.7-0.9l0.3-1l-4.7-0.8l-5,0.3l-2.4,0.7l-1.9,1.5l-0.6,1.1l-0.5,2.2l-0.4,1l-0.7,0.9l-0.6,0l-1.7-1.6l-1,1.6l-1.6,1.4
			l-1.7,0.6l-1.5-0.8l-0.8-1.6l-3-10.5l-1.6-8.6l-1.4-4.1l-3.8-7l-10.1-12.8l-2.2-4.2l-0.5-4.2l0.2-1.1l0.3-0.8l0.6-0.5l0.9-0.1
			l-0.8,2.5l-0.1,1.2l0.4,1.3l1.2-2.4l0.7-1l1.1-0.4l1,0.7l1.1,3l1.5,1.4l1.7,3l1,0.7l1.2,0.3l0.7,0.8l-0.1,1l-1.1,0.9l3,1.1
			l0.8,0.1l0.1,0.2l-0.7,0.5l-1.1,0.4l-1,0.1l0.7,0.6l0.3,0.7l-0.1,0.9l-0.4,1l0.9,0.1l0.7,0.2l1.5,1l0-0.6l0.1-1.3l0-0.6l0.7,1.3
			l0.7,2.1l0.7,1l0.8-1.8l0.8,0.1l0.3-1l0.1-1.5l0.3-1.4l0.5-0.6l1.2-1l0.4-0.9l-1.1,0.4l-0.4,0.2l-0.6-1.8l0.7-4.1l-0.6-1l-0.7,1.4
			l-0.3-0.7l0-4.7l0-0.3l0.3-0.5l1.2-1.4l-0.6-1l-0.9-1l-0.6-1l0.3-1l1.6-1.5l-0.1-0.5l-2.3-1.4l-0.5,0l-1.2,1.6l-0.9,0.9l-0.7,0.4
			l-4.3,0.3l-2.3-0.5l-1.6-1.5l-0.5-2.9l1,0.6l0.6-2.2l0.8-0.2l1,0.7l1.1,0.5l3.1-0.2l1.5-0.5l1.2-0.9l1.2-1.2l0.9-0.6l2.2-1l2-1.9
			l0.7-0.3l0.6,0l0.5-0.3l0.2-1.2l-0.4-0.4l-0.2-0.1l-0.1-0.2l-0.3-0.6l2.2-1.6l7.1-6.1l1.3-0.8l0.9,1.1l4.1,6.4l2.3,2.7l3,2.1
			l1.9,0.8l0.1,0.5l-0.4,1.2l0,0.2l0.2,0.1l0.2,0.2l-0.2,0.4l-0.3,0.1l-0.2-0.1l-0.2-0.2l0-0.2l-0.4,0.3l-0.3-0.1l-0.2,0.1l-0.2,1
			l0.6,1.7l1.6,0.7l2,0.3l1.8,0.5l-2.2,0.4l-6-0.3l-1.3,0.2l0.2,1.3l1,3.8l1.2,2.4l0.1,1.6l-0.2,1.6l-0.3,1.5l-1.5-4.3l-1.2-1.8
			l-1.9-0.8l1.3,4l-0.2,1.5l-1.7,0.1v0.7l0.7,0.2l0.6,0.4l0.6,0.5l0.6,0.7l-0.5,0.9l-1.5,1l-0.4,0.6l0,1.2l0.8,1.6l0.2,1.2l0,1.9
			l0.4,0.3l0.9,1l0.7,0.5l1,0.3l2,0.1l3.1-1.2l0.9,0l0.8,0.6l-0.3,0.5l-3.4,2l-1.8,0.7l-1.2-0.1l-3.1-1.2l1.5,1.6l1.1,2.3l4.4,13.7
			l-1.6-0.5l-0.9-0.9l-1-0.4l-1.9,1l-0.6-0.5l-0.3-0.6l0-0.7l0.3-0.8l-1.4-0.3l-1-2.5h-1.1l-2.6,1.3l-1.2,0.8l-1.2,1.3v0.6l0.6,0.1
			l2.6-0.4l1.3,0.3l-0.7,0.7l-1,0.7l-0.7,0.7l0.4,0.7l1.2,0.7l0.3,0.3l-0.1,0.5l0.1,3.9l0.3,1.2l0.9,0.5l0.6-0.5l0.1-1.1l-0.1-1.3
			l0.1-1l0.5,0.7l0.6-1l0.7-0.9l0.8-0.7l0.9-0.5l1.2-0.2l3.4,0.8h4.6l1.6,1.1l-0.2,2.8l-0.7,1.1l-0.7,0.6l-0.4,0.8l0.3,1.8l0.4,1.2
			l0.4,0.6l0.5-0.1l0.7-1l2-10h0.5l1.6,4.3l0.6,2.1l-0.1,2.4l1.7-0.4l1.9-0.1l0.9-0.7l-1.2-2.2l-0.3-1.5l1.7-0.4l2.3,0.3l1.5,0.6
			l0.9,2.1l-0.8,4.2l0.9,1.6l1.1,0.3l0.9-0.4l0.8-0.6l1.2-0.4l1.7-1.2l0.4,0.2l0.4,0.4l0.4,0.1l2.4-1.1l0.7-0.2l0.8,0.3l1.6,1.3
			l0.9,0.3l0.6,0.4l2.6,3.3l0.5,0.9l-4,2.1l-2.4-1.5l-1.6,3.5l-1.6,5l-0.4,6.4l-6.7,1l-8.3,2l-7.9,2l-6.3,2l-4.3,3L1701.4,316.5z"/>
	</g>
	<g>
		<path fill="#ADADAD" d="M1787.4,255.3l-0.5,0.2l-0.5,0.1l-0.5,0l-0.5,0l-0.3,0l-0.6-0.2l-0.9-0.4l-0.2-0.3l0.1-0.4l0.2-0.4
			l0.1-0.3l0.1-0.3l0-0.3l-0.1-0.3l-0.5-0.4l-0.6-0.2l-0.6-0.4l-0.4-1l2-0.6l0.5,0.7l0.8,2.4l0.8,0.1l0.6,0.3l0.5,0.6L1787.4,255.3z
			 M1697.4,447.9l0.1-0.3l1.1-0.3l-0.5-1.7l0.2-1.4l0.5-1.4l0.3-1.6l0.2-16.2l0.6-3.5l2.6-5.9l0.9-3.3l0.6-3.6l0.4-5.5l0.7-3.3
			l0.1-2l-0.4-1.7l-0.6-1.7l-0.4-1.6l0.3-1.4l1.2,0.6l1.4,0.1l1.4-0.3l1.2-0.5l0.1,1l0.4,0.9l0.5,0.7l0.5,0.5h0.5v-1.3l1.1,0.8
			l0.9,1.2l1,0.7l1.5-0.8l-0.6-0.4l-1.5-1.6l1.9-0.7l2.3,0.3l2.1-0.1l1.3-2l-1.4,0l-0.6,0.2l-0.6,0.5l-0.5-0.7l0.2-1.8l-1.5-1.4
			l-2-0.6l-1.5,0.4l-0.5,1.1l-0.3,0.9l-0.5,0.6l-1.2,0.2l-0.7-0.6l-0.1-1.3l0.2-1.5l0.3-1l0.7-1l0.6-0.3l0.7-0.1l0.9-0.4l2.3-2.6
			l1.2-0.9l0.1-1.8l-0.9-1.6l-1.7-0.2l-1.2,1.6l-0.6,2.2l-0.9,1.2l-2-1.5l-0.3-1.7l0.5-8.8l2-4.4l3.5-1.3l4.1,0l3.9-0.6l-0.3-0.8
			l-0.5-0.6l-0.6-0.4l-0.7-0.2l1-0.8l0.8-1.1l0.3-1.3l-0.5-1.4l-3,1.9l-0.4,0.4l-0.3,1l-0.4,0.4l-0.3-0.1l-0.4-0.3l-0.5-0.2l-2.2,1
			l-1.3-1.5l-4.7-18.2l-4.2-10.2l-0.8-4.2l0-1l0.7-1.1l0.8-0.5l2.1-0.6l0.8-0.5l0.8-1.7l0.6-2.1l1-1.8l1.8-0.7l0.2-0.4l-0.4-0.7
			l-0.8-0.4l-1,0.5l-0.7,0.6l-1.4,0.9l-0.6,0.6l-2.1,3.8l-1,0.5l-1.6-1.4l-1.1-1.7l-1.4-3.3l4.3-0.7l4.3-3l6.3-2l7.9-2l8.3-2l6.7-1
			l0.4-6.4l1.6-5l1.6-3.5l2.4,1.5l4-2.1l0.4,1.1l0.2,1.3l-0.1,2.1l-0.9,6.4l0.3,2.1l0.8,2l1.1,1.7l1.1,1.4l2.6,1.5l3.3,0.1l3.3-0.9
			l2.8-1.4l0.6-0.6l0.2-0.6l0.4-0.5l1-0.2l0.6,0.4l0.2,1l-0.1,2.1l0.4,1.8l1,1.1l1.3,0.2l1.3-0.9l-1.1-0.3l-0.8-1l-0.4-1.4l-0.3-2.9
			l-0.7-2.4l-0.2-1.2l-1.3-2.8l-0.2-1.3l0.1-4.8l-0.4-1.1l-0.3-0.7l-1.7-5.6l-0.5-1.1l-0.7-1.1l-0.9-0.9l-1.8-1.3l-0.8-0.8l-0.4-1
			l-0.2-1l-0.4-0.9l-0.9-0.9l1.5-0.6l1.8,0.3l1.6,0l1.1-1.5l-2.4,0.1l-1.1-0.2l-1-0.6l0.9-0.3l0.9-0.2l0.8-0.4l0.5-0.9l-0.6,0
			l-0.5-0.2l-0.4-0.3l-0.5-0.2l3.7-1l1.2-1.1l-0.4-2.2l-1.2,0.8l-0.4,0.4l-0.5-0.9l-0.4-0.9l0-0.9l0.5-0.9l-1.7-2.8l0.5-2.4l0.9-2.2
			l-0.4-2.1l-0.6-0.3l-0.8-0.1l-0.7-0.3l-0.3-0.8l-0.2-0.2l-1.3-1.9l-1.3-0.7l-2.7-1l-1.2-1.1l-0.6-1.2l-0.4-1.5l-0.2-3.5l0.6-1.3
			h1.5l1.8,0.3l2.4-0.5l0.5,0.5l0.3,0.7l0.4,0.8l0.3,0.7l0.2,0.3l0.3,0.3l0.6,0.3l1.5,1.4l0.7,0.1l1.9-2.2l1.3,1.7l0.8,2.3l-0.1,2.3
			l-1.6,1.8l1.5,1.2l1.7,0l1.3,0.4l0.5,2.4l0.2,2.3l-0.2,1.2l-0.8-0.4l-1-0.8l-0.7,0.2l-0.2,0.8l0.4,1l0.8,0.4l2.1-0.3l0.8,0.3
			l0.5,1l-0.3,1l-0.5,0.9l-0.2,0.9l0.5,2.6l1,0.3l3-2.3l-1-0.5l-0.4-0.1l0.5-0.8l0.9-0.3l1,0.2l0.8,0.6l0.9,0.4l1.1-0.5l1.8-1.5
			l1.3-0.5l1-0.1l0.9,0.4l1,1.1l0.8,0.2l1-0.6l0.8-0.1l0.1,1.5l-0.4,1.2l-0.7,0.3l-2.1-0.3l-0.4,0.4l-1.4,2.7l-1,0.6l-1.9,0.8
			l-0.9,0.8l-1.2,1.6l-1.1,1.9l0.9,0.7l-0.1,0.7l-0.3,0.7l0.2,0.7l0.8,0.8l0.9,0.6l0.6,0l-0.1-1l1.2-1l-0.6-2.9l1-1.2l1.6,0.8l3-0.7
			l1.7,1.4l0.3,1l-0.1,2.4l0.3,1l1.1,1.5l0.3,0.7l0.3,1.2l0.4,4.4l-0.2,2.9l0,0.5l0.1,0.9l-0.5,1l-0.6,1l-0.3,0.9l0.4,0.6l0.8-0.5
			l0.8-1l0.5-0.8l1.3,1.7l-0.2,2.3l-1.1,2.4l-1.2,2.1l-0.1,0.8l0.7,0.3l1,0.2l0.6,0.3l0.2,1.1l-0.1,2.7l0.4,1.2l-0.7-0.5l-0.5-0.7
			l-0.4-0.9l-0.3-1h-0.6l0.3,2.3l0.5,2l0.1,1.6l-1,1l2.5,1.2l0.9,0.9l0.7,1.7l0.7,3.6l0.3,3.7l0.1,0.7l-3,1.2l-0.3,3.4l-1.5,2.5
			l-1.3,0.6l-0.3,1.6l1.7,1.5l-0.2,1.2l-2.4-0.7l-2.2-1.2l-0.9,1.3l-0.6,1.5l1,1.1l0.8,1.7l-0.6,1.5l-0.2,2.1l1.2,2.5l0.1,2.7
			l1.4,3.3l1.8,2.9l2.6,6.4l0.9,7.5l0.5,1.2l2,2.5l0,2.1l-0.6,2.1l1.1,3.9l0.8,1.5l1.2,0.3l1.3,0.1l2.4,1.1l0.8,2.6l1.7,1.7l2.2,1.3
			l5.3,0.9l3.2,3.1l1.1,1.5l0,2.1l0.9,3.9l0.6,4l1,2.6l1.3,2.1l0.7,1.5l0.8,1.2l11.2,5l1.9,1.8l0.7,3.7l-1.6,7.4l-1.4,2.5l-4.4-2.1
			l-1.3,1l-0.5,2l-0.8,2l-1.6,0.8l-1.8-0.1l-1.1-0.7l0.2-1l0.5-1.1l1.2-1.3l0.4-0.8l0.2-1.1l-0.3-1.1l-0.8-0.8l-1-0.4h-1l-0.7,0.3
			l-1.2,1.1l-0.7,0.5l-1.2,0.5l-1.2,0.2l-2.4,0l-0.4-0.4l-1.5-1.9l-1.5-0.9l-1.4-1.3l-1.9,1.9l-0.9,1.2l-0.7,1.4l-1,0.3l-1.1,0.2
			l-0.7,2.1l0.8,2l4.2,1.1l6.1,2.5l1.1,1.4l-1.7,4l-0.8,3.7l2.9,3.5l1.7,3.5l-1.3,1.4l-1.6,0.6l-4.9-1.9l-1.5-0.1l-0.7,2.1l-0.5,3.1
			l0.8,1.3l1.8,3.8l2.1,3.5l1.9,1.8l2.3,0.5l1.7-1l1.2,1.3l1.4,8.6l-3.4,5.8l-3.7,4.5l-2-0.6l-4.3,1.5l-5.6-0.2l-3.2,0.4l-0.4,0.3
			l-0.2,0.5l-1.9,2.4l-2.9,1.1l-0.9,1.1l-0.5,1.2l-0.8,1.3l-0.6,1.4l-0.3,1.5l-0.9,1.1l-2.9,1.5l-3-0.4l-6.7,0.1l-6.3-1.9l-0.3-3.7
			l1.7-3.5l1.6-4l0.9-4.3l-0.6-1.9l-0.9-1.5l0.4-2.2l1.3-1.8l1.3-2.6l0-2.1l-2.4-0.2l-2.4,0.4l-2.6-1.5l0.6-3.4l0.6-1.2l-0.1-1.5
			l-1.4-1.7l-0.4-2.3l1.4-2.6l0-2.7l-2.1-1.8l-1.3-2.6l2.6-4.1l1.6-3.9l0.9-3.1l2.1-2.4l1.2-2.7l-0.9-1.1l-2.1,1.4l-2.3,0.7l-3-1.4
			l-2.5-1.7l-4.5,0l-4.4,1l-1.7,0.1l-1.2-1.1l-1.5,1l-0.4,1l-0.1,1.1l-0.7,0.3l-1,0.5l-1.2,1.1l-2.9,1.6l-1.8,0.2l-2.9-0.6l-3-0.1
			l-0.8,0.5l-0.6,0.5l-0.8-0.4l-0.8,0.2l-1.5,1.3l-1.7,0.8l-4.6,0.9l-0.6,1.2l0.4,1.8l-1.8,3l-0.2,0.8l0.1,0.8l-2.8,1l-2.6,1.6
			l-2-1.3l-1.3-1.5l-0.9-0.8l-1-0.3l-1.5,0.4l-6.4-0.4L1697.4,447.9z"/>
	</g>
	<g>
		<path fill="#DBDBDB" d="M1516.5,32.6l0.4,0h0.5l0.1,0.3l-0.3,0.3l-0.7,0l0,0.3l0.2,0.5l0,0.3l0.3,0.2l-0.2,0.1l-0.3,0.1l-0.5,0
			l-0.4-0.3l-0.3-0.4l-0.4-0.4l-0.4-0.4l-0.1-0.5l0.1-0.2l0.3,0.1l0.4,0.2l1,0.2l0.3-0.2L1516.5,32.6z"/>
	</g>
	<g>
		<path fill="#F0F0F0" d="M1819.5,647.1l-2.6,6.4l-1.2,4.6l-1.1,1.9l-3.6,1.5l-1.5,1.8l-1.3,2.2l-0.8,2l-2.3,8.8l-1.6,3.7l-7.4,10.4
			l-11.2,9.2l-2.7,2.9l-3.7,2.7l-4.3,2.2l-16.1,12.7l-5,2l-1.2,0.9l-2.4,2.8l-1.2,0.5l-5.6,0.5l-1.2-0.6l-0.7-3.1l-1.2-1l0.4-1.5
			l-0.3-1.1l-0.6-1l-0.5-1.2l-0.1-1.4l1.2-7.3l-0.3-1l-0.8-0.7l-8.8-3.4l-2-0.2l-1.9,0.5l-1.7,1.2l-3.6,3.9l-0.7,0.5l-0.8,0.1
			l-1.2-0.3l-1.6-1.2l-1-1l-0.1-0.8l1-1.9l-0.1-1.6l-0.5-1.8l-0.1-2.4l0.6-2.1l1.6-3.8l0.3-2.5l-0.8-2.2l-1.9-0.6l-2.2,0.4l-1.5,0.7
			l-1.2,0.9l-0.9,1l-0.6,1.2l-0.4,1.6l3.4,0.9l1,0.9l-0.5,2.2l-0.5,0.8l-0.7,0.6l-0.8,0.2l-0.8-0.6l-0.8-0.3l-0.8,0.6l-0.9,0.9
			l-1,0.5l-3.3-0.7l-3.6-1.9l-2.7-2.8l-0.7-3.4l0.8-1.9l1.3-0.7l3.3-0.7l1.2-1.1l2.8-3.5l1.9-1.7l1.8-4.1l1.1-0.9l1.6-0.7l1-1.1
			l0.7,0l1,2.5l0.9-0.9l0.4-0.9l0-1l-0.3-1.3l-0.4-0.3l-0.9-1.2l-0.5-1.3l0.6-0.6l0.8-0.4l1.3-1.8l0.9-0.4l0.8-0.3l0.9-0.7l0.8-0.9
			l0.6-0.9l0.5-1.2l0.2-1l0.2-2.4l1.5-4.4l0.7-1.5l4.3-4.8l1.9-3.3l2.3,0.1l7.7-1.6l9.5,0.3l5.5-1.5l0.3,0.1l3.7,1.3l2,0.7l11.6-1.3
			l11.4-1.8l14.2-2l9.9,0.4l6.7,1.6l2.2,3.2L1819.5,647.1z"/>
	</g>
	<g>
		<path fill="#C7C7C7" d="M1730.1,646.4l2.2-3.7l3.4-7.7l2-6.6l0.8-1.7l0.6-2l0.3-5.4l0.4-2.2l0-0.5l-0.1-0.6l0-0.6l0.2-0.2l0.5,0
			l0.7-0.1l0.5-0.3l-0.5-1.5l-0.2-1.5l-0.1-1.4l0.1-0.8l0.6-1.7l0.9-5.5l0.3-3.8l-0.1-1l-0.4-0.8l-1.2-2.3l-0.9-6.3l-1.4-5.2l-1-2.5
			l-1.1-2.2l-5.6-5.8l-1.5-2.7l-6.7-7.7l-5.1-3.2l-4.1-1.9l-1.9-0.4l-3.2,0l2-3.7l1.5-1.6l1.9-1.1l1.8-2.2l2.1-1.8l1.6-0.6l1.2-1.6
			l-0.2-1.3l0-1.8l0.3-0.7l0.7-0.3l1.6-0.5l1.4-1.2l-0.5-0.9l-0.6-0.8l0.1-4.4l1.1-4.3l-0.7-2.8l-1-2.9l-3.4-3l-2.2-2.7l-0.6-1.9
			l-0.1-2.1l0.4-0.9l0.3-1l-0.4-1.4l-1.5-0.8l-3.3-2.3l0.2-1.3l0.8-1.4l1.2-3.1l2.1-2.2l1.7-0.3l1.3-0.6l1.5-3.3l6.2-8.1l0.9-0.3
			l1.2,0.4l0.9-0.6l-0.8-1.6l-1.5-1.3l-4.8-1.2l0-2.9l-1.1-2.4l-3-0.6l-1.6-1.9l-0.7-2.6l0.2-3.1l-1.2-2.2l-2.5,1.2l-2-3.1l-0.7-3.6
			l1.6-3.3l0.3-0.4l0.4-0.4l1.5-0.5l1.3-0.8l2.6-1.6l2.8-1l-0.1-0.8l0.2-0.8l1.8-3l-0.4-1.8l0.6-1.2l4.6-0.9l1.7-0.8l1.5-1.3
			l0.8-0.2l0.8,0.4l0.6-0.5l0.8-0.5l3,0.1l2.9,0.6l1.8-0.2l2.9-1.6l1.2-1.1l1-0.5l0.7-0.3l0.1-1.1l0.4-1l1.5-1l1.2,1.1l1.7-0.1
			l4.4-1l4.5,0l2.5,1.7l3,1.4l2.3-0.7l2.1-1.4l0.9,1.1l-1.2,2.7l-2.1,2.4l-0.9,3.1l-1.6,3.9l-2.6,4.1l1.3,2.6l2.1,1.8l0,2.7
			l-1.4,2.6l0.4,2.3l1.4,1.7l0.1,1.5l-0.6,1.2l-0.6,3.4l2.6,1.5l2.4-0.4l2.4,0.2l0,2.1l-1.3,2.6l-1.3,1.8l-0.4,2.2l0.9,1.5l0.6,1.9
			l-0.9,4.3l-1.6,4l-1.7,3.5l0.3,3.7l6.3,1.9l6.7-0.1l3,0.4l2.9-1.5l0.9-1.1l0.3-1.5l0.6-1.4l0.8-1.3l0.5-1.2l0.9-1.1l2.9-1.1
			l1.9-2.4l0.2-0.5l0.4-0.3l3.2-0.4l5.6,0.2l4.3-1.5l2,0.6l0.4,4.5l2.2,3.4l4.9,1.4l0.8,1.9l0.3,1.8l0.4,0.6l0,0.8l-1.5,1.3
			l-0.3,1.4l-0.6,1.3l0.4,1.2l1.7,0.7l2,1.7l-0.9,2.4l-0.3,2.9l0.3,5.4l-1.6,1.1l-2.4,0.7l-2.3,1.1l-3.4,4.5l-1.5,1l-1,1l0.8,0.6
			l0.9,0.2l0.4,1.2l-0.4,1.5l0.8,2.4l1.1,2.1l-0.3,0.6l-0.6,0.2l-0.4,1.1l-0.1,1.3l-3.4,12.2l-0.8,6.4l-1.6,7.3l-0.1,0.7l0.3,1.1
			l1.3,1.7l1.5,0.4l4.8-0.2l4.4,3.8l1.1,0.7l1.2,0.2l0.6,0.2l0.5,0.3l0.5,1.2l-0.2,1.3l0.3,1.4l0.8,1.1l2.5,2.5l0.2,1.8l-0.5,1.6
			l0,2.6l2,5.1l0.3,3l-0.5,3.3l-0.1,2.9l2.2,2.5l2.6,1.8l7.8,0.7l2.2,1.2l2.9,2.7l-0.1,0.8l-1.2,2.2l-1.8,0.1l-1.8-0.4l-1.4,0.5
			l-4.3,7l-4.4,4.4l-0.6,1.2l-0.1,1l-0.3,1.1l-0.4,1.1l-1.5,2.8l-0.5,0.3l-1.2,0.2l-0.5,0.4l-0.5,0.9l-2.8,7.2l-1.7,2.8l-2.5-1.4
			l-2.2-3.2l-6.7-1.6l-9.9-0.4l-14.2,2l-11.4,1.8l-11.6,1.3l-2-0.7l-3.7-1.3l-0.3-0.1l-5.5,1.5l-9.5-0.3l-7.7,1.6L1730.1,646.4z"/>
	</g>
	<g>
		<path fill="#DBDBDB" d="M1708.7,556.8l-2.7,0l-5.9-2.2l-4.5-0.5l-1.9-0.5l-1.8-1.2l-7.8-7.4l-1.4-1.8l-4.3-6.8l-3-3.2l-3.7-2.1
			l-3.9-1.3l-12.5-2l-4.2-1.5l-9.9-7.4l-2.7-2.9l-2.2-3.8l-1.4-4.4l-0.4-4.3l0.4-4.3l1-4.5l2.2-4.2l3.3-2.7l7.5-3.4l18.7-11.8
			l1.6-0.5l9.7,0.7l3.5-1.2l3.2-2.4l8.8-9.2l1.1-2l0.6-3.4l0.7-2.2l0.2-1.2l0-2.9l0.3-0.7l5.2,2.7l6.4,0.4l1.5-0.4l1,0.3l0.9,0.8
			l1.3,1.5l2,1.3l-1.3,0.8l-1.5,0.5l-0.4,0.4l-0.3,0.4l-1.6,3.3l0.7,3.6l2,3.1l2.5-1.2l1.2,2.2l-0.2,3.1l0.7,2.6l1.6,1.9l3,0.6
			l1.1,2.4l0,2.9l4.8,1.2l1.5,1.3l0.8,1.6l-0.9,0.6l-1.2-0.4l-0.9,0.3l-6.2,8.1l-1.5,3.3l-1.3,0.6l-1.7,0.3l-2.1,2.2l-1.2,3.1
			l-0.8,1.4l-0.2,1.3l3.3,2.3l1.5,0.8l0.4,1.4l-0.3,1l-0.4,0.9l0.1,2.1l0.6,1.9l2.2,2.7l3.4,3l1,2.9l0.7,2.8l-1.1,4.3l-0.1,4.4
			l0.6,0.8l0.5,0.9l-1.4,1.2l-1.6,0.5l-0.7,0.3l-0.3,0.7l0,1.8l0.2,1.3l-1.2,1.6l-1.6,0.6l-2.1,1.8l-1.8,2.2l-1.9,1.1l-1.5,1.6
			L1708.7,556.8z"/>
	</g>
	<g>
		<path fill="#F0F0F0" d="M1689.6,219.1l-0.8,0.8l-1,0.6l-1,0.3l-0.3,0l-0.7,0.1l-0.7,0.4l-1.7,1.7l-0.8,0.5l-0.6-1.1l-1.2,0.8
			l-1.4,1.4l-1.3,0.7l-1.8-0.4l-1-0.4l-0.6-0.5l-0.4-1.6l0.7-0.4l2.1,0.7l1.2,1.2l0.5,0.1l0.4-2.3l1.1-2.9l1.7-2.2l0.5-1l0.1-0.6
			l0.1-0.8l0.3-1.3l1.2,0.6l0.9-0.1l0.2-0.8l-0.9-1.4l-0.7-0.5l-2.8-0.8l0.4,2.8l-1,3.1l-1.8,2.5l-2.1,1l1.1-1.5l0.4-0.4l-0.8-0.3
			l-0.8,0.1l-0.6,0l-0.2-0.8l-0.2-1.4l-0.5-0.3l-0.6,0.2l-0.7-0.1l-0.8-0.3l-0.5,0l-0.2-0.3l-0.1-1.3l0.1-1l0.3-0.9l0.7-1.8
			l-1.2,0.1l-0.8,0.6l-1.5,1.8l0.3-2.5l-1.1-0.1l-3.2,2.6l0.8,0.7v2l1,0.4l1.3,0l0.9,0.2l0.7,0.5l0.8,1.2l-0.5,1.3v0.9l0.7,0.4
			l0.5-0.2l0.4-0.4l0.6-0.9l0.7,0l0.8,0.8l1.3,2l-2.6,0.7l-0.4,0.2l-0.2,0.9l-0.4,0.5l-0.6,0.2l-0.7,0l-0.6-0.3l-1-1.3l-0.7-0.3
			l-0.8-0.1l-0.5-0.3l-1.8-2.6l-0.6-1.3l-0.8-1.3l-1.3-1.2l-1.4-0.3l-3.5-0.1l-0.7-0.5l-0.5-0.9l-1.1-1.2l-1.3-1l-1-0.4l-1.2-0.7
			l-0.5-1.7l-0.1-3.5l-0.5-1.4l-2.1-2.2l-0.8-2.7l-0.9-1.1l-2.3-1.7l2.7-2.5l0.7-1.4l-0.3-2.3l-0.4-0.6l-0.8-0.8l-0.8-0.6l-0.5,0
			l-0.1,1.2l0.5,0.9l0.7,0.6l0.4,0.4l-0.4,2l-2.8,1.5l-0.3,1.5l3.8,5.3l0.5,0.9l1.5,0.9l0.6,2.1l0.3,2.4l0.6,1.7l0.5,0.8l0.9,2
			l0.6,1l0.7,0.5l0.9,0.4l0.8,0.6l0.6,1.8l0.7,0.6l0.7,0.6l0.6,0.5l4,6.2l0.9,0.5l1.1-0.2l1.1,0l0.7,1.1l-1.5,0.7l0.7,1.1l1.5,1.5
			l0.8,2l-0.6,1.9l-1.4,1.2l-3.4,1.5l-3.5,0.1l-1.7-3.2l-2.3-8.8l-9.5-13.1l-2.6-5.3l-16.5-22.3l-16.5-22.3l-0.5-1.7l0.5-1.5
			l2.4-3.3l0.6-1.5l0.2-2l0.5-2.1l0.9-1.2l1.4,0.7l0.4-0.9l0.1-0.4l0.7,0.8l0.7,1l0.8,0.9l1,0.4l0.2-0.6l-0.1-3.1l0.2-1.2l2,3.1
			l0.4-1.5l0-1.8l0.3-1.7l1.3-1.2l0.7,0l0.4,0.4l0.5,0.2l0.9-0.6l0.3-0.6l0.5-1.9l1.2-2l-2.7,0.8l-0.8-0.3l0-1.1l-0.1-0.7l-0.3-0.4
			l-0.8-0.1l-0.3,0.5l0,3.3l-0.8-1.3l-1.2-4.2l-1.3,1.3l0.3,1.6l0.9,1.7l0.6,1.4l-0.4,1.6l-1.2,0.8l-1.4,0l-1.9-1.2l-0.7-0.1
			l-0.4,0.3l0.7,1.8l-0.5,0.4l-0.8,0.2l-0.6,0.3l-0.7,0.4l-0.5-0.3l-0.9-1.4l-0.6,0l-0.8,0.5l-1.4,1.1l0.6,1.3l-0.5,0.6l-0.9,0.4
			l-0.7,0.8l0,0.5l0.2,0.5l0.2,0.3l0.1,0l-0.2,6.7l-0.2,0.7l-0.7,0.1l-0.6-0.6l-6.3-8.8l-0.9-2.4l0.4-1.5l2.5-2.9l-0.5,0l-1-0.1
			l-0.5,0l1.5-1.7l0.6-0.9l0.4-1l-2.2,0.4l-1.3,1.4l-0.8,2.1l-0.7,2.3l-0.8-0.7l-2.3-2.7l-0.4-0.9l0.6-0.7l2.6-1.9l0.9-1.1l-1.1-0.3
			l-2.1,1.2l-1.4,0.3l-1.3-0.4l-1-0.9l-1.7-2.3l-2.9-3.1l-0.5-1.2l0.2-1.8l1-0.5l1.4,0.3l1.3,0.7l2.4-3.3l1.4-4.2l0.3-4.6l-1-4.5
			l-2.3-5.6l-1-1.5l-4.4-4.5l-1.3-1.9l-2.3-5.8l-0.9-0.9l-1.3-0.7l-14.9-19.8l-3-2.6l-6.2-3.8l0.7-0.7l0.5-0.7l0.8-1.6l-0.1-0.7
			l-0.1-1.4l0.3-0.9l1.2,0.8l1.7,0.9l4.3,0.2l1.8,1.1l0.9-1l2.3-0.5l2.2-1.5l8.3,0.7l1.3-0.2l0.8-0.7l0.8-0.9l0.8-0.2l1.1,1.2
			l-2.1,1.3l-0.6,1.8l0.1,4.8l-0.2,1.2l-0.3,0.7l-0.6,0.4l-1.2,0.1l-0.4-0.5l-0.3-1.1l-0.5-1.1l-1-0.4l0.1-0.4l0.2-1l0.1-0.4
			l-1.5-0.5l-0.5,0.2l-0.5,2.2l-0.2,2l-0.5,0.6l-1.2-0.8l-0.1,0.9l-0.3,0.7l-0.5,0.5l-0.7,0.4l0.7,0.8l2.3,1.7l0.2-1l0.4-0.8
			l0.6-0.6l0.8-0.2l-0.4,1.3l-0.2,0.6l-0.4,0.6l0.8,0.5l0.7,0.1l0.6-0.4l0.4-0.9l0.4,1.1l0.1,1.2l0,5.1l0.3,0.6l0.7-0.6l0.8-2.1
			l0.2-2.6l-0.4-2.6l-1.1-1.9l1.9,1l1.1,4.4l0.7,5.2l0.8,3.5l2.4,2.7l3,2.7l2.5,3l0.7,3.7l-3.6-4.3l-1.5-1.2l0.3,3.2l3.1,3.1
			l9.8,5.8l-0.2,1l-1.6,1.9l-0.5,0.8l-0.2,0.9l0,3.7l0.2,0.5l0.5-0.1l0.8,0l2.4,0.7l0.6,0l0.6-0.8l0.2-1.1l0.4-0.9l1.1-0.4l0.9-1.1
			l-0.2-2.5l-1-4.3l0.4-2l1.4-0.6l1.8-0.3l1.7-1.1l0.5-1.2l-0.2-1l-0.3-0.9v-0.6l0.8-0.8l0.6,0l0.5,0.6l0.4,1.1l0.1,0.8l-0.1,0.8
			l-0.5,1.4l2.2-1.1l0.8-0.2l-0.4,0.9l0.2,0.7l1.1,1.4l-3,1.3h-3.1l-0.7,0.3l-0.5,1.4l0.4,1.7l0.7,1.6l0.7,1.1l1,1.4l1.2,1.2
			l1.4,0.8l1.6,0.3l3.6-0.4l1.4,0.5l1.4,1.8l0.8-1.4l0.2-0.4l-0.8-1l-0.9-0.9l-0.7-1l-0.1-1.4l0.7-1.5l1-0.1l1,0.9l0.8,1.4l0.9-0.9
			l1-0.1l0.8,0.5l0.8,2l1,0.4l2.2,0l0.2-0.2l0.2-0.4l0.3-0.4l0.6-0.2l0.7,0.2l0.1,0.5l0,0.6l0.2,0.5l0.4,0.6l0.2,0.6l0.3,0.5
			l0.6,0.2l0.6,0.1l0.5,0.1l1,0.4l-0.9,0.5l-0.4,0.8l-0.3,0.9l-0.4,0.8l-1.6,1.2l-0.7,0.8l0.1,0.8l2.5,2.2l1.5-0.1l0.3-0.3l-0.1-0.6
			l0-0.8l1.5-3l0.1-0.5l-0.2-1.3l0.1-0.5l0.5-0.5l1.2-0.2l1.3-0.7l1.1-0.1l2.1,0.2l-0.2,0.5l0.6,1l1.3,1.5l3,2.3l1.1,1.4l0.5,2.2
			l1,1.6l2.3,0.4l4.2-0.5l1.8,0.5l1.8,1.2l1.4,1.8l0.6,2.3l-3,1l-0.8-0.3l-0.2-0.8l-0.1-1l-0.3-0.9l-0.4,0.1l-0.6,0.5l-0.8,0
			l-0.9-1.2l-1.8,1l-0.7,0.6l0.7,0.6l1.4,2.1l-2.5,0.3l-0.2,1.3l1.1,0.9l1.6-0.7l0.7,0.6l0.8,0.2l0.8-0.2l0.7-0.6l0.9,1.4l-0.2,1.2
			l-0.5,1.1l-0.2,1.1l0.5,1.1l2.8,2.9l0.4,0.8l0.2,1.1l0.2,2.4l0.2,0.3l0.5-1l0.5-1.4l0.2-1.2l1.4,0.8l0.8,0.3l0.8,0.1l-0.2-0.4
			l-0.2-1l-0.1-0.4l1.1-0.1l0.6,0.5l0.5,0.6l0.6,0.3l0.7-0.4l0.2-0.9l-0.2-0.9l-0.6-0.4l-1.6-0.2l-2.1-0.6l-1.8-0.9l-0.7-1.4
			l0.5,0.6l1-1l1.7-0.1l3.7,0.5l-0.4-0.9l-0.2-0.3l0.8-0.1l1,0.1l0.7,0.3l0,0.3l0.8-0.5l0.1-0.3l0-0.4l0.4-0.9l2-2.2l2.3-1.9
			l0.6,2.2l-0.6,1.8l-1,1.8l-0.5,2.1l0.6,2.1l1.2,0.9l1.6,0.2l1.6-0.1v0.6l-0.7,1.3l2.2,2.7l-1.1,1l-0.4-0.3l-2.1-2.2l-2.3-1.8
			l-0.7-0.7l1.2,2l2.7,6l1.6,1.3l1.5,0.2l1.5,0.4l-0.1-0.1l0.1-0.3l0.2-0.2l0.3,0l0.3,0.3l0.3,0.8l0.2,0.2l0.6,0.7l1.7,3.2l0.4,1.1
			l-2.9,0.4l0.3,1.1l3.8,3.1l3.5,3.8l0.6,2.1l-1,3l-1.1-0.6l-3.3-0.5l-1.3-0.1l-0.8,0.5l1.2,1l2.8,1.5l-0.4,0.1l-1.1,0.6l1.9,0.4
			l0.8,0.4l0.3,0.8l-0.3,0.9l-0.6,0.6l-0.8,0.4l-0.8,0.2l4.3,2.7l0.8,1l0.1,1.1l-0.5,2.2l0.2,0.8l1.7,3.4l-2,0.5l-1.5-0.9l-1.4-1.5
			l-1.6-1.1l0.5-1.7l-2.1-0.6l0.1-1.5l-1.1,0.1l-1.9,0.8l-1.1,0.3l-0.5-0.1l-0.8-0.8l-0.5-0.2l-0.5,0.3l-0.4,1.3l-0.3,0.3l-1.2,0
			l-0.1-0.2l0.2-0.7l0-1.6l-0.2-1.3l-0.4-1.1l-0.6-1l-0.8-0.9l-0.3,2l0.3,4.9l-0.3,1.5l-0.4,0.9l-0.1,1.2l0.2,1.1l0.5,0.7l1.1,0.2
			l0.6-0.8l0.4-1.2l0.6-1l1.3-0.2l4.9,0.6l1.6,0.6l1.2,1.6l-0.3,1.8l-1.2,1.8l-1.6,1.6l1.2,1.3l0.3,2.2l-0.1,2.3l0.1,1.6l0.9,1.1
			l3.3,2.4l1.4,0.7l0.9,0.2h1.8l0.8,0.5l0.7,1.2l-0.1,0.8l-0.4,0.8l-0.2,1l0.4,2.1l0.8,1.1l1.1,0.9l0.3,0.4l-1.3,0.8l-7.1,6.1
			L1689.6,219.1z"/>
	</g>
	<g>
		<path fill="#F0F0F0" d="M1795.5,323.4l0.2,0.8l1.3,2.9l0.3,1.3l0.2,0.7l1,0.8l0.3,0.8l0,1.2l-0.4-0.2l-0.6-0.5l-0.6,0.1l-0.6,1.4
			l0.7,0.6l2.9,0.5l1.2,0.5l1.3,0.8l1.2,1l1,1.1l0.8,1.2l1.2,2.7l0.6,1.1l2.1,2l0.9,1.1l0.3,1.6l-2.6-2.1l-0.9-0.5l-1.1-0.1
			l-1.1,0.2l-1.1-0.2l-1.2-1.1l0.7-0.4l2.3-0.8l-2.6-1.8l-1.2-1.1l-1-1.2l-1.4-0.9l-1.9-0.1l-3.4,0.7l0.4,0.6l0.7,1l0.3,0.4
			l-0.3,0.5l-0.2,0.7l-0.1,0.7l0.1,0.7l0.5,0.7l0.4,0.1l0.4-0.1l0.2,0l0.4,0.3l0.8,0.2l0.3,0.2l0.1,0.5l-0.2,0.6l-0.3,0.5l-0.1,0.3
			l0.3,2.1l0.1,0.5l0.4,0.4l0.4,0.2l1.3,0.1l0.6-0.2l0.4-0.5l0.3-0.5l0.3-0.2l1.3,0.7l0.6,1.1l0.4,1.3l0.7,1.4l1.1-0.8l0.7,0.5
			l0.6,1l0.8,0.5l1-0.5l0.4-1l0.5-0.8l1.4,0.2l1,0.6l0.4,0.8l0.1,1.1l0,1.6l0.4,0.8l0.9,0l1.2-0.3l1.1-0.1l-1-4.5l-1.6-2.8l-0.4-1.3
			l1-0.3l1.4,1.2l2.6,4.7l1.8,1.1l2,0.5l4.4,2.2l2.1,0.5l0.8,0.4l1.8,1.7l0.9,0.4h2.2l0.4,0.4l0.3,0.6l0.5,0.3l0.9-0.6l14.6,10.7
			l3,1.4l4.6,0.8l4.4,1.7l5,0.7l4,2.6l6.8,0.9l2.8,1.5h-4.3l-0.8,0.2l0.4,0.6l3.4,2.4l0.9,0.4l1.1,0.2l0.9-0.5l0.2-1.1l-0.3-1.3
			l-0.5-1l1.2-0.3l0.7,0.4l0.6,0.7l0.9,0.5h4.8l0.2,0.2l0.8,1.4l0.4,0.3l0.3-0.1l0.3-0.3l0.4-0.2l0.3-0.3l0-0.7l0-0.7l0.5-0.3
			l0.8-0.1l2.2-0.6l6.6-0.5l1.7-1.1l1.3-1.2l5.7-3.5l2.2-1.9l0.8-1l0.3-0.8l0-2.4l1.2-2.3l0.2-0.9l0.4-0.6l3-1.7l1.1-1.6l0.8-3.4
			l0.8-1.6l1.1-1.3l0.5-0.8l0.2-1.1l0.5-0.7l7.3-2.1l1.5-0.1l1.3-0.4l1-1l1.7-2.7l1.1-0.6l3.3-0.4l1.4-0.6l1-1.1l0.2-0.9l-0.3-1
			l-0.9-1.5l2.9,0.6l3.4,0.2l0,1.5l-1.5,2.3l-4.2,1.4l-1.6,0.8l-0.2,1.1l0.3,0.8l0.7,2.7l-0.1,3l-0.6,1.8l-0.3,2.1l1.7,1.4l1.9-1.6
			l1.7,0.1l0.7,2l-2,3.5l-2.8,2.7l-3.8,7.3l-4.2,14.6l-3,4l-3.1-2l-2.9-2.4l-2.7-2.9l-2.5-0.7l-0.8,0.8l0.9,2.2l-0.1,3.6l-0.3,2.1
			l-1.5,1.7l-0.3,1.2l-0.4,1.1l-1,0.7l-1.1,0.5l-1.6,1.7l-1.8,1.4l-2,0.9l-2,0.3l-1.9,0.8l-0.6,1.4l0.5,1.7l-0.3,3.4l-1.5,3
			l-2.8,2.6l-8.8,3.7l-4.9,3.5l0.1,3.1l0.7,3.3l-1.3,2.4l-1.3,0.6l-1.8,0.6l-1,2.2l-0.7,0.9l-0.5,1l-3.5,1.3l-1,1.7l-1.4,0.7
			l-0.5-0.3l-0.9,0.3l-1.5,1.1l-1.2,1.4l-0.5,1.5l-0.6,1.3l-0.9,1.3l-1.2,1.3l-1.9-0.1l-2-0.4l-4.2-2.5l-6.2,1.7l-1.8,1l-2.1,1.5
			l-1.5,2.2l0.2,4.8l-0.5,0.9l-0.4,1l0.3,3.1l-2.8,3.8l-3.6,3.8l-1.1,2.2l0.2,2.5l0.6,1.6l-1.1,0.5l-3.6,0.5l-5.4,0l-3.6,4.6
			l0.6,3.2l0.2,2.6l-2.1,0.6l-1.7,1.3l0.8,1.9l-1.2,1.4l-5.7-1.9l-4.9-4.7l3.4-5.8l-1.4-8.6l-1.2-1.3l-1.7,1l-2.3-0.5l-1.9-1.8
			l-2.1-3.5l-1.8-3.8l-0.8-1.3l0.5-3.1l0.7-2.1l1.5,0.1l4.9,1.9l1.6-0.6l1.3-1.4l-1.7-3.5l-2.9-3.5l0.8-3.7l1.7-4l-1.1-1.4l-6.1-2.5
			l-4.2-1.1l-0.8-2l0.7-2.1l1.1-0.2l1-0.3l0.7-1.4l0.9-1.2l1.9-1.9l1.4,1.3l1.5,0.9l1.5,1.9l0.4,0.4l2.4,0l1.2-0.2l1.2-0.5l0.7-0.5
			l1.2-1.1l0.7-0.3h1l1,0.4l0.8,0.8l0.3,1.1l-0.2,1.1l-0.4,0.8l-1.2,1.3l-0.5,1.1l-0.2,1l1.1,0.7l1.8,0.1l1.6-0.8l0.8-2l0.5-2l1.3-1
			l4.4,2.1l1.4-2.5l1.6-7.4l-0.7-3.7l-1.9-1.8l-11.2-5l-0.8-1.2l-0.7-1.5l-1.3-2.1l-1-2.6l-0.6-4l-0.9-3.9l0-2.1l-1.1-1.5l-3.2-3.1
			l-5.3-0.9l-2.2-1.3l-1.7-1.7l-0.8-2.6l-2.4-1.1l-1.3-0.1l-1.2-0.3l-0.8-1.5l-1.1-3.9l0.6-2.1l0-2.1l-2-2.5l-0.5-1.2l-0.9-7.5
			l-2.6-6.4l-1.8-2.9l-1.4-3.3l-0.1-2.7l-1.2-2.5l0.2-2.1l0.6-1.5l-0.8-1.7l-1-1.1l0.6-1.5l0.9-1.3l2.2,1.2l2.4,0.7l0.2-1.2
			l-1.7-1.5l0.3-1.6l1.3-0.6l1.5-2.5l0.3-3.4L1795.5,323.4z"/>
	</g>
	<g>
		<path fill="#ADADAD" d="M1950.6,340.3l14.7,0.7l1.7,0.5l0.9,0.8l-1,1v0.6l0.9,0.4l1.3,1.4l0.8,0.7l1.2,0.5l1.2,0.2l2.6,0l0.9,0.3
			l1.4,1.3l1,0.3l2.3,0l0.9,0.2l1.1,0.5l1.2,0.9l1.6,1.7l1.1,1.9l-0.1,1.6l-0.6,0.8l-1.4,2.3l-2.8,2.9l-1.5,4.3l-1,2.3l-2.6,1.9
			l-1.1,2l-2.1,5.8l-0.8,1.5l-1.2,1.6l-0.6,0.9l-0.2,1l0.5,2.2l1.1,1.9l0.8,2l-0.4,2.4l-1.2,1.2l-1.5,1.1l-0.7,1.5l1.8,3.9l-0.2,1.9
			l-0.9,1.8l-1.1,1.6l-0.4,1.9l1,1.8l1.4,1.6l0.8,1.3l-0.2,1l-0.6,0.9l-1.2,1.3l-0.3,1.2l-0.2,2l-0.5,1.2l0.9,0.3l0.7,0.7l0.4,1
			l0,1.3l-0.5,0.8l-2.8,1.5l-0.3,0.8l0.1,6.1l-0.4,0.8l-8.3,9.2l-7.5,6.6l-1.3,0.7l-2.9-2.7l-1.9-0.4l-1.8,0.5l-1.5,1.1l-0.6,0.3
			l-0.5-0.2l-0.3,0.1l-0.1,1.1l0,0.5l0.2,1l0.2,0.4l1.4,1.5l0.6,1l-0.2,1.1l-1.3,2.3l-0.5,2.1l-0.1,4.9l-0.8,5.5l-1,2.8l-2.3-3.7
			l-3.4-0.6l-7.9-6.9l-12.1-13.8l-0.2-7.2l-6.5-4.3l-1.3,4.9l-15.6-9.4l1.3-2.4l-0.7-3.3l-0.1-3.1l4.9-3.5l8.8-3.7l2.8-2.6l1.5-3
			l0.3-3.4l-0.5-1.7l0.6-1.4l1.9-0.8l2-0.3l2-0.9l1.8-1.4l1.6-1.7l1.1-0.5l1-0.7l0.4-1.1l0.3-1.2l1.5-1.7l0.3-2.1l0.1-3.6l-0.9-2.2
			l0.8-0.8l2.5,0.7l2.7,2.9l2.9,2.4l3.1,2l3-4l4.2-14.6l3.8-7.3l2.8-2.7l2-3.5l-0.7-2l-1.7-0.1l-1.9,1.6l-1.7-1.4l0.3-2.1l0.6-1.8
			l0.1-3l-0.7-2.7l-0.3-0.8l0.2-1.1l1.6-0.8l4.2-1.4l1.5-2.3L1950.6,340.3z"/>
	</g>
	<g>
		<path fill="#DBDBDB" d="M1938.6,471.7l-0.2,3.7l-0.5,1.6l0.6,1.9l-0.6,1.4l-1,1.4l-0.5,1.9l5.1,0.6l2.4,1.2l1,2.4l-4,4.1l-1.7,4.8
			l-0.6,3l-0.9,1.1l-1.2,0.9l-1.1,1.2l-2-5.8l-0.5-3l0.1-2.8l0.4-1.6l0.6-1.5l0.6-1.4l0.7-1.1l0.1-1.1l-1-0.8l-1.4,0.1l-1,1.5
			l-0.8-0.4l-2.2-1.5l-1.1-0.4l-11.6-0.5l-11.9-0.3l-0.9-0.4l-0.7-0.6l-0.7-0.2l-1.9,1.7l-13.6,6.7l-10,4.8l-0.9,1.1l-0.3,2.1
			l-0.8,2.1l-1,1.9l-1.8,2.4l-2.6,2.9l-1.7,1.3l-0.3,0.3l-0.8,2.6l-0.9,1.2l-0.5,1.1l-0.2,1.2l-0.1,1.7l0.3,1.6l0.6,0.8l0.8,0.7
			l0.8,1.1l0.5,1.9l0.4,8.8l0.2,1.8l0.5,1.6l0.5,0l0.4,0.6l1.2,0.6l1.9,1.5l0.5,0.5l1,0.6l1.3,0l2.5-0.3l2.3,0.6l-0.3,1.3l-1.3,1.9
			l-0.8,2.3l-0.3,0.7l-0.8,0.7l-0.9,0.6l-1.7,0.7l-0.6,1.1l-1.7,6.4v0.4l0.1,0.5l0,0.6l-0.1,0.6l-0.3,0.2l-1.1,0.5l-0.4,0.3l-1,1.9
			l-2.4,8.4l-1.6,3.9l-1,1.6l-0.3,0.9l-0.1,1.3l0.1,2.4l0,0.6l-0.1,0.5l-0.9,1.5l-0.2,0.4l-1.2,3.3l-1.8,3.6l-2.9,4.3l-3.2,3
			l-0.6,0.3l-0.7-0.4l-0.6-0.7l-0.7-0.4l-0.8,0.6l-1.8,2.7l-0.6,1.6l-0.3,1.9l0.5-0.8l0.6-0.7l0.7-0.4l0.8-0.1l-4.7,9.7l-0.7,6.1
			l-2.9-2.7l-2.2-1.2l-7.8-0.7l-2.6-1.8l-2.2-2.5l0.1-2.9l0.5-3.3l-0.3-3l-2-5.1l0-2.6l0.5-1.6l-0.2-1.8l-2.5-2.5l-0.8-1.1l-0.3-1.4
			l0.2-1.3l-0.5-1.2l-0.5-0.3l-0.6-0.2l-1.2-0.2l-1.1-0.7l-4.4-3.8l-4.8,0.2l-1.5-0.4l-1.3-1.7l-0.3-1.1l0.1-0.7l1.6-7.3l0.8-6.4
			l3.4-12.2l0.1-1.3l0.4-1.1l0.6-0.2l0.3-0.6l-1.1-2.1l-0.8-2.4l0.4-1.5l-0.4-1.2l-0.9-0.2l-0.8-0.6l1-1l1.5-1l3.4-4.5l2.3-1.1
			l2.4-0.7l1.6-1.1l-0.3-5.4l0.3-2.9l0.9-2.4l-2-1.7l-1.7-0.7l-0.4-1.2l0.6-1.3l0.3-1.4l1.5-1.3l0-0.8l-0.4-0.6l-0.3-1.8l-0.8-1.9
			l-4.9-1.4l-2.2-3.4l-0.4-4.5l3.7-4.5l4.9,4.7l5.7,1.9l1.2-1.4l-0.8-1.9l1.7-1.3l2.1-0.6l-0.2-2.6l-0.6-3.2l3.6-4.6l5.4,0l3.6-0.5
			l1.1-0.5l-0.6-1.6l-0.2-2.5l1.1-2.2l3.6-3.8l2.8-3.8l-0.3-3.1l0.4-1l0.5-0.9l-0.2-4.8l1.5-2.2l2.1-1.5l1.8-1l6.2-1.7l4.2,2.5
			l2,0.4l1.9,0.1l1.2-1.3l0.9-1.3l0.6-1.3l0.5-1.5l1.2-1.4l1.5-1.1l0.9-0.3l0.5,0.3l1.4-0.7l1-1.7l3.5-1.3l0.5-1l0.7-0.9l1-2.2
			l1.8-0.6l1.3-0.6l15.6,9.4l1.3-4.9l6.5,4.3l0.2,7.2l12.1,13.8l7.9,6.9l3.4,0.6L1938.6,471.7z"/>
	</g>
</g>
<rect x="1248" y="779.8" fill="none" width="689.8" height="148.8"/>
<text transform="matrix(1 0 0 1 1248.0242 845.626)" font-family="'ArialMT'" font-size="92px">NEW ZEALANS</text>
</svg>
